<svg width="71" height="47" viewBox="0 0 71 47" fill="none" xmlns="http://www.w3.org/2000/svg">
<g clip-path="url(#clip0_43_253)">
<path d="M52.2274 14.3308L50.879 17.3033H53.5832L52.2274 14.3308ZM36.6678 16.1728C36.922 16.0522 37.0716 15.7898 37.0716 15.4639C37.0716 15.1446 36.9144 14.9133 36.6603 14.8047C36.4288 14.6842 36.0727 14.6703 35.7312 14.6703H33.3188V16.3265H35.6988C36.08 16.3266 36.3985 16.3215 36.6678 16.1728ZM5.75669 14.3308L4.42355 17.3033H7.09786L5.75669 14.3308ZM67.8255 33.3735H64.0422V31.7742H67.8102C68.1838 31.7742 68.4454 31.7297 68.6029 31.5894C68.7518 31.4645 68.836 31.2878 68.8345 31.1032C68.8345 30.8858 68.7396 30.7133 68.595 30.61C68.4531 30.4962 68.246 30.4443 67.9047 30.4443C66.0653 30.3875 63.7704 30.496 63.7704 28.1359C63.7704 27.0543 64.5255 25.9156 66.5813 25.9156H70.4837V24.4317H66.8581C65.7639 24.4317 64.9689 24.6701 64.4061 25.0409V24.4317H59.0434C58.1859 24.4317 57.1794 24.6251 56.7033 25.0409V24.4317H47.1263V25.0409C46.3643 24.5407 45.078 24.4317 44.4848 24.4317H38.1678V25.0409C37.565 24.5097 36.2238 24.4317 35.4068 24.4317H28.3372L26.7196 26.0245L25.2044 24.4317H14.6437V34.8392H25.0052L26.6719 33.2209L28.2422 34.8392L34.629 34.8443V32.396H35.2571C36.1045 32.4084 37.1039 32.3771 37.9859 32.0303V34.8388H43.2539V32.1262H43.508C43.8322 32.1262 43.8644 32.1386 43.8644 32.4334V34.8382H59.8681C60.8841 34.8382 61.9462 34.6019 62.5342 34.172V34.8382H67.6106C68.6669 34.8382 69.6985 34.7035 70.4835 34.3587V32.42C70.0078 33.053 69.0801 33.3739 67.8253 33.3739L67.8255 33.3735ZM35.341 30.9161H32.8965V33.4177H29.0887L26.6764 30.9488L24.1695 33.4177H16.4094V25.9596H24.2889L26.6991 28.4043L29.1909 25.9596H35.4509C37.0056 25.9596 38.7524 26.3513 38.7524 28.4166C38.7524 30.4885 37.0534 30.9161 35.341 30.9161ZM47.0954 30.578C47.3721 30.942 47.412 31.2818 47.4201 31.9393V33.4178H45.453V32.4848C45.453 32.0361 45.5006 31.3717 45.1364 31.0249C44.8505 30.7578 44.4139 30.694 43.699 30.694H41.6054V33.4178H39.637V25.9597H44.1597C45.1519 25.9597 45.8741 25.9998 46.517 26.3116C47.1353 26.6514 47.5244 27.117 47.5244 27.9678C47.5242 29.1581 46.6516 29.7653 46.1359 29.952C46.5717 30.0983 46.928 30.3607 47.0954 30.578ZM55.1879 27.502H50.6003V28.8579H55.0758V30.3796H50.6003V31.8635L55.1879 31.8701V33.4177H48.6494V25.9596H55.1879V27.502ZM60.222 33.4176H56.4065V31.8183H60.2069C60.5785 31.8183 60.842 31.7736 61.0071 31.6335C61.1418 31.5183 61.2386 31.3505 61.2386 31.1474C61.2386 30.9299 61.1337 30.7574 60.9995 30.6539C60.8496 30.5402 60.6428 30.4887 60.3018 30.4887C58.4697 30.4315 56.1753 30.54 56.1753 28.1801C56.1753 27.0983 56.9225 25.9597 58.9763 25.9597H62.9039V27.5468H59.31C58.9538 27.5468 58.7222 27.5592 58.5253 27.6819C58.3104 27.8027 58.2309 27.9818 58.2309 28.2182C58.2309 28.4995 58.4131 28.6911 58.6595 28.7738C58.8662 28.8392 59.0881 28.8583 59.4219 28.8583L60.4766 28.8845C61.5397 28.9077 62.27 29.0754 62.7138 29.4841C63.095 29.8431 63.2998 30.2966 63.2998 31.0641C63.2997 32.6686 62.1978 33.4176 60.222 33.4176ZM45.0278 27.6223C44.7911 27.4944 44.4418 27.4876 44.0932 27.4876H41.6807V29.1626H44.0609C44.442 29.1626 44.766 29.1503 45.0278 29.0089C45.2817 28.8692 45.4337 28.612 45.4337 28.293C45.4337 27.9741 45.2817 27.7431 45.0278 27.6223ZM66.9167 27.4874C66.5604 27.4874 66.3234 27.4998 66.124 27.6222C65.9172 27.7431 65.8379 27.9222 65.8379 28.1588C65.8379 28.44 66.0124 28.6315 66.2662 28.7144C66.4731 28.7798 66.6947 28.7989 67.021 28.7989L68.0831 28.8246C69.1543 28.8488 69.8698 29.0165 70.3059 29.4252C70.3854 29.4819 70.4331 29.5457 70.4877 29.6097V27.4876H66.9169L66.9167 27.4874ZM35.4088 27.4874H32.8544V29.387H35.3861C36.1388 29.387 36.6069 29.0471 36.6072 28.402C36.6069 27.7498 36.1161 27.4874 35.4088 27.4874ZM18.3607 27.4874V28.8434H22.6614V30.3652H18.3607V31.8489H23.1772L25.4151 29.661L23.2723 27.4874H18.3607ZM30.9379 32.703V26.7237L27.9302 29.6652L30.9379 32.703ZM18.5251 20.7286V22.0137H34.8924L34.8848 19.2951H35.2015C35.4234 19.3022 35.4879 19.3207 35.4879 19.6539V22.0138H43.9533V21.3808C44.636 21.7137 45.6979 22.0138 47.0954 22.0138H50.6567L51.4189 20.3577H53.1087L53.8541 22.0138H60.7168V20.4406L61.7558 22.0137H67.2555V11.6147H61.813V12.8429L61.0509 11.6147H55.4661V12.8429L54.7663 11.6147H47.2224C45.9595 11.6147 44.8498 11.7751 43.9532 12.222V11.6147H38.7471V12.222C38.1765 11.7613 37.399 11.6147 36.5348 11.6147H17.5156L16.2396 14.3008L14.9291 11.6147H8.93866V12.8429L8.28045 11.6147H3.17163L0.799223 16.5592V20.5143L4.30731 13.0579H7.21812L10.5498 20.1175V13.0579H13.7475L16.3112 18.1161L18.6666 13.0579H21.9283V20.5143H19.9203L19.913 14.6745L17.0721 20.5143H15.352L12.5039 14.6694V20.5143H8.51909L7.76635 18.8511H3.68734L2.92682 20.5143H0.799133V22.0143H4.14658L4.90129 20.3581H6.59118L7.34392 22.0143H13.9299V20.748L14.5177 22.0196H17.9366L18.5245 20.7289L18.5251 20.7286ZM44.3166 13.927C44.9496 13.3319 45.9417 13.0574 47.2917 13.0574H49.1882V14.6551H47.3314C46.6168 14.6551 46.2127 14.7518 45.8241 15.0969C45.4899 15.4108 45.2608 16.0043 45.2608 16.7858C45.2608 17.5847 45.4355 18.1606 45.7994 18.5369C46.1011 18.8319 46.6494 18.9214 47.1649 18.9214H48.045L50.806 13.0577H53.7413L57.0582 20.1103V13.0578H60.0411L63.4848 18.2507V13.0578H65.4915V20.5139H62.7153L59.0019 14.9176V20.5139H55.0121L54.2498 18.8507H50.1801L49.4405 20.5139H47.1478C46.1957 20.5139 44.99 20.3224 44.3072 19.6892C43.6187 19.0561 43.2607 18.1985 43.2607 16.8427C43.2604 15.7367 43.4742 14.7259 44.3166 13.927ZM40.287 13.0575H42.2859V20.5139H40.287V13.0575ZM31.2747 13.0575H35.7806C36.7815 13.0575 37.5196 13.0817 38.153 13.4147C38.7727 13.7477 39.1443 14.234 39.1443 15.0655C39.1443 16.2545 38.272 16.8686 37.7641 17.0531C38.1926 17.2016 38.5589 17.4638 38.7334 17.681C39.01 18.0519 39.0576 18.3831 39.0576 19.049V20.5138H37.0817L37.0743 19.5735C37.0743 19.1248 37.1215 18.4795 36.7651 18.121C36.4789 17.8589 36.0425 17.8018 35.3371 17.8018H33.234V20.5139H31.2749L31.2747 13.0575ZM23.3771 13.0575H29.9216V14.6102H25.3364V15.9543H29.8115V17.4827H25.3364V18.9718H29.9216V20.5138H23.3771V13.0575Z" fill="#2557D6"/>
</g>
<defs>
<clipPath id="clip0_43_253">
<rect width="69.6885" height="46.459" fill="white" transform="translate(0.799133)"/>
</clipPath>
</defs>
</svg>
