   <svg
          xmlns="http://www.w3.org/2000/svg"
          viewBox="0 0 1440 836"
          fill="none"
        >
          <path
            d="M1217.74 -1152.17C1055.64 -1160.75 908.955 -1086.27 765.07 -993.07C722.415 -965.439 680.055 -936.212 637.554 -906.887C535.803 -836.681 433.248 -765.92 323.911 -715.194C228.081 -670.735 124.346 -640.575 21.3506 -610.63C-19.642 -598.712 -60.5174 -586.827 -100.731 -574.089C-241.149 -529.61 -372.801 -474.827 -466.398 -371.243C-674.758 -140.652 -763.55 155.932 -655.921 377.328C-603.067 486.051 -493.081 548.904 -364.262 593.314C-278.303 622.948 -182.344 644.842 -87.644 666.449C-40.6571 677.17 6.02003 687.819 51.012 699.309C97.242 711.115 143.554 724.237 190.115 737.43C423.397 803.531 662.929 871.402 929.718 784.293C1269.4 673.383 1532.93 421.474 1700.98 159.851C1870.21 -103.61 1925.67 -386.593 1836.34 -630.277C1745.72 -877.461 1561.15 -1134.01 1217.74 -1152.17Z"
            fill="#008080"
            stroke="#F9F0ED"
            stroke-width="20"
          />
        </svg>