<svg width="36" height="36" viewBox="0 0 36 36" fill="none" xmlns="http://www.w3.org/2000/svg">
<path d="M35.8278 18.2369C35.8242 27.8593 28.0199 35.6562 18.3983 35.6516C8.77682 35.6479 0.979897 27.8446 0.983583 18.2221C0.987269 8.60338 8.78511 0.808295 18.4039 0.807373C28.0263 0.806452 35.8269 8.60706 35.8278 18.2295V18.2369Z" fill="#F7931A"/>
<path d="M21.5816 14.8499C21.5816 17.0763 18.0863 16.8164 16.974 16.8164V12.8816C18.0863 12.8797 21.577 12.5259 21.577 14.8481L21.5816 14.8499ZM22.4976 20.9706C22.4976 23.4172 18.3093 23.1389 16.9731 23.1398V18.8014C18.3093 18.8004 22.4985 18.4162 22.4985 20.9688L22.4976 20.9706ZM25.2547 13.9671C25.0308 11.6329 23.0155 10.8505 20.4721 10.6275V7.39026H18.5019V10.5428C17.984 10.5428 17.4541 10.5529 16.9279 10.564V7.39118H14.9587V10.6275C14.532 10.6358 14.1127 10.6441 13.7045 10.6441V10.634H10.986V12.7415C10.986 12.7415 12.4411 12.7138 12.4171 12.7415C12.9673 12.6705 13.4732 13.0557 13.5506 13.6049V17.291C13.6197 17.291 13.6897 17.2956 13.7589 17.3048H13.5506V22.4718C13.5276 22.856 13.1986 23.1481 12.8152 23.1251H12.8134C12.8383 23.1472 11.3814 23.1251 11.3814 23.1251L10.9897 25.4786H13.5543C14.0316 25.4786 14.5007 25.4869 14.9614 25.4906V28.7648H16.9298V25.5247C17.4698 25.5358 17.9932 25.5404 18.5037 25.5404V28.7657H20.4712V25.4971C23.7886 25.3072 26.1035 24.4724 26.391 21.3613C26.6232 18.8557 25.4446 17.7379 23.5647 17.2864C24.817 16.6929 25.5109 15.3291 25.2547 13.9671Z" fill="white"/>
</svg>
