<svg width="51" height="50" viewBox="0 0 51 50" fill="none" xmlns="http://www.w3.org/2000/svg">
<path d="M43.441 25.8045V12.1418C44.2609 11.9999 45.026 11.6356 45.6529 11.0885C46.2798 10.5414 46.7444 9.8326 46.9959 9.03947C47.2474 8.24634 47.2762 7.39935 47.0791 6.59097C46.8821 5.78259 46.4667 5.04388 45.8784 4.45548C45.2901 3.86708 44.5515 3.45161 43.7431 3.2544C42.9348 3.0572 42.0878 3.08585 41.2946 3.33723C40.5014 3.58861 39.7925 4.05306 39.2453 4.67987C38.6982 5.30668 38.3337 6.07177 38.1917 6.89162H24.5295C24.4143 6.21962 24.1493 5.58217 23.7541 5.02657C23.359 4.47096 22.8438 4.01146 22.2468 3.68214C21.6498 3.35282 20.9863 3.16213 20.3055 3.12423C19.6248 3.08632 18.9442 3.20217 18.3144 3.46318C17.6845 3.72419 17.1215 4.12366 16.6671 4.63196C16.2127 5.14026 15.8785 5.74435 15.6894 6.39941C15.5004 7.05447 15.4612 7.7437 15.5748 8.41597C15.6885 9.08824 15.952 9.72629 16.3459 10.2828L10.6155 16.0125C10.0591 15.6199 9.42147 15.3575 8.74987 15.2447C8.07827 15.1319 7.3899 15.1717 6.73575 15.3611C6.08161 15.5505 5.47845 15.8846 4.97095 16.3387C4.46345 16.7928 4.06462 17.3552 3.80399 17.9844C3.54337 18.6136 3.42763 19.2933 3.46534 19.9732C3.50306 20.6532 3.69327 21.316 4.02188 21.9124C4.35049 22.5089 4.80909 23.0238 5.3637 23.419C5.91831 23.8142 6.55472 24.0795 7.22579 24.1954V37.8581C6.40592 38 5.64077 38.3643 5.01387 38.9114C4.38697 39.4585 3.92241 40.1673 3.6709 40.9604C3.41939 41.7536 3.39059 42.6006 3.58766 43.4089C3.78473 44.2173 4.20009 44.956 4.78839 45.5444C5.3767 46.1328 6.11534 46.5483 6.92369 46.7455C7.73204 46.9427 8.57902 46.9141 9.3722 46.6627C10.1654 46.4113 10.8742 45.9469 11.4214 45.32C11.9686 44.6932 12.3331 43.9281 12.4751 43.1083H26.1372C26.3316 44.2294 26.9395 45.2368 27.8409 45.9311C28.7423 46.6255 29.8715 46.9563 31.005 46.8581C32.1386 46.7599 33.1941 46.2398 33.9626 45.4008C34.7312 44.5618 35.1569 43.4649 35.1555 42.327C35.1509 41.5254 34.9321 40.7396 34.5217 40.051L40.3849 34.1878C41.0731 34.598 41.8585 34.8167 42.6597 34.8213C43.7976 34.823 44.8947 34.3976 45.7339 33.6291C46.5731 32.8607 47.0932 31.8053 47.1915 30.6716C47.2897 29.538 46.9588 28.4088 46.2643 27.5075C45.5698 26.6062 44.5622 25.9985 43.441 25.8045ZM38.1917 29.4922H37.3314C37.1242 29.4922 36.9255 29.5745 36.7789 29.721C36.6324 29.8675 36.5501 30.0662 36.5501 30.2734C36.5501 30.4806 36.6324 30.6794 36.7789 30.8259C36.9255 30.9724 37.1242 31.0547 37.3314 31.0547H38.1917C38.3309 31.837 38.6747 32.5686 39.1881 33.1752L33.5089 38.8544C32.9022 38.341 32.1705 37.9973 31.3881 37.8582V31.0547H32.8529C33.0601 31.0547 33.2588 30.9724 33.4054 30.8259C33.5519 30.6794 33.6342 30.4806 33.6342 30.2734C33.6342 30.0662 33.5519 29.8675 33.4054 29.721C33.2588 29.5745 33.0601 29.4922 32.8529 29.4922H31.3881V24.1955C32.1429 24.0674 32.8529 23.7499 33.4516 23.2726C34.0502 22.7954 34.518 22.174 34.811 21.4667C35.1041 20.7594 35.2128 19.9892 35.1271 19.2284C35.0414 18.4676 34.764 17.741 34.3209 17.1166L40.0512 11.3869C40.597 11.7705 41.2211 12.0283 41.8785 12.1417V25.8047C40.9597 25.9663 40.1129 26.407 39.4533 27.0667C38.7936 27.7265 38.3532 28.5733 38.1917 29.4922ZM26.1372 41.5459H12.4751C12.3617 40.8883 12.104 40.2641 11.7204 39.7182L12.4183 39.0197C12.5624 38.8727 12.6426 38.6748 12.6415 38.469C12.6405 38.2632 12.5583 38.0661 12.4128 37.9206C12.2672 37.7751 12.0701 37.6928 11.8643 37.6918C11.6585 37.6908 11.4606 37.771 11.3136 37.915L10.6158 38.6133C10.07 38.2295 9.44583 37.9717 8.78829 37.8583V24.1953C9.70712 24.0337 10.5539 23.593 11.2135 22.9333C11.8731 22.2735 12.3136 21.4267 12.4751 20.5078H19.2872C19.296 20.7069 19.3812 20.8949 19.5252 21.0326C19.6691 21.1704 19.8607 21.2473 20.06 21.2473C20.2592 21.2473 20.4508 21.1704 20.5947 21.0326C20.7387 20.8949 20.824 20.7069 20.8327 20.5078H26.1373C26.2988 21.4269 26.7394 22.274 27.3994 22.9338C28.0593 23.5936 28.9064 24.0341 29.8256 24.1955V29.5005C29.6264 29.5092 29.4383 29.5944 29.3004 29.7384C29.1625 29.8824 29.0856 30.0741 29.0856 30.2734C29.0856 30.4728 29.1625 30.6645 29.3004 30.8085C29.4383 30.9525 29.6264 31.0377 29.8256 31.0464V37.8582C28.9064 38.0195 28.0593 38.4601 27.3994 39.1199C26.7394 39.7797 26.2988 40.6268 26.1372 41.5459ZM19.2787 12.1418V13.002C19.2787 13.2092 19.361 13.4079 19.5075 13.5544C19.654 13.701 19.8527 13.7833 20.0599 13.7833C20.2671 13.7833 20.4659 13.701 20.6124 13.5544C20.7589 13.4079 20.8412 13.2092 20.8412 13.002V12.1418C21.7603 11.9805 22.6075 11.5399 23.2674 10.8801C23.9273 10.2203 24.368 9.37324 24.5295 8.45412H38.1917C38.305 9.11176 38.5628 9.73606 38.9465 10.282L33.2159 16.0121C32.5914 15.5694 31.8648 15.2924 31.1041 15.207C30.3434 15.1215 29.5735 15.2304 28.8663 15.5234C28.1592 15.8165 27.5379 16.2841 27.0606 16.8825C26.5833 17.481 26.2656 18.1907 26.1372 18.9453H20.8412V17.4805C20.8412 17.2733 20.7589 17.0746 20.6124 16.928C20.4659 16.7815 20.2671 16.6992 20.0599 16.6992C19.8527 16.6992 19.654 16.7815 19.5075 16.928C19.361 17.0746 19.2787 17.2733 19.2787 17.4805V18.9453H12.4751C12.3618 18.2877 12.104 17.6634 11.7203 17.1174L17.4509 11.3873C17.9968 11.7709 18.6211 12.0286 19.2787 12.1418ZM30.6068 22.7119C30.0164 22.7118 29.4393 22.5366 28.9484 22.2084C28.4576 21.8803 28.0751 21.414 27.8492 20.8685C27.6234 20.323 27.5644 19.7227 27.6797 19.1437C27.7949 18.5646 28.0793 18.0327 28.4969 17.6153C28.9144 17.1979 29.4464 16.9136 30.0255 16.7985C30.6045 16.6834 31.2048 16.7425 31.7502 16.9685C32.2957 17.1945 32.7619 17.5771 33.0899 18.0681C33.4179 18.559 33.593 19.1361 33.593 19.7266C33.592 20.5182 33.277 21.2771 32.7172 21.8367C32.1574 22.3964 31.3984 22.7112 30.6068 22.7119ZM42.6597 4.6875C43.2502 4.68735 43.8275 4.86231 44.3185 5.19026C44.8096 5.51821 45.1923 5.98441 45.4184 6.5299C45.6445 7.07539 45.7037 7.67568 45.5886 8.25483C45.4735 8.83399 45.1892 9.366 44.7717 9.78359C44.3543 10.2012 43.8223 10.4856 43.2432 10.6008C42.6641 10.7161 42.0638 10.657 41.5182 10.4311C40.9727 10.2051 40.5064 9.8225 40.1783 9.33154C39.8502 8.84058 39.6751 8.26336 39.6751 7.67287C39.6761 6.88153 39.9908 6.12287 40.5503 5.56324C41.1098 5.0036 41.8684 4.68867 42.6597 4.6875ZM20.0599 4.6875C20.6504 4.68765 21.2275 4.86287 21.7183 5.191C22.2092 5.51913 22.5917 5.98543 22.8175 6.53095C23.0434 7.07647 23.1024 7.6767 22.9871 8.25576C22.8718 8.83482 22.5874 9.36669 22.1699 9.78412C21.7523 10.2016 21.2204 10.4858 20.6413 10.6009C20.0622 10.7161 19.462 10.6569 18.9166 10.4309C18.3711 10.2049 17.9049 9.82231 17.5769 9.33138C17.2489 8.84045 17.0738 8.26329 17.0738 7.67287C17.0748 6.88127 17.3897 6.12238 17.9496 5.5627C18.5094 5.00303 19.2683 4.68827 20.0599 4.6875ZM5.02089 19.7266C5.02089 19.1361 5.19596 18.559 5.52396 18.0681C5.85196 17.5771 6.31817 17.1945 6.86363 16.9685C7.40909 16.7425 8.00931 16.6834 8.5884 16.7985C9.16748 16.9136 9.69943 17.1979 10.117 17.6153C10.5345 18.0327 10.8189 18.5646 10.9342 19.1437C11.0495 19.7227 10.9904 20.323 10.7646 20.8685C10.5388 21.414 10.1562 21.8803 9.6654 22.2084C9.17456 22.5366 8.59745 22.7118 8.00703 22.7119C7.21542 22.7112 6.45645 22.3964 5.89663 21.8367C5.33681 21.2771 5.02186 20.5182 5.02089 19.7266ZM8.00703 45.3125C7.41654 45.3126 6.83928 45.1377 6.34824 44.8097C5.8572 44.4818 5.47444 44.0156 5.24837 43.4701C5.0223 42.9246 4.96307 42.3243 5.07818 41.7452C5.19328 41.166 5.47755 40.634 5.89503 40.2164C6.31252 39.7988 6.84446 39.5144 7.42358 39.3992C8.00271 39.2839 8.60301 39.343 9.14856 39.5689C9.69411 39.7949 10.1604 40.1775 10.4885 40.6685C10.8165 41.1594 10.9917 41.7366 10.9917 42.3271C10.9907 43.1185 10.6759 43.8771 10.1164 44.4368C9.55695 44.9964 8.79837 45.3113 8.00703 45.3125ZM30.6068 45.3125C30.0164 45.3123 29.4393 45.1371 28.9484 44.809C28.4576 44.4809 28.0751 44.0146 27.8492 43.469C27.6234 42.9235 27.5644 42.3233 27.6797 41.7442C27.7949 41.1652 28.0793 40.6333 28.4969 40.2159C28.9144 39.7984 29.4464 39.5142 30.0255 39.3991C30.6045 39.2839 31.2048 39.3431 31.7502 39.5691C32.2957 39.795 32.7619 40.1777 33.0899 40.6686C33.4179 41.1595 33.593 41.7367 33.593 42.3271C33.592 43.1187 33.277 43.8776 32.7172 44.4373C32.1574 44.997 31.3984 45.3117 30.6068 45.3125ZM42.6597 33.2588C42.0693 33.2587 41.4922 33.0834 41.0014 32.7553C40.5105 32.4272 40.128 31.9609 39.9022 31.4154C39.6763 30.8698 39.6173 30.2696 39.7326 29.6906C39.8479 29.1115 40.1323 28.5796 40.5498 28.1622C40.9673 27.7448 41.4993 27.4605 42.0784 27.3454C42.6575 27.2302 43.2577 27.2894 43.8031 27.5154C44.3486 27.7414 44.8148 28.124 45.1428 28.6149C45.4708 29.1059 45.6459 29.683 45.6459 30.2734C45.6453 31.0651 45.3304 31.8242 44.7705 32.384C44.2106 32.9437 43.4515 33.2584 42.6597 33.2588Z" fill="#008080"/>
<path d="M25.3899 29.4922H24.5295C24.368 28.5731 23.9274 27.726 23.2674 27.0662C22.6075 26.4064 21.7604 25.9659 20.8412 25.8045V24.9443C20.8412 24.7371 20.7589 24.5384 20.6124 24.3919C20.4659 24.2454 20.2672 24.163 20.06 24.163C19.8528 24.163 19.6541 24.2454 19.5075 24.3919C19.361 24.5384 19.2787 24.7371 19.2787 24.9443V25.8045C18.524 25.9326 17.8141 26.2501 17.2155 26.7273C16.6168 27.2045 16.1491 27.8257 15.856 28.5329C15.5629 29.2402 15.4541 30.0102 15.5396 30.7709C15.6252 31.5316 15.9024 32.2582 16.3453 32.8826L15.7326 33.4954C15.6588 33.5676 15.6002 33.6538 15.5599 33.7489C15.5197 33.844 15.4987 33.9461 15.4982 34.0494C15.4977 34.1526 15.5176 34.2549 15.5569 34.3504C15.5961 34.4459 15.654 34.5327 15.727 34.6057C15.8 34.6787 15.8867 34.7365 15.9822 34.7758C16.0777 34.815 16.18 34.835 16.2833 34.8345C16.3865 34.8339 16.4887 34.813 16.5837 34.7727C16.6788 34.7325 16.765 34.6738 16.8373 34.6001L17.4501 33.9872C18.0746 34.4301 18.8012 34.7073 19.5619 34.793C20.3227 34.8786 21.0927 34.7698 21.8 34.4768C22.5073 34.1839 23.1287 33.7162 23.6061 33.1177C24.0834 32.5192 24.4012 31.8094 24.5295 31.0547H25.3899C25.5971 31.0547 25.7958 30.9724 25.9423 30.8259C26.0888 30.6794 26.1711 30.4806 26.1711 30.2734C26.1711 30.0662 26.0888 29.8675 25.9423 29.721C25.7958 29.5745 25.5971 29.4922 25.3899 29.4922ZM20.06 33.2588C19.4695 33.2587 18.8924 33.0834 18.4016 32.7553C17.9107 32.4272 17.5282 31.9609 17.3024 31.4154C17.0765 30.8698 17.0175 30.2696 17.1328 29.6906C17.2481 29.1115 17.5325 28.5796 17.95 28.1622C18.3676 27.7448 18.8995 27.4605 19.4786 27.3454C20.0577 27.2302 20.6579 27.2894 21.2034 27.5154C21.7488 27.7414 22.215 28.124 22.543 28.6149C22.871 29.1059 23.0461 29.683 23.0461 30.2734C23.0451 31.065 22.7302 31.8239 22.1704 32.3836C21.6105 32.9433 20.8516 33.258 20.06 33.2588Z" fill="#008080"/>
<path d="M14.0754 35.1531L12.9707 36.2578C12.897 36.3301 12.8383 36.4162 12.7981 36.5113C12.7578 36.6064 12.7369 36.7085 12.7363 36.8118C12.7358 36.915 12.7558 37.0174 12.795 37.1129C12.8343 37.2083 12.8921 37.2951 12.9651 37.3681C13.0381 37.4411 13.1249 37.4989 13.2204 37.5382C13.3159 37.5775 13.4182 37.5974 13.5214 37.5969C13.6247 37.5964 13.7268 37.5754 13.8219 37.5352C13.917 37.4949 14.0032 37.4362 14.0754 37.3625L15.1801 36.2578C15.3242 36.1108 15.4044 35.9129 15.4033 35.7071C15.4023 35.5013 15.3201 35.3042 15.1746 35.1587C15.029 35.0131 14.8319 34.9309 14.6261 34.9299C14.4203 34.9288 14.2224 35.0091 14.0754 35.1531Z" fill="#008080"/>
</svg>
