<svg width="327" height="230" viewBox="0 0 327 230" fill="none" xmlns="http://www.w3.org/2000/svg">
<path d="M84.7122 97.5473C84.6065 97.5473 84.5004 97.5402 84.3937 97.5259L76.2885 96.4457C75.6591 96.3615 75.0992 96.0379 74.7138 95.533C74.3279 95.0287 74.1615 94.4039 74.2457 93.774L74.9302 88.6367C75.0063 88.065 74.7209 87.5106 74.2196 87.2574C73.4642 86.8756 72.7225 86.4463 72.016 85.9808C71.5458 85.6709 70.9231 85.6985 70.4647 86.0492L66.3483 89.1977C65.8435 89.5836 65.2187 89.75 64.5893 89.6658C63.9599 89.5821 63.4004 89.2579 63.0145 88.7531L58.0472 82.258C57.2504 81.2166 57.4499 79.7204 58.4918 78.9236L62.6087 75.7751C63.0666 75.4249 63.2565 74.8307 63.0803 74.2963C62.8159 73.4923 62.5959 72.6643 62.4254 71.8348C62.3126 71.2851 61.8522 70.8644 61.2805 70.7879L56.1432 70.1033C55.5133 70.0196 54.9538 69.6955 54.5679 69.1906C54.182 68.6863 54.0156 68.0615 54.0998 67.4316L55.1799 59.327C55.2636 58.6976 55.5878 58.1381 56.0926 57.7522C56.5975 57.3663 57.2218 57.2004 57.8517 57.2841L62.989 57.9686C63.5622 58.0467 64.115 57.7588 64.3682 57.2581C64.7506 56.5016 65.1799 55.7599 65.6449 55.0539C65.9542 54.5843 65.9267 53.961 65.5765 53.5031L62.428 49.3862C62.0421 48.8819 61.8756 48.2571 61.9599 47.6272C62.0441 46.9973 62.3677 46.4378 62.8726 46.0524L69.3672 41.0851C69.8715 40.6992 70.4979 40.5333 71.1262 40.617C71.7562 40.7012 72.3156 41.0249 72.7015 41.5297L75.8501 45.6461C76.2002 46.104 76.7944 46.2944 77.3284 46.1183C78.1334 45.8538 78.9613 45.6333 79.7903 45.4633C80.3401 45.3505 80.7607 44.8901 80.8368 44.3184L81.5213 39.1811C81.605 38.5512 81.9292 37.9917 82.434 37.6058C82.9389 37.2199 83.5631 37.0535 84.1931 37.1372L92.2982 38.2168C93.5978 38.3899 94.5146 39.5889 94.3415 40.8886L93.657 46.0264C93.581 46.5981 93.8663 47.1519 94.3676 47.4051C95.1231 47.7864 95.8648 48.2163 96.5718 48.6818C97.0414 48.9906 97.6641 48.9636 98.1225 48.6134L102.239 45.4649C102.744 45.079 103.368 44.9125 103.998 44.9963C104.628 45.0805 105.188 45.4041 105.574 45.909L110.541 52.4036C111.338 53.4454 111.138 54.9406 110.097 55.7379L105.98 58.8864C105.522 59.2366 105.333 59.8308 105.508 60.3653C105.772 61.1682 105.992 61.9962 106.163 62.8267C106.276 63.3765 106.737 63.7971 107.308 63.8732L112.446 64.5577C113.745 64.7307 114.662 65.9298 114.489 67.2294L113.409 75.3346C113.325 75.964 113.001 76.5239 112.496 76.9093C111.992 77.2952 111.368 77.4622 110.737 77.3774L105.6 76.6929C105.028 76.6168 104.474 76.9022 104.221 77.4035C103.838 78.1615 103.408 78.9032 102.944 79.6076C102.635 80.0767 102.662 80.7 103.012 81.1584L106.161 85.2748C106.547 85.7796 106.713 86.4039 106.629 87.0338C106.545 87.6637 106.222 88.2232 105.717 88.6086L99.2221 93.5759C98.7177 93.9618 98.0934 94.1277 97.463 94.044C96.8331 93.9598 96.2736 93.6362 95.8882 93.1313L92.7397 89.0149C92.389 88.5571 91.7954 88.3677 91.2614 88.5428C90.4585 88.8067 89.6305 89.0272 88.8 89.1977C88.2502 89.3105 87.8296 89.7709 87.7535 90.3427L87.069 95.4799C86.9853 96.1093 86.6611 96.6688 86.1563 97.0547C85.7336 97.3783 85.2313 97.5473 84.7122 97.5473ZM71.2947 84.7465C71.7419 84.7465 72.188 84.8731 72.5765 85.1288C73.2508 85.5729 73.9583 85.9823 74.6791 86.3468C75.5678 86.7954 76.0747 87.7699 75.9414 88.772L75.2569 93.9092C75.2089 94.2691 75.3039 94.6254 75.5239 94.9133C75.7444 95.2012 76.0634 95.3865 76.4233 95.434L84.5284 96.5141C84.8863 96.5606 85.2441 96.4667 85.532 96.2467C85.8199 96.0261 86.0052 95.7071 86.0527 95.3477L86.7372 90.2104C86.8704 89.2084 87.6152 88.4009 88.5902 88.2002C89.3824 88.0374 90.1726 87.8271 90.9383 87.5754C91.8852 87.2635 92.9327 87.5948 93.5468 88.3973L96.6953 92.5136C96.9153 92.8015 97.2349 92.9868 97.5942 93.0348C97.9551 93.0833 98.3104 92.9879 98.5983 92.7673L105.093 87.8C105.687 87.3452 105.801 86.4917 105.346 85.897L102.198 81.7807C101.584 80.9782 101.54 79.8797 102.088 79.0482C102.53 78.3764 102.94 77.6689 103.306 76.9456C103.754 76.0569 104.725 75.5495 105.731 75.6832L110.868 76.3677C111.609 76.4642 112.295 75.9435 112.394 75.2013V75.2018L113.474 67.0967C113.572 66.355 113.049 65.6705 112.307 65.572L107.17 64.8874C106.168 64.7542 105.36 64.0094 105.16 63.0345C104.997 62.2422 104.787 61.452 104.535 60.6858C104.224 59.7394 104.554 58.6909 105.357 58.0774L109.474 54.9288C110.068 54.474 110.182 53.6205 109.727 53.0258L104.76 46.5312C104.539 46.2433 104.22 46.058 103.861 46.01C103.503 45.9605 103.145 46.0565 102.857 46.277L98.7402 49.4255C97.9383 50.0396 96.8398 50.084 96.0077 49.5353C95.3334 49.0912 94.6259 48.6813 93.9051 48.3173C93.0169 47.8686 92.5095 46.8942 92.6427 45.8921L93.3273 40.7543C93.4258 40.0126 92.9026 39.3286 92.1609 39.2296L84.0562 38.1499C83.6969 38.1015 83.3401 38.1969 83.0522 38.4174C82.7643 38.6379 82.579 38.957 82.531 39.3169L81.8465 44.4542C81.7127 45.4562 80.9685 46.2637 79.9935 46.4644C79.2028 46.6267 78.4126 46.837 77.6448 47.0892C76.6984 47.4005 75.6505 47.0703 75.0369 46.2673L71.8884 42.1509C71.433 41.5552 70.5795 41.4424 69.9854 41.8972L63.4908 46.8646C63.2029 47.0846 63.0176 47.4041 62.9701 47.7635C62.9221 48.1228 63.017 48.4797 63.2376 48.7676L66.3861 52.8839C67.0002 53.6864 67.0441 54.7844 66.4958 55.6164C66.0522 56.2897 65.6423 56.9977 65.2779 57.719C64.8292 58.6072 63.8527 59.1126 62.8527 58.9814L57.7154 58.2969C57.355 58.2479 56.9992 58.3438 56.7113 58.5638C56.4234 58.7844 56.2381 59.1034 56.1901 59.4628L55.11 67.5679C55.062 67.9272 55.1569 68.2835 55.377 68.572C55.5975 68.8599 55.9165 69.0452 56.2764 69.0931L61.4137 69.7777C62.4157 69.9114 63.2238 70.6562 63.4239 71.6312C63.5862 72.4219 63.7965 73.2121 64.0492 73.9793C64.3601 74.9257 64.0298 75.9737 63.2274 76.5877L59.1105 79.7363C58.5158 80.1911 58.402 81.0446 58.8568 81.6393L63.8241 88.1344C64.0441 88.4223 64.3636 88.6071 64.723 88.6551C65.0803 88.703 65.4387 88.6081 65.7271 88.3876L69.8435 85.239C70.2717 84.9113 70.7842 84.7465 71.2947 84.7465ZM84.2803 80.5209C83.9327 80.5209 83.5836 80.5071 83.2324 80.478C79.5106 80.1727 76.0788 78.3014 73.8169 75.3437C71.555 72.3866 70.6474 68.5842 71.3279 64.9125C72.5423 58.352 78.7046 53.6369 85.3528 54.1856C89.0746 54.4909 92.5064 56.3622 94.7683 59.3193C97.0302 62.2764 97.9378 66.0789 97.2578 69.7511C96.1067 75.9655 90.5182 80.5209 84.2803 80.5209ZM84.3023 55.1642C78.5479 55.1642 73.3927 59.3663 72.3314 65.0993C71.7041 68.4877 72.5407 71.9956 74.628 74.724C76.7148 77.4525 79.8817 79.1794 83.3161 79.4606C89.4554 79.9629 95.1333 75.6174 96.2537 69.5653C96.8811 66.1769 96.0439 62.6685 93.9572 59.94C91.8704 57.2116 88.704 55.4852 85.2691 55.2035C84.9455 55.1769 84.6224 55.1642 84.3023 55.1642Z" fill="#C9D5E1"/>
<path d="M273.362 64.6174L274.267 52.7349C274.382 51.2357 273.259 49.9279 271.759 49.8135L264.227 49.2397C263.087 49.153 262.106 48.3658 261.813 47.2597C261.502 46.0841 261.124 44.9335 260.684 43.813C260.266 42.7472 260.589 41.5323 261.458 40.786L267.189 35.8656C268.33 34.8861 268.461 33.1673 267.482 32.0265L259.72 22.9841C258.74 21.8432 257.021 21.7121 255.88 22.6916L250.149 27.612C249.28 28.3578 248.03 28.493 247.04 27.9177C245.998 27.3134 244.918 26.7661 243.804 26.2797C242.755 25.8223 242.125 24.734 242.212 23.5931L242.786 16.0612C242.9 14.562 241.777 13.2542 240.278 13.1399L228.396 12.2348C226.896 12.1205 225.589 13.2435 225.474 14.7427L224.9 22.2746C224.814 23.4155 224.026 24.3961 222.92 24.6891C221.745 25.0005 220.594 25.3782 219.474 25.8177C218.408 26.2363 217.193 25.9132 216.447 25.0444L211.526 19.3129C210.547 18.172 208.828 18.0413 207.687 19.0204L198.645 26.7825C197.504 27.7621 197.373 29.4808 198.352 30.6217L203.273 36.3531C204.018 37.2219 204.154 38.4721 203.578 39.4624C202.974 40.5037 202.427 41.5833 201.941 42.6982C201.483 43.7472 200.395 44.3766 199.254 44.2898L191.722 43.716C190.223 43.6017 188.915 44.7247 188.801 46.2239L187.896 58.1065C187.782 59.6057 188.905 60.9135 190.404 61.0279L197.936 61.6016C199.077 61.6884 200.057 62.4755 200.35 63.5817C200.662 64.7573 201.039 65.9079 201.479 67.0283C201.897 68.0942 201.574 69.3091 200.706 70.0554L194.974 74.9757C193.833 75.9553 193.702 77.674 194.682 78.8149L202.444 87.8572C203.423 88.9981 205.142 89.1288 206.283 88.1497L212.014 83.2294C212.883 82.4836 214.133 82.3483 215.124 82.9236C216.165 83.528 217.244 84.0752 218.359 84.5612C219.408 85.0186 220.038 86.1069 219.951 87.2477L219.377 94.7796C219.263 96.2788 220.386 97.5866 221.885 97.701L233.768 98.606C235.267 98.7204 236.575 97.5974 236.689 96.0981L237.263 88.5663C237.35 87.4254 238.137 86.4448 239.243 86.1518C240.418 85.8404 241.569 85.4627 242.689 85.0231C243.755 84.6046 244.97 84.9272 245.717 85.7965L250.637 91.528C251.616 92.6688 253.335 92.7995 254.476 91.8205L263.518 84.0584C264.659 83.0788 264.79 81.3601 263.811 80.2192L258.891 74.4877C258.145 73.6189 258.009 72.3688 258.585 71.3785C259.189 70.3371 259.736 69.257 260.222 68.1427C260.68 67.0937 261.768 66.4643 262.909 66.551L270.441 67.1248C271.94 67.2397 273.248 66.1166 273.362 64.6174ZM230.639 73.8941C219.665 73.6153 211.369 63.9513 212.755 53.0616C213.943 43.7375 222.128 36.7105 231.524 36.9494C242.499 37.2281 250.795 46.8921 249.408 57.7818C248.22 67.1059 240.035 74.1329 230.639 73.8941Z" fill="#0A8484"/>
<path d="M251.237 202.202C249.493 202.202 247.888 201.048 247.396 199.289L244.8 189.999C244.461 188.785 243.407 187.918 242.179 187.841C240.619 187.743 239.052 187.555 237.522 187.279C236.308 187.064 235.077 187.653 234.459 188.75L229.727 197.154C228.649 199.07 226.212 199.751 224.297 198.672L211.038 191.206C210.11 190.684 209.441 189.831 209.155 188.805C208.868 187.78 208.998 186.704 209.521 185.776L214.253 177.372C214.871 176.274 214.738 174.915 213.923 173.99C212.892 172.821 211.919 171.579 211.029 170.3C210.326 169.289 209.036 168.837 207.825 169.176L198.536 171.773C196.42 172.365 194.214 171.124 193.623 169.006L189.527 154.352C189.241 153.326 189.37 152.25 189.893 151.322C190.415 150.394 191.268 149.725 192.294 149.439L201.582 146.843C202.796 146.503 203.664 145.45 203.741 144.22C203.838 142.665 204.028 141.098 204.302 139.565C204.52 138.351 203.929 137.12 202.832 136.502L194.427 131.769C193.499 131.247 192.83 130.395 192.544 129.369C192.257 128.343 192.387 127.267 192.91 126.339L200.376 113.08C200.898 112.152 201.751 111.483 202.777 111.197C203.803 110.911 204.878 111.04 205.807 111.563L214.21 116.295C215.308 116.914 216.668 116.781 217.592 115.965C218.762 114.934 220.004 113.961 221.282 113.072C222.293 112.369 222.744 111.081 222.405 109.867L219.809 100.577C219.523 99.5519 219.652 98.4764 220.175 97.5484C220.697 96.6203 221.55 95.9516 222.575 95.6653L237.23 91.5693C238.257 91.2824 239.332 91.4126 240.26 91.9348C241.188 92.4575 241.857 93.31 242.143 94.3355L244.74 103.625C245.079 104.838 246.133 105.706 247.361 105.783C248.917 105.88 250.483 106.07 252.018 106.345C253.231 106.563 254.462 105.971 255.08 104.874L259.812 96.4698C260.335 95.5417 261.187 94.873 262.213 94.5862C263.239 94.2998 264.315 94.4294 265.242 94.9522L278.501 102.418C279.43 102.94 280.099 103.793 280.385 104.819C280.671 105.844 280.542 106.92 280.019 107.848L275.286 116.252C274.668 117.35 274.801 118.709 275.616 119.634C276.646 120.802 277.619 122.043 278.51 123.324C279.214 124.335 280.503 124.786 281.714 124.447L291.004 121.851C293.119 121.259 295.324 122.5 295.916 124.617L300.012 139.272C300.299 140.298 300.169 141.374 299.646 142.302C299.124 143.229 298.271 143.898 297.246 144.185L287.957 146.781C286.743 147.12 285.876 148.173 285.799 149.403C285.701 150.96 285.512 152.526 285.237 154.059C285.019 155.273 285.61 156.504 286.708 157.122L295.112 161.854C297.028 162.933 297.708 165.369 296.63 167.284L289.163 180.543C288.641 181.471 287.788 182.14 286.763 182.426C285.736 182.713 284.661 182.583 283.733 182.06L275.329 177.327C274.231 176.709 272.872 176.843 271.947 177.658C270.779 178.688 269.537 179.662 268.257 180.552C267.246 181.255 266.795 182.542 267.134 183.756L269.73 193.045C270.017 194.071 269.887 195.147 269.364 196.075C268.842 197.003 267.99 197.672 266.964 197.958L252.309 202.054C251.951 202.155 251.591 202.202 251.237 202.202ZM237.019 186.214C237.246 186.214 237.475 186.234 237.702 186.275C239.194 186.542 240.721 186.727 242.242 186.822C243.904 186.926 245.327 188.092 245.783 189.724L248.38 199.013C248.82 200.588 250.459 201.512 252.035 201.072L266.689 196.976C267.453 196.762 268.087 196.265 268.475 195.574C268.864 194.885 268.96 194.084 268.748 193.321L266.151 184.032C265.695 182.4 266.308 180.665 267.674 179.714C268.922 178.847 270.132 177.897 271.272 176.893C272.523 175.791 274.356 175.608 275.83 176.439L284.234 181.171C285.66 181.972 287.471 181.467 288.274 180.042L295.74 166.783C296.542 165.358 296.036 163.546 294.611 162.744L286.207 158.011C284.732 157.181 283.938 155.52 284.232 153.879C284.5 152.384 284.685 150.856 284.78 149.339C284.884 147.677 286.05 146.254 287.682 145.798L296.971 143.202C297.734 142.988 298.368 142.49 298.757 141.8C299.146 141.11 299.242 140.31 299.029 139.547L294.933 124.892C294.493 123.318 292.851 122.394 291.279 122.834L281.989 125.43C280.358 125.887 278.622 125.275 277.671 123.907C276.803 122.658 275.854 121.448 274.85 120.309C273.748 119.058 273.565 117.227 274.396 115.751L279.128 107.348C279.517 106.657 279.614 105.857 279.4 105.094C279.187 104.331 278.689 103.697 278 103.308L264.74 95.8419C264.049 95.4524 263.249 95.3559 262.487 95.5698C261.724 95.7832 261.09 96.2809 260.701 96.971L255.968 105.375C255.137 106.851 253.478 107.645 251.835 107.35C250.339 107.081 248.812 106.897 247.296 106.803C245.634 106.698 244.211 105.532 243.755 103.9L241.158 94.6107C240.945 93.8475 240.447 93.2135 239.757 92.8251C239.067 92.4366 238.264 92.3396 237.504 92.553L222.849 96.6489C222.086 96.8623 221.452 97.36 221.063 98.0502C220.674 98.7403 220.577 99.5407 220.791 100.304L223.387 109.593C223.843 111.225 223.231 112.96 221.864 113.911C220.617 114.778 219.406 115.727 218.265 116.733C217.016 117.835 215.183 118.018 213.708 117.186L205.304 112.454C204.613 112.064 203.813 111.968 203.05 112.181C202.287 112.395 201.653 112.892 201.264 113.582L193.798 126.841C193.409 127.532 193.313 128.332 193.526 129.095C193.739 129.858 194.237 130.492 194.927 130.881L203.331 135.614C204.807 136.445 205.6 138.106 205.306 139.747C205.038 141.242 204.854 142.769 204.759 144.286C204.654 145.948 203.489 147.372 201.857 147.828L192.568 150.424C191.805 150.637 191.17 151.135 190.782 151.825C190.393 152.515 190.296 153.316 190.51 154.078L194.605 168.733C195.046 170.309 196.688 171.232 198.259 170.792L207.549 168.195C209.18 167.739 210.916 168.352 211.867 169.719C212.734 170.966 213.684 172.176 214.688 173.317C215.79 174.567 215.973 176.398 215.142 177.874L210.409 186.278C210.02 186.969 209.924 187.769 210.137 188.532C210.351 189.295 210.848 189.929 211.538 190.318L224.797 197.785C226.222 198.586 228.034 198.08 228.837 196.656L233.569 188.251C234.285 186.979 235.616 186.214 237.019 186.214ZM244.877 170.907C234.75 170.907 225.235 164.388 221.923 154.498C219.756 148.026 220.428 140.914 223.766 134.985C227.105 129.055 232.839 124.793 239.497 123.29C251.386 120.606 263.742 127.562 267.614 139.125C269.782 145.597 269.11 152.709 265.772 158.638C262.433 164.568 256.699 168.83 250.041 170.333C248.321 170.721 246.59 170.907 244.877 170.907ZM244.667 123.737C243.026 123.737 241.37 123.915 239.721 124.287C233.345 125.725 227.853 129.808 224.656 135.486C221.458 141.164 220.815 147.976 222.891 154.174C226.599 165.245 238.424 171.906 249.817 169.336C256.193 167.898 261.684 163.816 264.882 158.137C268.079 152.459 268.723 145.647 266.647 139.449C263.475 129.98 254.363 123.737 244.667 123.737Z" fill="#C9D5E1"/>
<path d="M108.175 174.192L115.576 162.961C116.51 161.544 116.118 159.637 114.701 158.704L107.582 154.012C106.503 153.302 105.967 151.988 106.283 150.736C106.62 149.405 106.877 148.063 107.057 146.716C107.228 145.434 108.212 144.412 109.478 144.152L117.829 142.435C119.492 142.093 120.562 140.469 120.221 138.807L117.512 125.631C117.171 123.968 115.546 122.898 113.884 123.239L105.532 124.956C104.266 125.216 102.959 124.665 102.297 123.555C101.6 122.389 100.834 121.257 100 120.166C99.2155 119.14 99.1899 117.722 99.9005 116.643L104.592 109.524C105.525 108.107 105.134 106.201 103.717 105.267L92.485 97.8659C91.068 96.9323 89.1619 97.3238 88.2283 98.7409L83.5366 105.86C82.826 106.939 81.5121 107.475 80.26 107.159C78.9292 106.822 77.5872 106.565 76.2401 106.385C74.9588 106.214 73.9363 105.23 73.676 103.964L71.9593 95.6127C71.6178 93.9502 69.993 92.8797 68.3305 93.2217L55.1549 95.9302C53.4923 96.2717 52.4219 97.8965 52.7639 99.5591L54.4806 107.91C54.7409 109.176 54.1896 110.484 53.0799 111.146C51.913 111.843 50.7813 112.609 49.6909 113.443C48.6649 114.227 47.2463 114.253 46.1677 113.542L39.0483 108.851C37.6313 107.917 35.7252 108.308 34.7916 109.725L27.3904 120.957C26.4567 122.374 26.8483 124.28 28.2653 125.214L35.3847 129.906C36.4633 130.616 36.9998 131.93 36.6833 133.182C36.3469 134.513 36.0892 135.855 35.9095 137.202C35.7385 138.483 34.7548 139.506 33.4883 139.766L25.1372 141.482C23.4746 141.824 22.4042 143.449 22.7457 145.111L25.4542 158.287C25.7962 159.949 27.4205 161.02 29.0831 160.678L37.4342 158.961C38.7002 158.701 40.0075 159.252 40.67 160.362C41.3668 161.529 42.1325 162.661 42.9666 163.751C43.7512 164.777 43.7767 166.196 43.0662 167.274L38.3745 174.394C37.4409 175.811 37.8324 177.717 39.2494 178.651L50.4811 186.052C51.8982 186.985 53.8042 186.594 54.7379 185.177L59.4295 178.057C60.1401 176.979 61.454 176.442 62.7062 176.759C64.037 177.095 65.379 177.353 66.7261 177.533C68.0073 177.704 69.0298 178.687 69.2896 179.953L71.0063 188.304C71.3483 189.967 72.9726 191.038 74.6352 190.696L87.8107 187.987C89.4733 187.646 90.5437 186.021 90.2022 184.359L88.4855 176.007C88.2252 174.742 88.7765 173.434 89.8868 172.772C91.0537 172.075 92.1854 171.309 93.2757 170.475C94.3017 169.69 95.7203 169.665 96.7989 170.376L103.918 175.067C105.335 176.001 107.241 175.61 108.175 174.192ZM60.9293 159.948C50.2509 153.662 47.3566 139.58 54.6894 129.592C60.9681 121.04 72.895 118.588 82.0379 123.97C92.7162 130.256 95.6106 144.338 88.2778 154.326C81.9991 162.878 70.0721 165.33 60.9293 159.948Z" fill="white"/>
<path d="M46.5776 78.3703L25.7911 78.3514C25.2225 78.3509 24.7569 78.816 24.7564 79.3841L24.7544 81.4336C24.7544 81.4882 24.785 81.5377 24.833 81.5628L25.3113 81.8083L33.6359 86.0824L35.9473 87.3075C36.0851 87.3805 36.2484 87.3785 36.3847 87.3014L46.6578 81.2218L47.4311 80.7644C47.4873 80.7307 47.5475 80.7108 47.6088 80.7016L47.6098 79.4045C47.6108 78.8338 47.1483 78.3708 46.5776 78.3703Z" fill="#C9D5E1"/>
<path d="M24.7533 82.8772L24.7436 93.3217C24.7436 93.4447 24.8866 93.5121 24.9815 93.4335L32.7523 86.9741C32.8324 86.9078 32.8181 86.7812 32.7257 86.7337L24.9647 82.7485C24.8682 82.6985 24.7533 82.7684 24.7533 82.8772Z" fill="#C9D5E1"/>
<path d="M47.598 93.3998L47.6083 82.0701C47.6083 81.9578 47.4863 81.8879 47.3893 81.9451L39.5133 86.6056C39.4276 86.6566 39.4174 86.7766 39.4934 86.8409L47.3586 93.5101C47.4531 93.5897 47.5975 93.5228 47.598 93.3998Z" fill="#C9D5E1"/>
<path d="M47.0222 94.527L38.5123 87.3116C38.4654 87.2718 38.398 87.2656 38.3449 87.2973L36.8773 88.1656C36.6507 88.2937 36.4036 88.3575 36.1571 88.3575C35.9268 88.357 35.6976 88.3014 35.4873 88.1896L33.859 87.3264C33.8365 87.3565 33.811 87.3851 33.7809 87.4101L25.2408 94.5091C25.1484 94.5857 25.0372 94.6229 24.9259 94.6229C24.8631 94.6229 24.8013 94.6086 24.7426 94.5852C24.7421 95.1538 25.2071 95.6194 25.7758 95.6199L46.5623 95.6388C47.131 95.6393 47.5965 95.1742 47.597 94.6056V94.5678C47.5184 94.6163 47.4301 94.6434 47.3403 94.6434C47.228 94.6439 47.1152 94.6051 47.0222 94.527Z" fill="#C9D5E1"/>
<path d="M298.674 71.7618L277.872 71.7429C277.305 71.7424 276.846 72.2013 276.845 72.7679L276.843 74.8021C276.843 74.8562 276.873 74.9057 276.922 74.9302L277.4 75.1742L285.725 79.4167L288.036 80.6326C288.174 80.7051 288.338 80.7031 288.473 80.6265L298.746 74.5923L299.52 74.138C299.576 74.1048 299.637 74.0849 299.697 74.0757L299.698 72.7883C299.699 72.2217 299.241 71.7623 298.674 71.7618Z" fill="#C9D5E1"/>
<path d="M276.842 76.2345L276.832 86.6035C276.832 86.7255 276.974 86.7924 277.068 86.7148L284.84 80.3019C284.92 80.236 284.906 80.11 284.814 80.0625L277.051 76.1064C276.955 76.0574 276.842 76.1268 276.842 76.2345Z" fill="#C9D5E1"/>
<path d="M299.686 86.6806L299.696 75.4326C299.696 75.3213 299.575 75.2518 299.479 75.3085L291.602 79.9353C291.516 79.9859 291.506 80.1053 291.582 80.1696L299.449 86.7903C299.543 86.8695 299.686 86.8031 299.686 86.6806Z" fill="#C9D5E1"/>
<path d="M299.111 87.798L290.6 80.6357C290.553 80.5964 290.487 80.5908 290.435 80.622L288.966 81.4846C288.739 81.6117 288.492 81.675 288.246 81.675C288.015 81.675 287.786 81.6194 287.576 81.5086L285.948 80.6521C285.925 80.6822 285.9 80.7103 285.869 80.7353L277.329 87.7817C277.237 87.8578 277.126 87.895 277.014 87.8945C276.952 87.8945 276.89 87.8807 276.831 87.8572C276.831 88.4239 277.29 88.8838 277.857 88.8843L298.659 88.9032C299.225 88.9037 299.685 88.4448 299.686 87.8777V87.8399C299.607 87.8879 299.519 87.9149 299.429 87.9144C299.316 87.9139 299.204 87.8761 299.111 87.798Z" fill="#C9D5E1"/>
<path d="M125 33.1071C125 34.6272 123.768 35.8595 122.247 35.8595C120.727 35.8595 119.495 34.6272 119.495 33.1071C119.495 31.5869 120.727 30.3547 122.247 30.3547C123.768 30.3542 125 31.5869 125 33.1071Z" fill="white"/>
<path d="M122.247 36.1148C120.589 36.1148 119.24 34.7651 119.24 33.1066C119.24 31.4481 120.589 30.0984 122.247 30.0984C123.906 30.0984 125.256 31.4481 125.256 33.1066C125.255 34.7656 123.906 36.1148 122.247 36.1148ZM122.247 30.6094C120.87 30.6094 119.75 31.7299 119.75 33.1071C119.75 34.4843 120.87 35.6048 122.247 35.6048C123.625 35.6048 124.745 34.4843 124.745 33.1071C124.745 31.7299 123.624 30.6094 122.247 30.6094Z" fill="#C9D5E1"/>
<path d="M123.384 18.1231C123.384 18.7509 122.875 19.2604 122.247 19.2604C121.619 19.2604 121.11 18.7514 121.11 18.1231C121.11 17.4952 121.619 16.9863 122.247 16.9863C122.875 16.9863 123.384 17.4952 123.384 18.1231Z" fill="white"/>
<path d="M122.247 19.5156C121.48 19.5156 120.855 18.8913 120.855 18.1235C120.855 17.3558 121.48 16.7315 122.247 16.7315C123.015 16.7315 123.64 17.3563 123.64 18.1235C123.64 18.8913 123.015 19.5156 122.247 19.5156ZM122.247 17.2415C121.761 17.2415 121.365 17.6371 121.365 18.123C121.365 18.609 121.761 19.0046 122.247 19.0046C122.734 19.0046 123.13 18.609 123.13 18.123C123.129 17.6371 122.733 17.2415 122.247 17.2415Z" fill="#C9D5E1"/>
<path d="M129.099 30.9698H115.395V25.2077C115.395 21.4237 118.463 18.3558 122.247 18.3558C126.031 18.3558 129.099 21.4237 129.099 25.2077V30.9698H129.099Z" fill="white"/>
<path d="M129.355 31.225H115.14V25.2082C115.14 21.2889 118.328 18.1005 122.247 18.1005C126.166 18.1005 129.354 21.2889 129.354 25.2082V31.225H129.355ZM115.65 30.7146H128.844V25.2082C128.844 21.5706 125.885 18.611 122.247 18.611C118.61 18.611 115.651 21.5706 115.651 25.2082V30.7146H115.65Z" fill="#C9D5E1"/>
<path d="M128.803 33.081H115.692C114.526 33.081 113.581 32.1357 113.581 30.9698C113.581 29.8039 114.526 28.859 115.692 28.859H128.803C129.969 28.859 130.914 29.8044 130.914 30.9698C130.914 32.1357 129.969 33.081 128.803 33.081Z" fill="white"/>
<path d="M128.803 33.3363H115.692C114.387 33.3363 113.326 32.2746 113.326 30.9698C113.326 29.6651 114.387 28.6038 115.692 28.6038H128.803C130.108 28.6038 131.169 29.6656 131.169 30.9698C131.169 32.2746 130.108 33.3363 128.803 33.3363ZM115.692 29.1143C114.669 29.1143 113.836 29.9468 113.836 30.9698C113.836 31.9933 114.669 32.8259 115.692 32.8259H128.803C129.826 32.8259 130.659 31.9933 130.659 30.9698C130.659 29.9468 129.826 29.1143 128.803 29.1143H115.692Z" fill="#C9D5E1"/>
<path d="M220.122 219.815C220.122 221.617 218.662 223.077 216.861 223.077C215.059 223.077 213.599 221.617 213.599 219.815C213.599 218.014 215.059 216.553 216.861 216.553C218.663 216.553 220.122 218.014 220.122 219.815Z" fill="white"/>
<path d="M216.861 223.588C214.782 223.588 213.089 221.895 213.089 219.815C213.089 217.736 214.781 216.043 216.861 216.043C218.941 216.043 220.633 217.735 220.633 219.815C220.633 221.895 218.941 223.588 216.861 223.588ZM216.861 217.064C215.344 217.064 214.11 218.298 214.11 219.815C214.11 221.332 215.344 222.567 216.861 222.567C218.378 222.567 219.613 221.332 219.613 219.815C219.613 218.298 218.378 217.064 216.861 217.064Z" fill="#C9D5E1"/>
<path d="M218.208 202.06C218.208 202.805 217.605 203.408 216.861 203.408C216.117 203.408 215.514 202.804 215.514 202.06C215.514 201.316 216.117 200.713 216.861 200.713C217.605 200.713 218.208 201.316 218.208 202.06Z" fill="white"/>
<path d="M216.861 203.918C215.837 203.918 215.003 203.084 215.003 202.06C215.003 201.035 215.837 200.202 216.861 200.202C217.886 200.202 218.719 201.035 218.719 202.06C218.719 203.084 217.886 203.918 216.861 203.918ZM216.861 201.223C216.4 201.223 216.024 201.598 216.024 202.06C216.024 202.522 216.399 202.898 216.861 202.898C217.323 202.898 217.698 202.522 217.698 202.06C217.698 201.598 217.323 201.223 216.861 201.223Z" fill="#C9D5E1"/>
<path d="M224.981 217.283H208.742V210.455C208.742 205.971 212.377 202.336 216.861 202.336C221.346 202.336 224.981 205.971 224.981 210.455V217.283Z" fill="white"/>
<path d="M225.491 217.793H208.231V210.455C208.231 205.697 212.102 201.826 216.861 201.826C221.619 201.826 225.49 205.697 225.49 210.455V217.793H225.491ZM209.252 216.772H224.471V210.455C224.471 206.259 221.057 202.846 216.862 202.846C212.666 202.846 209.253 206.26 209.253 210.455V216.772H209.252Z" fill="#C9D5E1"/>
<path d="M224.629 219.784H209.093C207.712 219.784 206.592 218.664 206.592 217.283C206.592 215.902 207.712 214.782 209.093 214.782H224.629C226.01 214.782 227.13 215.902 227.13 217.283C227.131 218.664 226.011 219.784 224.629 219.784Z" fill="white"/>
<path d="M224.629 220.295H209.093C207.432 220.295 206.081 218.943 206.081 217.283C206.081 215.622 207.432 214.271 209.093 214.271H224.629C226.29 214.271 227.641 215.622 227.641 217.283C227.641 218.944 226.29 220.295 224.629 220.295ZM209.093 215.292C207.995 215.292 207.102 216.185 207.102 217.283C207.102 218.38 207.995 219.274 209.093 219.274H224.629C225.727 219.274 226.62 218.38 226.62 217.283C226.62 216.185 225.727 215.292 224.629 215.292H209.093Z" fill="#C9D5E1"/>
<path d="M148.335 14.5304C148.335 15.221 147.775 15.781 147.085 15.781C146.394 15.781 145.834 15.221 145.834 14.5304C145.834 13.8397 146.394 13.2797 147.085 13.2797C147.775 13.2802 148.335 13.8402 148.335 14.5304Z" fill="#008080"/>
<path d="M305.1 58.1713C305.1 58.862 304.54 59.422 303.849 59.422C303.158 59.422 302.598 58.862 302.598 58.1713C302.598 57.4807 303.158 56.9207 303.849 56.9207C304.54 56.9207 305.1 57.4812 305.1 58.1713Z" fill="#008080"/>
<path d="M318.059 130.943C318.059 131.634 317.499 132.194 316.809 132.194C316.118 132.194 315.558 131.634 315.558 130.943C315.558 130.253 316.118 129.693 316.809 129.693C317.499 129.693 318.059 130.253 318.059 130.943Z" fill="#008080"/>
<path d="M41.9431 212.461C41.9431 213.152 41.3832 213.712 40.693 213.712C40.0024 213.712 39.4424 213.152 39.4424 212.461C39.4424 211.77 40.0024 211.21 40.693 211.21C41.3832 211.21 41.9431 211.77 41.9431 212.461Z" fill="#008080"/>
<path d="M38.0764 59.422C38.0764 60.1126 37.5164 60.6726 36.8258 60.6726C36.1351 60.6726 35.5751 60.1126 35.5751 59.422C35.5751 58.7313 36.1351 58.1713 36.8258 58.1713C37.5169 58.1713 38.0764 58.7313 38.0764 59.422Z" fill="#008080"/>
<path d="M79.189 19.8856C79.189 20.2307 78.9093 20.5109 78.5637 20.5109C78.2186 20.5109 77.9384 20.2312 77.9384 19.8856C77.9384 19.5406 78.2181 19.2603 78.5637 19.2603C78.9093 19.2603 79.189 19.54 79.189 19.8856Z" fill="#111111"/>
<path d="M271.533 16.9862C271.533 17.3313 271.253 17.6115 270.908 17.6115C270.562 17.6115 270.283 17.3318 270.283 16.9862C270.283 16.6406 270.562 16.3609 270.908 16.3609C271.253 16.3609 271.533 16.6406 271.533 16.9862Z" fill="#111111"/>
<path d="M1.99539 129.732C2.34074 129.732 2.62071 129.452 2.62071 129.107C2.62071 128.761 2.34074 128.481 1.99539 128.481C1.65004 128.481 1.37008 128.761 1.37008 129.107C1.37008 129.452 1.65004 129.732 1.99539 129.732Z" fill="#C9D5E1"/>
<path d="M281.175 200.121C281.521 200.121 281.801 199.841 281.801 199.496C281.801 199.151 281.521 198.871 281.175 198.871C280.83 198.871 280.55 199.151 280.55 199.496C280.55 199.841 280.83 200.121 281.175 200.121Z" fill="#C9D5E1"/>
<path d="M308.748 31.3358C308.748 31.6814 308.469 31.9611 308.123 31.9611C307.778 31.9611 307.498 31.6814 307.498 31.3358C307.498 30.9908 307.778 30.7105 308.123 30.7105C308.469 30.7105 308.748 30.9902 308.748 31.3358Z" fill="#C9D5E1"/>
<path d="M81.1446 226.156C81.1446 226.501 80.8648 226.781 80.5193 226.781C80.1742 226.781 79.894 226.501 79.894 226.156C79.894 225.81 80.1737 225.53 80.5193 225.53C80.8648 225.531 81.1446 225.811 81.1446 226.156Z" fill="#C9D5E1"/>
<path d="M134.024 229.375C134.024 229.72 133.744 230 133.399 230C133.053 230 132.773 229.72 132.773 229.375C132.773 229.03 133.053 228.749 133.399 228.749C133.744 228.749 134.024 229.029 134.024 229.375Z" fill="#111111"/>
<path d="M303.849 156.853C304.195 156.853 304.475 156.573 304.475 156.227C304.475 155.882 304.195 155.602 303.849 155.602C303.504 155.602 303.224 155.882 303.224 156.227C303.224 156.573 303.504 156.853 303.849 156.853Z" fill="#111111"/>
<path d="M107.064 36.7437C107.064 37.2322 106.668 37.6278 106.18 37.6278C105.692 37.6278 105.296 37.2322 105.296 36.7437C105.296 36.2557 105.691 35.8596 106.18 35.8596C106.668 35.8596 107.064 36.2552 107.064 36.7437Z" fill="#748BE9"/>
<path d="M286.42 114.734C286.42 115.222 286.025 115.618 285.536 115.618C285.048 115.618 284.652 115.223 284.652 114.734C284.652 114.246 285.048 113.85 285.536 113.85C286.025 113.85 286.42 114.246 286.42 114.734Z" fill="#748BE9"/>
<path d="M23.567 176.39C23.567 176.878 23.1714 177.274 22.6829 177.274C22.1949 177.274 21.7988 176.878 21.7988 176.39C21.7988 175.902 22.1944 175.506 22.6829 175.506C23.1709 175.506 23.567 175.902 23.567 176.39Z" fill="#748BE9"/>
<path d="M235.032 217.719C235.52 217.719 235.916 217.323 235.916 216.835C235.916 216.346 235.52 215.951 235.032 215.951C234.543 215.951 234.147 216.346 234.147 216.835C234.147 217.323 234.543 217.719 235.032 217.719Z" fill="#748BE9"/>
<path d="M44.3086 43.57H24.6237C22.2858 43.57 20.3838 41.668 20.3838 39.3301V37.6277C20.3838 37.4868 20.4981 37.3725 20.639 37.3725C20.7799 37.3725 20.8942 37.4868 20.8942 37.6277V39.3301C20.8942 41.3863 22.567 43.0596 24.6237 43.0596H44.3086C44.4495 43.0596 44.5639 43.1739 44.5639 43.3148C44.5639 43.4557 44.4495 43.57 44.3086 43.57Z" fill="#C9D5E1"/>
<path d="M53.8241 40.568H32.8048C32.664 40.568 32.5496 40.4537 32.5496 40.3128C32.5496 40.1719 32.664 40.0576 32.8048 40.0576H53.8241C53.965 40.0576 54.0794 40.1719 54.0794 40.3128C54.0794 40.4537 53.965 40.568 53.8241 40.568Z" fill="#C9D5E1"/>
<path d="M322.54 108.903H302.855C302.714 108.903 302.6 108.789 302.6 108.648C302.6 108.507 302.714 108.393 302.855 108.393H322.54C324.596 108.393 326.27 106.72 326.27 104.663V102.961C326.27 102.82 326.384 102.706 326.525 102.706C326.666 102.706 326.78 102.82 326.78 102.961V104.663C326.78 107.001 324.878 108.903 322.54 108.903Z" fill="#C9D5E1"/>
<path d="M314.359 105.901H293.34C293.199 105.901 293.084 105.787 293.084 105.646C293.084 105.505 293.199 105.391 293.34 105.391H314.359C314.5 105.391 314.615 105.505 314.615 105.646C314.615 105.787 314.5 105.901 314.359 105.901Z" fill="#C9D5E1"/>
<path d="M134.824 210.405H120.195C120.055 210.405 119.94 210.291 119.94 210.15C119.94 210.009 120.055 209.894 120.195 209.894H134.824C134.965 209.894 135.079 210.009 135.079 210.15C135.079 210.291 134.965 210.405 134.824 210.405Z" fill="#C9D5E1"/>
<path d="M14.8835 116.56H0.255233C0.114345 116.56 1.90735e-06 116.445 1.90735e-06 116.304C1.90735e-06 116.163 0.114345 116.049 0.255233 116.049H14.8835C15.0244 116.049 15.1388 116.163 15.1388 116.304C15.1388 116.446 15.0244 116.56 14.8835 116.56Z" fill="#C9D5E1"/>
<path d="M140.73 213.85H126.101C125.961 213.85 125.846 213.735 125.846 213.594C125.846 213.453 125.961 213.339 126.101 213.339H140.73C140.871 213.339 140.985 213.453 140.985 213.594C140.985 213.735 140.871 213.85 140.73 213.85Z" fill="#C9D5E1"/>
<path d="M285.536 41.0423H270.908C270.767 41.0423 270.653 40.9279 270.653 40.787C270.653 40.6461 270.767 40.5318 270.908 40.5318H285.536C285.677 40.5318 285.791 40.6461 285.791 40.787C285.791 40.9284 285.677 41.0423 285.536 41.0423Z" fill="#C9D5E1"/>
<path d="M291.442 44.4873H276.814C276.673 44.4873 276.559 44.373 276.559 44.2321C276.559 44.0912 276.673 43.9769 276.814 43.9769H291.442C291.583 43.9769 291.697 44.0912 291.697 44.2321C291.697 44.373 291.584 44.4873 291.442 44.4873Z" fill="#C9D5E1"/>
<path d="M179.998 174.495C221.214 174.495 254.627 141.083 254.627 99.8669C254.627 58.6507 221.214 25.2383 179.998 25.2383C138.782 25.2383 105.37 58.6507 105.37 99.8669C105.37 141.083 138.782 174.495 179.998 174.495Z" fill="#111111"/>
<path d="M177.807 172.814C219.023 172.814 252.435 139.402 252.435 98.1854C252.435 56.9692 219.023 23.5569 177.807 23.5569C136.591 23.5569 103.178 56.9692 103.178 98.1854C103.178 139.402 136.591 172.814 177.807 172.814Z" fill="#748BE9"/>
<path d="M226.685 146.64C253.68 119.644 253.68 75.8755 226.685 48.8799C199.689 21.8843 155.92 21.8843 128.925 48.8799C101.929 75.8756 101.929 119.644 128.925 146.64C155.92 173.635 199.689 173.635 226.685 146.64Z" fill="#748BE9"/>
<path d="M177.841 167.142C177.391 167.142 176.944 167.137 176.492 167.129C157.963 166.778 140.68 159.232 127.825 145.882C114.971 132.532 108.086 114.974 108.436 96.4452C108.788 77.916 116.333 60.6322 129.683 47.7783C157.243 21.2445 201.252 22.0765 227.787 49.6364C240.641 62.9865 247.527 80.5438 247.176 99.0731C246.825 117.602 239.279 134.886 225.929 147.74C212.905 160.281 195.872 167.141 177.841 167.142ZM177.794 28.9193C160.594 28.9193 143.378 35.3021 130.038 48.1458C116.786 60.9053 109.296 78.0615 108.947 96.4549C108.599 114.848 115.434 132.276 128.194 145.528C140.953 158.78 158.11 166.271 176.503 166.618C194.886 166.966 212.324 160.132 225.576 147.372C238.828 134.613 246.318 117.456 246.667 99.0634C247.015 80.6704 240.18 63.2427 227.42 49.9901C213.923 35.9728 195.868 28.9193 177.794 28.9193Z" fill="#111111"/>
<path d="M235.828 111.413C243.364 79.3651 223.493 47.2755 191.445 39.7392C159.397 32.203 127.308 52.0739 119.772 84.1222C112.235 116.17 132.106 148.26 164.154 155.796C196.202 163.333 228.291 143.462 235.828 111.413Z" fill="white"/>
<path d="M146.908 65.3606C146.897 65.3606 146.885 65.3607 146.873 65.3601C146.398 65.351 145.956 65.158 145.627 64.816L140.611 59.6067C139.932 58.9008 139.953 57.7731 140.659 57.0932C141.365 56.4138 142.493 56.4352 143.173 57.1412L148.188 62.3499C148.517 62.692 148.694 63.1417 148.685 63.6164C148.676 64.0911 148.483 64.5337 148.14 64.8635C147.806 65.1845 147.37 65.3606 146.908 65.3606ZM141.892 57.1075C141.575 57.1075 141.259 57.2249 141.013 57.4613C140.51 57.9457 140.494 58.7497 140.979 59.253L145.995 64.4622C146.23 64.7062 146.545 64.8435 146.883 64.8502C147.224 64.8629 147.542 64.7307 147.786 64.4964V64.4959C148.03 64.2611 148.168 63.9456 148.174 63.6072C148.181 63.2688 148.055 62.9482 147.82 62.7042L142.805 57.4955C142.556 57.2377 142.224 57.1075 141.892 57.1075Z" fill="#111111"/>
<path d="M214.477 135.812C214.011 135.812 213.545 135.63 213.196 135.268L208.181 130.06C207.851 129.718 207.675 129.268 207.684 128.793C207.693 128.318 207.886 127.876 208.228 127.547C208.934 126.867 210.061 126.887 210.742 127.594L215.756 132.803C216.086 133.145 216.262 133.595 216.254 134.069C216.244 134.545 216.051 134.987 215.71 135.316C215.365 135.647 214.921 135.812 214.477 135.812ZM209.461 127.56C209.145 127.56 208.828 127.677 208.582 127.914C208.338 128.148 208.201 128.464 208.195 128.802C208.188 129.141 208.313 129.461 208.548 129.705L213.564 134.914C214.048 135.417 214.851 135.432 215.355 134.947C215.599 134.713 215.737 134.397 215.743 134.059C215.75 133.721 215.624 133.4 215.389 133.156L210.374 127.947C210.126 127.69 209.794 127.56 209.461 127.56Z" fill="#111111"/>
<path d="M140.354 134.274C139.887 134.274 139.421 134.092 139.073 133.73C138.744 133.388 138.567 132.939 138.576 132.464C138.585 131.989 138.778 131.547 139.121 131.217L144.33 126.202C144.671 125.873 145.116 125.687 145.596 125.705C146.071 125.715 146.513 125.908 146.843 126.25C147.523 126.956 147.501 128.084 146.795 128.764L141.586 133.779C141.242 134.109 140.798 134.274 140.354 134.274ZM145.561 126.215C145.232 126.215 144.921 126.34 144.683 126.569L139.475 131.584C139.231 131.819 139.093 132.135 139.087 132.473C139.08 132.812 139.206 133.132 139.441 133.376C139.926 133.879 140.729 133.895 141.233 133.41L146.441 128.395C146.945 127.91 146.96 127.107 146.475 126.603C146.24 126.359 145.925 126.221 145.586 126.215C145.578 126.215 145.57 126.215 145.561 126.215Z" fill="#111111"/>
<path d="M210.807 66.7052C210.796 66.7052 210.784 66.7052 210.772 66.7052C210.298 66.696 209.855 66.503 209.526 66.161C208.846 65.4556 208.867 64.328 209.573 63.648L214.783 58.6327C215.125 58.3035 215.55 58.1264 216.05 58.1361C216.524 58.1452 216.967 58.3382 217.296 58.6802C217.975 59.3862 217.954 60.5138 217.248 61.1937L212.039 66.209C211.705 66.5296 211.269 66.7052 210.807 66.7052ZM216.015 58.6455C215.686 58.6455 215.374 58.7706 215.136 58.9998L209.927 64.0151C209.424 64.4995 209.409 65.3035 209.894 65.8068C210.129 66.0508 210.444 66.1886 210.783 66.1947C211.114 66.2003 211.442 66.0753 211.686 65.8405L216.894 60.8252C217.397 60.3407 217.413 59.5373 216.928 59.0334C216.693 58.7894 216.378 58.6516 216.039 58.6455C216.031 58.6455 216.022 58.6455 216.015 58.6455Z" fill="#111111"/>
<path d="M131.059 96.9945C131.047 96.9945 131.036 96.9945 131.025 96.994L127.342 96.9241C126.868 96.9149 126.425 96.7219 126.096 96.3799C125.767 96.0379 125.59 95.5882 125.599 95.1135C125.608 94.6387 125.802 94.1956 126.143 93.8664C126.485 93.5371 126.952 93.3672 127.41 93.3697L131.092 93.4396C132.072 93.4585 132.854 94.2707 132.836 95.2503C132.818 96.2191 132.023 96.9945 131.059 96.9945ZM127.376 93.8802C126.689 93.8802 126.122 94.433 126.109 95.1237C126.096 95.822 126.653 96.4008 127.352 96.4141L131.035 96.484C131.754 96.4999 132.312 95.9399 132.326 95.2411C132.339 94.5422 131.781 93.9634 131.083 93.9501L127.401 93.8802C127.392 93.8802 127.384 93.8802 127.376 93.8802Z" fill="#111111"/>
<path d="M229.057 99.041C229.045 99.041 229.034 99.041 229.022 99.0404L224.469 98.9542C223.994 98.9455 223.551 98.752 223.223 98.41C222.893 98.068 222.717 97.6183 222.725 97.1436C222.735 96.6688 222.927 96.2258 223.269 95.8965C223.611 95.5668 224.065 95.385 224.536 95.3998L229.089 95.4861C229.564 95.4953 230.007 95.6882 230.336 96.0302C230.666 96.3723 230.842 96.822 230.833 97.2967C230.815 98.2656 230.021 99.041 229.057 99.041ZM224.502 95.9103C224.172 95.9103 223.862 96.0354 223.624 96.2645C223.38 96.4994 223.242 96.8153 223.236 97.1533C223.229 97.4917 223.355 97.8123 223.59 98.0563C223.824 98.2998 224.14 98.4376 224.479 98.4442L229.032 98.5305C229.04 98.531 229.048 98.531 229.057 98.531C229.744 98.531 230.31 97.9782 230.323 97.288C230.329 96.9496 230.204 96.6285 229.969 96.385C229.734 96.141 229.418 96.0037 229.08 95.9971L224.526 95.9108C224.519 95.9103 224.51 95.9103 224.502 95.9103Z" fill="#111111"/>
<path d="M177.158 148.823C177.147 148.823 177.135 148.823 177.124 148.823C176.145 148.804 175.363 147.992 175.381 147.012L175.45 143.329C175.469 142.349 176.272 141.59 177.262 141.586C178.242 141.604 179.024 142.417 179.005 143.397L178.935 147.08C178.917 148.047 178.123 148.823 177.158 148.823ZM177.227 142.096C176.54 142.096 175.974 142.649 175.961 143.339L175.891 147.022C175.885 147.36 176.01 147.681 176.245 147.925C176.48 148.169 176.795 148.306 177.134 148.313C177.471 148.304 177.792 148.193 178.037 147.959C178.28 147.724 178.418 147.409 178.425 147.07L178.495 143.388C178.501 143.05 178.376 142.729 178.141 142.485C177.906 142.241 177.591 142.104 177.252 142.097C177.244 142.096 177.236 142.096 177.227 142.096Z" fill="#111111"/>
<path d="M179.189 51.6966C179.177 51.6966 179.166 51.6966 179.154 51.6966C178.68 51.6874 178.237 51.4945 177.908 51.1525C177.579 50.8105 177.402 50.3607 177.411 49.886L177.497 45.3327C177.507 44.858 177.7 44.4154 178.041 44.0856C178.384 43.7564 178.83 43.5711 179.308 43.589C180.288 43.6078 181.07 44.42 181.051 45.3996L180.965 49.9529C180.956 50.4276 180.762 50.8702 180.421 51.1999C180.087 51.5205 179.65 51.6966 179.189 51.6966ZM179.274 44.0984C178.944 44.0984 178.633 44.224 178.395 44.4527C178.151 44.6875 178.013 45.0029 178.007 45.3414L177.921 49.8947C177.914 50.2331 178.04 50.5537 178.275 50.7977C178.51 51.0417 178.825 51.1795 179.163 51.1857C179.495 51.1928 179.822 51.0662 180.067 50.8314C180.311 50.5966 180.448 50.2811 180.454 49.9427L180.541 45.3894C180.547 45.0509 180.422 44.7303 180.187 44.4863C179.952 44.2423 179.637 44.105 179.298 44.0984C179.29 44.0984 179.282 44.0984 179.274 44.0984Z" fill="#111111"/>
<path d="M177.771 96.1149C178.699 96.1308 179.464 95.3911 179.48 94.4626L179.974 65.2978C179.989 64.3698 179.25 63.6046 178.321 63.5888C177.393 63.573 176.628 64.3126 176.612 65.2412L176.119 94.4059C176.103 95.3339 176.842 96.0991 177.771 96.1149Z" fill="#111111"/>
<path d="M178.739 95.919C179.395 95.2625 179.395 94.1982 178.739 93.5417L161.505 76.3075C160.848 75.6511 159.784 75.6511 159.127 76.3075C158.471 76.964 158.471 78.0283 159.127 78.6847L176.362 95.919C177.018 96.5759 178.082 96.5759 178.739 95.919Z" fill="#111111"/>
<path d="M182.628 100.387C184.932 97.9334 184.811 94.0772 182.357 91.7737C179.904 89.4701 176.048 89.5915 173.744 92.0448C171.441 94.4981 171.562 98.3543 174.015 100.658C176.469 102.961 180.325 102.84 182.628 100.387Z" fill="#748BE9"/>
<path d="M175.751 98.6151C177.082 99.998 179.282 100.039 180.665 98.708C182.048 97.3768 182.089 95.1767 180.758 93.7938C179.426 92.411 177.226 92.3691 175.843 93.7009C174.461 95.0322 174.419 97.2323 175.751 98.6151Z" fill="#748BE9"/>
<path d="M178.256 99.9357C178.232 99.9357 178.208 99.9352 178.183 99.9352C177.187 99.9163 176.258 99.5105 175.567 98.7928C174.875 98.0751 174.506 97.1313 174.524 96.1343C174.543 95.1379 174.949 94.2089 175.666 93.5177C176.384 92.8265 177.333 92.4595 178.325 92.4753C179.321 92.4942 180.25 92.8995 180.941 93.6178C182.368 95.0996 182.323 97.4661 180.842 98.8934C180.142 99.5667 179.226 99.9357 178.256 99.9357ZM178.253 92.9843C177.416 92.9843 176.625 93.3028 176.021 93.8847C175.401 94.481 175.051 95.2834 175.034 96.1435C175.019 97.0036 175.338 97.8184 175.935 98.4381C176.531 99.0578 177.333 99.4079 178.194 99.4243C179.068 99.4396 179.868 99.1205 180.488 98.5243C181.767 97.2926 181.806 95.2497 180.574 93.9705C179.978 93.3508 179.176 93.0011 178.315 92.9843C178.295 92.9848 178.274 92.9843 178.253 92.9843Z" fill="#111111"/>
<path d="M197.513 212.092L202.754 204.139C203.415 203.135 203.138 201.786 202.134 201.125L197.093 197.803C196.329 197.299 195.95 196.369 196.174 195.482C196.412 194.54 196.594 193.589 196.721 192.635C196.842 191.728 197.539 191.004 198.436 190.82L204.349 189.604C205.526 189.362 206.284 188.212 206.042 187.034L204.125 177.705C203.883 176.528 202.732 175.77 201.555 176.011L195.641 177.227C194.745 177.412 193.819 177.021 193.35 176.236C192.857 175.409 192.314 174.608 191.723 173.836C191.168 173.109 191.15 172.105 191.653 171.341L194.975 166.299C195.637 165.296 195.359 163.946 194.355 163.285L186.402 158.044C185.398 157.383 184.049 157.66 183.388 158.664L180.066 163.705C179.562 164.469 178.632 164.849 177.745 164.625C176.803 164.386 175.852 164.204 174.898 164.077C173.991 163.956 173.267 163.259 173.082 162.363L171.866 156.449C171.625 155.272 170.474 154.514 169.297 154.756L159.967 156.674C158.79 156.916 158.032 158.066 158.274 159.243L159.49 165.157C159.674 166.053 159.284 166.979 158.498 167.448C157.672 167.942 156.87 168.484 156.098 169.075C155.372 169.631 154.367 169.649 153.604 169.145L148.562 165.823C147.559 165.162 146.209 165.439 145.548 166.443L140.307 174.396C139.646 175.4 139.923 176.75 140.927 177.411L145.968 180.733C146.732 181.236 147.112 182.166 146.888 183.053C146.65 183.996 146.467 184.946 146.34 185.9C146.219 186.807 145.522 187.531 144.626 187.716L138.712 188.932C137.535 189.174 136.777 190.324 137.019 191.501L138.937 200.831C139.179 202.008 140.329 202.766 141.506 202.524L147.42 201.308C148.316 201.124 149.242 201.515 149.711 202.301C150.204 203.127 150.747 203.929 151.338 204.7C151.894 205.427 151.911 206.431 151.408 207.195L148.086 212.236C147.425 213.24 147.702 214.59 148.706 215.251L156.659 220.492C157.663 221.153 159.013 220.875 159.674 219.872L162.996 214.831C163.499 214.067 164.429 213.687 165.316 213.911C166.259 214.15 167.209 214.332 168.163 214.459C169.07 214.58 169.794 215.277 169.979 216.173L171.195 222.087C171.437 223.264 172.587 224.022 173.764 223.78L183.094 221.862C184.271 221.62 185.029 220.47 184.787 219.293L183.571 213.379C183.387 212.482 183.778 211.556 184.563 211.087C185.39 210.594 186.191 210.052 186.963 209.461C187.689 208.905 188.694 208.887 189.458 209.391L194.499 212.713C195.502 213.374 196.852 213.096 197.513 212.092ZM164.057 202.006C156.495 197.554 154.445 187.583 159.638 180.51C164.084 174.454 172.53 172.718 179.005 176.529C186.566 180.98 188.616 190.952 183.423 198.025C178.977 204.081 170.531 205.817 164.057 202.006Z" fill="#008080"/>
<path d="M96.0419 199.11L91.5427 204.427L100.865 211.895L105.277 207.361L96.0419 199.11Z" fill="#FFA485"/>
<path d="M102.126 211.991L102.112 214.479L102.247 228.814C102.255 229.763 101.084 230.217 100.451 229.51L84.557 211.768C84.1323 211.295 84.1798 210.564 84.6617 210.149L92.8888 202.615L102.126 211.991Z" fill="#748BE9"/>
<path d="M85.9388 210.546C85.5147 210.072 85.5616 209.342 86.044 208.927L92.9112 202.638L84.6622 210.15C84.1798 210.565 84.1328 211.295 84.557 211.769L100.451 229.511C101.084 230.218 102.256 229.764 102.247 228.815L102.244 228.558C102.096 228.503 101.954 228.423 101.833 228.288L85.9388 210.546Z" fill="#111111"/>
<path d="M100.033 226.411C99.9633 226.411 99.8939 226.383 99.8433 226.328L84.9695 209.893C84.8745 209.789 84.8832 209.627 84.9873 209.533C85.092 209.439 85.2528 209.446 85.3477 209.55L100.222 225.985C100.317 226.089 100.308 226.251 100.204 226.346C100.155 226.389 100.094 226.411 100.033 226.411Z" fill="white"/>
<path d="M92.5452 211.99C92.3763 211.99 92.2063 211.97 92.0378 211.932C91.46 211.797 90.9694 211.446 90.656 210.942C90.3426 210.439 90.2441 209.843 90.3783 209.266C90.5131 208.688 90.8643 208.197 91.3676 207.884C91.8714 207.571 92.4666 207.473 93.0445 207.606C93.6223 207.741 94.1129 208.092 94.4263 208.596C94.7397 209.099 94.8382 209.694 94.704 210.272C94.5692 210.85 94.218 211.341 93.7147 211.654C93.3579 211.876 92.9551 211.99 92.5452 211.99ZM92.5381 208.058C92.2221 208.058 91.9123 208.146 91.6376 208.317C91.2497 208.559 90.9791 208.936 90.8755 209.381C90.7719 209.826 90.848 210.285 91.0889 210.672C91.3303 211.06 91.7081 211.331 92.1532 211.434C92.5988 211.538 93.0572 211.462 93.4447 211.22C93.8326 210.979 94.1032 210.601 94.2068 210.156C94.3104 209.711 94.2344 209.252 93.9929 208.865C93.7515 208.477 93.3737 208.206 92.9286 208.103C92.7989 208.073 92.6677 208.058 92.5381 208.058Z" fill="white"/>
<path d="M99.1598 214.742C99.0194 214.742 98.9051 214.628 98.9046 214.488C98.9046 214.347 99.0184 214.232 99.1593 214.232L102.112 214.224C102.252 214.224 102.368 214.338 102.368 214.479C102.368 214.619 102.254 214.734 102.113 214.735L99.1603 214.742H99.1598Z" fill="white"/>
<path d="M99.1333 216.993C98.9929 216.993 98.878 216.879 98.878 216.738C98.8775 216.598 98.9919 216.483 99.1328 216.482L102.085 216.475C102.085 216.475 102.085 216.475 102.085 216.475C102.226 216.475 102.341 216.589 102.341 216.73C102.341 216.87 102.227 216.985 102.086 216.985L99.1333 216.993Z" fill="white"/>
<path d="M99.0598 219.154C98.9194 219.154 98.805 219.04 98.8045 218.899C98.8045 218.759 98.9184 218.644 99.0593 218.643L102.011 218.636H102.012C102.152 218.636 102.267 218.749 102.267 218.89C102.268 219.031 102.153 219.146 102.012 219.146L99.0603 219.154H99.0598Z" fill="white"/>
<path d="M101.281 212.978C101.226 212.978 101.175 212.969 101.128 212.953C101.037 212.919 100.968 212.842 100.939 212.742C100.778 212.196 102.024 209.477 102.284 209.13C102.705 208.568 103.506 208.453 104.069 208.874C104.631 209.296 104.746 210.097 104.325 210.66C104.204 210.821 102.183 212.978 101.281 212.978ZM102.693 209.436C102.408 209.816 101.58 211.793 101.448 212.447C102.01 212.231 103.529 210.87 103.916 210.354C104.168 210.016 104.1 209.536 103.763 209.283C103.426 209.03 102.946 209.1 102.693 209.436Z" fill="white"/>
<path d="M104.422 214.983C104.3 214.983 104.176 214.966 104.053 214.929C103.901 214.882 100.844 213.285 101.017 212.678C101.041 212.592 101.106 212.471 101.274 212.379C101.966 212.003 104.315 212.344 104.794 212.488C105.467 212.693 105.847 213.407 105.643 214.079C105.477 214.628 104.969 214.983 104.422 214.983ZM101.59 212.788C102.025 213.202 103.734 214.298 104.201 214.44C104.604 214.562 105.032 214.333 105.155 213.93C105.278 213.527 105.05 213.099 104.646 212.976C104.038 212.792 102.095 212.609 101.59 212.788Z" fill="white"/>
<path d="M75.1492 184.089L69.4683 188.12L76.6392 197.672L82.0404 194.378L75.1492 184.089Z" fill="#FFA485"/>
<path d="M77.8368 198.08L77.2038 200.486L73.7679 214.404C73.5402 215.325 72.2932 215.474 71.8557 214.632L60.8757 193.493C60.5821 192.928 60.8098 192.233 61.38 191.951L71.2227 186.701L77.8368 198.08Z" fill="#748BE9"/>
<path d="M62.5183 192.651C62.2253 192.087 62.4525 191.392 63.0227 191.109L71.2385 186.727L61.38 191.95C60.8098 192.232 60.5821 192.928 60.8757 193.492L71.8557 214.631C72.2932 215.473 73.5407 215.325 73.7679 214.403L73.8291 214.154C73.6995 214.064 73.5811 213.951 73.4979 213.79L62.5183 192.651Z" fill="#111111"/>
<path d="M72.2855 211.533C72.1936 211.533 72.1048 211.484 72.0594 211.396L61.7424 191.778C61.6766 191.653 61.7246 191.498 61.8496 191.433C61.9747 191.367 62.1288 191.415 62.1942 191.54L72.5111 211.159C72.577 211.283 72.529 211.438 72.4039 211.503C72.3662 211.524 72.3258 211.533 72.2855 211.533Z" fill="white"/>
<path d="M69.1084 195.762C68.1646 195.762 67.2871 195.155 66.9884 194.209C66.6209 193.041 67.2718 191.792 68.4392 191.424C69.0053 191.246 69.6066 191.298 70.1324 191.572C70.6587 191.846 71.0461 192.308 71.2248 192.875C71.5928 194.042 70.942 195.291 69.7745 195.66C69.5525 195.729 69.3284 195.762 69.1084 195.762ZM69.1084 191.831C68.9359 191.831 68.7618 191.857 68.5928 191.91C67.6934 192.194 67.1926 193.156 67.4759 194.056C67.7592 194.955 68.722 195.454 69.6209 195.173C70.5203 194.889 71.0216 193.927 70.7378 193.028C70.6005 192.593 70.3019 192.236 69.8965 192.025C69.649 191.895 69.3795 191.831 69.1084 191.831Z" fill="white"/>
<path d="M77.2043 200.741C77.1834 200.741 77.162 200.739 77.141 200.733L74.2799 200.006C74.1431 199.972 74.0604 199.833 74.0956 199.696C74.1298 199.559 74.2707 199.475 74.4055 199.512L77.2666 200.239C77.4034 200.273 77.4861 200.413 77.4509 200.549C77.4223 200.664 77.3182 200.741 77.2043 200.741Z" fill="white"/>
<path d="M76.6183 202.914C76.5974 202.914 76.5759 202.911 76.555 202.906L73.6939 202.179C73.5571 202.145 73.4744 202.005 73.5096 201.869C73.5438 201.732 73.6842 201.649 73.8194 201.685L76.6806 202.412C76.8174 202.446 76.9001 202.585 76.8649 202.721C76.8363 202.837 76.7327 202.914 76.6183 202.914Z" fill="white"/>
<path d="M76.0098 204.989C75.9889 204.989 75.9675 204.986 75.9465 204.981L73.0854 204.253C72.9486 204.219 72.8659 204.08 72.9011 203.943C72.9353 203.806 73.0762 203.722 73.211 203.759L76.0721 204.487C76.2089 204.521 76.2916 204.66 76.2564 204.797C76.2278 204.912 76.1237 204.989 76.0098 204.989Z" fill="white"/>
<path d="M76.9659 198.847C76.8296 198.847 76.7153 198.821 76.6316 198.762C76.552 198.707 76.504 198.616 76.5004 198.512C76.4805 197.941 78.3636 195.619 78.702 195.348C78.968 195.134 79.3013 195.038 79.6392 195.075C79.9782 195.112 80.2819 195.278 80.4948 195.545C80.7076 195.81 80.8046 196.143 80.7679 196.482C80.7306 196.82 80.5642 197.124 80.2982 197.337C80.1507 197.454 77.9659 198.846 76.9659 198.847ZM79.4983 195.577C79.3253 195.577 79.1584 195.635 79.0216 195.745C78.651 196.042 77.358 197.751 77.067 198.351C77.6653 198.281 79.4754 197.341 79.9782 196.938C80.1374 196.81 80.2375 196.628 80.2599 196.424C80.2819 196.222 80.2242 196.022 80.0961 195.863C79.968 195.703 79.7862 195.604 79.5831 195.581C79.5545 195.579 79.5264 195.577 79.4983 195.577Z" fill="white"/>
<path d="M79.6326 201.589C79.407 201.589 79.1788 201.529 78.972 201.403C78.8363 201.321 76.2727 199.013 76.5913 198.468C76.6362 198.392 76.7291 198.29 76.9154 198.243C77.6801 198.046 79.8705 198.965 80.2972 199.225C80.898 199.59 81.0894 200.376 80.724 200.977C80.4845 201.371 80.0634 201.589 79.6326 201.589ZM77.1196 198.718C77.4376 199.227 78.8204 200.713 79.2375 200.967C79.5968 201.186 80.0685 201.071 80.288 200.711C80.507 200.351 80.3927 199.88 80.0323 199.66C79.4897 199.33 77.653 198.661 77.1196 198.718Z" fill="white"/>
<path d="M142.751 157.99L136.14 128.089L118.808 126.876L102.616 122.822C102.066 122.684 101.501 122.98 101.3 123.509L98.7075 130.349C97.0174 134.809 96.6126 139.653 97.5396 144.331L100.339 158.437C100.415 158.818 100.287 159.211 100.002 159.475L73.9905 183.501C73.6046 183.858 73.5193 184.436 73.7858 184.888L80.0563 195.548C80.3748 196.089 81.0777 196.262 81.6106 195.929L109.727 178.369L95.0996 198.356C94.6974 198.906 94.7816 199.671 95.2931 200.121L104.594 208.288C105.131 208.76 105.945 208.716 106.429 208.19L138.937 172.837C142.501 168.779 143.918 163.264 142.751 157.99Z" fill="#111111"/>
<path d="M103.719 183.738C103.645 183.738 103.572 183.706 103.522 183.644C103.432 183.535 103.448 183.374 103.557 183.285L118.771 170.815C122.096 168.219 125.431 163.052 125.071 158.579L121.158 135.444C121.134 135.306 121.228 135.173 121.367 135.15C121.508 135.124 121.638 135.22 121.661 135.359L125.577 158.516C125.954 163.189 122.516 168.54 119.09 171.214L103.881 183.68C103.834 183.719 103.776 183.738 103.719 183.738Z" fill="white"/>
<path d="M169.656 82.5576L166.807 79.601L166.043 79.0947C165.056 78.4403 163.731 78.6674 163.019 79.6133L162.051 80.8986L161.967 80.7817L161.234 78.0324C161.086 77.475 160.6 77.0727 160.025 77.0304L159.799 77.0135C159.401 76.9844 159.075 77.3254 159.123 77.7215L159.581 81.5035L159.593 84.2141C159.594 84.5888 159.699 84.9287 159.873 85.2182L159.84 85.2529L149.036 96.7291L142.958 86.9134L135.866 107.644L138.131 111.649C141.984 119.124 152.692 119.061 156.457 111.542L165.288 93.9062L170.005 87.2901C171.043 85.8338 170.896 83.845 169.656 82.5576Z" fill="#FFA485"/>
<path d="M145.792 100.546C145.73 100.546 145.669 100.524 145.62 100.479C145.515 100.384 145.508 100.223 145.603 100.119L149.142 96.2436C149.237 96.139 149.398 96.1318 149.502 96.2273C149.606 96.3222 149.614 96.4835 149.518 96.5877L145.98 100.463C145.93 100.518 145.86 100.546 145.792 100.546Z" fill="#E06A4B"/>
<path d="M175.8 90.603L161.504 76.3075C160.848 75.6511 159.783 75.6511 159.127 76.3075C158.47 76.964 158.47 78.0283 159.127 78.6847L173.176 92.7337C173.401 92.4085 173.661 92.1002 173.957 91.8154C174.509 91.285 175.135 90.8853 175.8 90.603Z" fill="#111111"/>
<path d="M168.45 79.7536C168.107 79.454 167.577 79.5352 167.34 79.9241L166.701 80.9726L164.512 84.555C164.202 85.0614 164.301 85.7163 164.745 86.1094L165.042 86.3718C165.216 86.5264 165.487 86.4943 165.62 86.3029L169.031 81.4142C169.308 80.9966 169.233 80.4387 168.856 80.1084L168.45 79.7536Z" fill="#FFA485"/>
<path d="M165.3 86.725C165.143 86.725 164.991 86.6678 164.873 86.5632L164.576 86.3008C164.038 85.8251 163.919 85.0349 164.293 84.4223L167.122 79.7914C167.274 79.5418 167.528 79.3728 167.816 79.3284C168.104 79.2845 168.397 79.3693 168.617 79.5612L169.024 79.916C169.495 80.3289 169.589 81.0334 169.243 81.5551L165.829 86.4489C165.724 86.6 165.559 86.699 165.376 86.7204C165.351 86.7235 165.325 86.725 165.3 86.725ZM167.968 79.8271C167.943 79.8271 167.919 79.8287 167.895 79.8328C167.755 79.8542 167.632 79.9359 167.559 80.0569L164.73 84.6883C164.485 85.0895 164.562 85.6066 164.914 85.9185L165.211 86.1809C165.25 86.2156 165.294 86.2156 165.316 86.2135C165.339 86.211 165.381 86.2003 165.411 86.1569L168.822 81.2682C169.024 80.9634 168.968 80.5454 168.688 80.3003L168.282 79.9456C168.194 79.8685 168.082 79.8271 167.968 79.8271Z" fill="#E06A4B"/>
<path d="M166.701 78.2259C166.117 77.7874 165.277 77.9916 164.96 78.6495L164.77 79.0431L162.699 82.9834C162.428 83.5112 162.575 84.1569 163.047 84.5158L163.362 84.7552C163.548 84.8961 163.815 84.844 163.934 84.6434L166.972 79.5143C167.217 79.0783 167.101 78.527 166.701 78.2259Z" fill="#FFA485"/>
<path d="M163.599 85.0905C163.459 85.0905 163.321 85.0451 163.208 84.9593L162.893 84.7194C162.321 84.285 162.144 83.506 162.471 82.8675L164.73 78.5392C164.914 78.1559 165.257 77.8792 165.67 77.7787C166.083 77.6776 166.515 77.7674 166.854 78.0222H166.854C167.355 78.3984 167.502 79.0936 167.195 79.6398L164.154 84.7745C164.06 84.9323 163.903 85.0436 163.723 85.0788C163.682 85.0864 163.64 85.0905 163.599 85.0905ZM166.005 78.2488C165.933 78.2488 165.862 78.2575 165.79 78.2748C165.526 78.3392 165.308 78.5163 165.189 78.7608L165 79.1544L162.925 83.1028C162.711 83.5188 162.828 84.0293 163.202 84.3136L163.517 84.553C163.559 84.5847 163.602 84.5816 163.625 84.578C163.647 84.5739 163.688 84.5596 163.714 84.5147L166.753 79.3856C166.932 79.0666 166.845 78.6536 166.547 78.4305C166.389 78.3111 166.199 78.2488 166.005 78.2488Z" fill="#E06A4B"/>
<path d="M169.829 81.3192C169.584 81.1053 169.205 81.1635 169.036 81.4407L168.21 82.7965L166.412 85.7378C166.135 86.1926 166.223 86.7807 166.622 87.1339L166.888 87.3697C167.045 87.5086 167.288 87.4795 167.408 87.308L170.472 82.917C170.721 82.5418 170.654 82.0405 170.315 81.7439L169.829 81.3192Z" fill="#FFA485"/>
<path d="M167.12 87.7128C166.973 87.7128 166.83 87.6592 166.719 87.5607L166.453 87.3253C165.96 86.8899 165.851 86.1666 166.194 85.6051L168.819 81.308C168.938 81.1115 169.138 80.9788 169.365 80.9436C169.594 80.9088 169.823 80.9757 169.996 81.1273L170.482 81.552C170.915 81.9313 171.002 82.5786 170.683 83.0584L167.617 87.454C167.518 87.5959 167.362 87.6888 167.191 87.7092C167.168 87.7113 167.144 87.7128 167.12 87.7128ZM169.485 81.4448C169.471 81.4448 169.457 81.4458 169.443 81.4479C169.363 81.4601 169.296 81.5045 169.254 81.5735L166.63 85.871C166.416 86.2207 166.484 86.6709 166.79 86.9425L167.057 87.1783C167.084 87.2023 167.115 87.2049 167.131 87.2013C167.147 87.1998 167.177 87.1916 167.198 87.161L170.262 82.77C170.436 82.5076 170.388 82.1467 170.146 81.9354L169.66 81.5112C169.611 81.4673 169.549 81.4448 169.485 81.4448Z" fill="#E06A4B"/>
<path d="M170.651 82.2493L170.607 82.3259L167.979 86.6245C167.728 87.0364 167.808 87.5699 168.169 87.8894L168.411 88.1028C168.553 88.2284 168.773 88.2023 168.881 88.0466L171.657 84.0681C171.883 83.7281 171.822 83.2738 171.515 83.0053L170.651 82.2493Z" fill="#FFA485"/>
<path d="M168.621 88.4376C168.483 88.4376 168.347 88.3871 168.242 88.2942L168 88.0808C167.545 87.6781 167.445 87.0094 167.761 86.4918L170.585 81.8537L171.683 82.8139C172.084 83.1656 172.165 83.7654 171.869 84.21L169.091 88.1936C168.997 88.3274 168.851 88.4152 168.689 88.4346C168.666 88.4361 168.644 88.4376 168.621 88.4376ZM170.712 82.6424L168.197 86.7577C168.01 87.0645 168.069 87.4601 168.338 87.6985L168.58 87.9119C168.596 87.9272 168.614 87.9287 168.629 87.9272C168.641 87.9256 168.66 87.92 168.672 87.9006L171.448 83.9221C171.599 83.6949 171.558 83.381 171.348 83.1977L170.712 82.6424Z" fill="#E06A4B"/>
<path d="M142.764 86.5561C141.437 84.4918 139.438 82.9497 137.105 82.1891L127.244 78.9758L126.875 78.8257C126.554 78.6945 126.23 78.5832 125.904 78.4816L125.904 78.4714L125.723 78.4245C125.459 78.3464 125.195 78.2769 124.931 78.2182L118.228 76.4724C113.331 75.5363 108.39 77.8665 105.997 82.2407L101.327 90.0967C100.897 90.8205 101.197 91.7577 101.967 92.0977L108.279 94.8828L99.1399 125.762C98.6866 127.294 99.7688 128.852 101.363 128.962L134.885 131.268C136.717 131.394 138.195 129.792 137.923 127.976L135.188 109.713L142.764 86.5561Z" fill="#008080"/>
<path d="M147.561 94.3478L135.727 108.064L142.764 86.5561L147.561 94.3478Z" fill="#008080"/>
<path d="M160.741 127.395L158.476 120.556C158.19 119.694 157.259 119.226 156.396 119.512L152.062 120.948C151.405 121.165 150.675 120.955 150.254 120.406C149.806 119.823 149.327 119.27 148.82 118.747C148.338 118.25 148.235 117.498 148.546 116.879L150.595 112.799C151.003 111.987 150.675 110.998 149.863 110.59L143.426 107.356C142.613 106.949 141.624 107.276 141.216 108.088L139.167 112.169C138.856 112.787 138.191 113.154 137.504 113.064C136.782 112.969 136.052 112.916 135.317 112.905C134.626 112.894 134.021 112.434 133.803 111.778L132.367 107.444C132.082 106.581 131.15 106.113 130.288 106.399L123.45 108.665C122.587 108.951 122.119 109.882 122.405 110.744L123.841 115.079C124.058 115.735 123.848 116.466 123.299 116.887C122.716 117.334 122.162 117.813 121.64 118.32C121.143 118.802 120.39 118.905 119.772 118.595L115.692 116.545C114.88 116.137 113.89 116.465 113.482 117.277L110.249 123.715C109.841 124.527 110.169 125.516 110.981 125.924L115.061 127.973C115.68 128.284 116.046 128.95 115.957 129.636C115.862 130.358 115.809 131.088 115.798 131.823C115.787 132.515 115.327 133.119 114.671 133.337L110.336 134.773C109.474 135.059 109.006 135.99 109.291 136.852L111.557 143.691C111.843 144.553 112.774 145.021 113.637 144.735L117.971 143.299C118.627 143.082 119.358 143.292 119.779 143.841C120.227 144.424 120.705 144.977 121.212 145.5C121.694 145.996 121.797 146.749 121.487 147.368L119.437 151.448C119.03 152.26 119.357 153.249 120.169 153.657L126.607 156.891C127.419 157.298 128.408 156.971 128.816 156.159L130.866 152.078C131.177 151.46 131.842 151.093 132.528 151.183C133.25 151.278 133.98 151.331 134.715 151.342C135.407 151.353 136.012 151.813 136.229 152.469L137.665 156.803C137.951 157.666 138.882 158.134 139.745 157.848L146.583 155.582C147.445 155.296 147.914 154.365 147.628 153.503L146.192 149.168C145.974 148.512 146.185 147.781 146.733 147.36C147.316 146.913 147.87 146.434 148.392 145.927C148.889 145.446 149.641 145.342 150.26 145.653L154.34 147.702C155.152 148.11 156.142 147.782 156.55 146.97L159.783 140.533C160.191 139.721 159.863 138.731 159.051 138.324L154.971 136.274C154.352 135.963 153.986 135.298 154.075 134.611C154.17 133.89 154.223 133.16 154.235 132.425C154.245 131.733 154.705 131.128 155.362 130.911L159.696 129.475C160.559 129.189 161.027 128.257 160.741 127.395ZM138.056 142.018C131.87 144.422 124.99 140.966 123.225 134.569C121.713 129.092 124.64 123.265 129.936 121.207C136.121 118.804 143.001 122.26 144.767 128.656C146.279 134.134 143.352 139.961 138.056 142.018Z" fill="#111111"/>
<path d="M159.14 127.83L156.875 120.992C156.589 120.129 155.658 119.662 154.795 119.947L150.461 121.383C149.804 121.601 149.074 121.391 148.653 120.842C148.205 120.259 147.726 119.705 147.22 119.183C146.738 118.686 146.635 117.933 146.945 117.314L148.995 113.234C149.403 112.422 149.075 111.433 148.263 111.025L141.825 107.792C141.013 107.384 140.024 107.712 139.616 108.524L137.566 112.604C137.256 113.223 136.59 113.589 135.904 113.499C135.182 113.405 134.452 113.351 133.717 113.341C133.025 113.33 132.421 112.87 132.203 112.213L130.767 107.879C130.481 107.016 129.55 106.549 128.688 106.835L121.849 109.1C120.987 109.386 120.519 110.317 120.805 111.18L122.241 115.514C122.458 116.171 122.248 116.901 121.699 117.322C121.116 117.77 120.562 118.249 120.04 118.755C119.543 119.237 118.791 119.34 118.172 119.03L114.092 116.98C113.28 116.572 112.29 116.9 111.883 117.712L108.649 124.15C108.241 124.962 108.569 125.951 109.381 126.359L113.461 128.408C114.08 128.719 114.447 129.385 114.357 130.071C114.262 130.793 114.209 131.523 114.198 132.258C114.187 132.949 113.727 133.554 113.071 133.772L108.737 135.208C107.874 135.494 107.406 136.425 107.692 137.287L109.958 144.125C110.243 144.988 111.175 145.456 112.037 145.17L116.372 143.734C117.028 143.517 117.759 143.727 118.18 144.276C118.627 144.859 119.106 145.413 119.613 145.935C120.095 146.432 120.198 147.185 119.888 147.803L117.838 151.883C117.43 152.696 117.758 153.685 118.57 154.093L125.008 157.326C125.82 157.734 126.809 157.406 127.217 156.594L129.266 152.514C129.577 151.895 130.243 151.529 130.929 151.619C131.651 151.713 132.381 151.767 133.116 151.778C133.807 151.789 134.412 152.248 134.63 152.905L136.066 157.239C136.352 158.102 137.283 158.57 138.145 158.284L144.983 156.018C145.846 155.732 146.314 154.801 146.028 153.939L144.592 149.604C144.375 148.948 144.585 148.217 145.134 147.796C145.717 147.349 146.271 146.87 146.793 146.363C147.29 145.881 148.043 145.778 148.661 146.088L152.742 148.138C153.554 148.546 154.543 148.218 154.951 147.406L158.184 140.968C158.592 140.156 158.264 139.167 157.452 138.759L153.372 136.709C152.753 136.399 152.387 135.733 152.477 135.047C152.571 134.325 152.625 133.595 152.635 132.86C152.646 132.168 153.106 131.564 153.762 131.346L158.097 129.91C158.958 129.624 159.426 128.693 159.14 127.83ZM137.476 142.964C131.29 145.367 124.41 141.912 122.645 135.515C121.133 130.038 124.06 124.211 129.356 122.153C135.541 119.75 142.421 123.206 144.187 129.602C145.699 135.08 142.772 140.907 137.476 142.964Z" fill="#C9D5E1"/>
<path d="M130.545 124.368C129.917 123.761 129.351 123.198 128.825 122.669C129.683 122.61 130.551 122.547 131.33 122.193C131.58 122.079 131.84 121.906 131.9 121.637C131.946 121.43 131.856 121.212 131.716 121.054C131.576 120.895 131.388 120.787 131.203 120.685C129.474 119.732 123.977 117.939 123.977 117.939C123.007 117.72 121.988 117.62 120.987 117.627L111.015 108.778L116.143 98.3534L101.785 92.0175L96.8423 107.858C96.0281 111.569 97.7361 115.377 101.05 117.238L115.828 125.537L115.829 125.536C116.014 125.849 116.222 126.116 116.457 126.305L122.358 131.278C123.397 132.248 125.206 131.99 124.917 130.944C125.505 131.878 126.484 132.693 127.552 131.856C128.195 131.462 128.137 130.882 127.87 130.308C128.429 131.149 129.136 131.862 130.075 131.235C131.192 130.701 130.943 129.714 130.459 128.846C130.907 129.378 131.488 129.73 132.189 129.264C134.083 127.759 131.775 125.742 130.545 124.368ZM127.009 128.919C127.087 129.026 127.168 129.154 127.254 129.294C127.162 129.158 127.076 129.032 127.009 128.919Z" fill="#FFA485"/>
<path opacity="0.36" d="M128.825 122.669L125.625 119.957C125.625 119.957 129.842 121.949 130.376 122.492L128.825 122.669Z" fill="#E06A4B"/>
<path d="M130.705 129.395C130.617 129.395 130.53 129.348 130.483 129.265C130.35 129.03 129.24 127.896 128.573 127.236C128.473 127.137 128.472 126.975 128.571 126.875C128.67 126.775 128.831 126.774 128.931 126.873C129.229 127.166 130.72 128.648 130.927 129.013C130.996 129.136 130.953 129.292 130.83 129.361C130.791 129.384 130.748 129.395 130.705 129.395Z" fill="#E06A4B"/>
<path d="M127.995 130.735C127.928 130.735 127.862 130.709 127.812 130.658L126.222 129.031C126.123 128.93 126.125 128.768 126.226 128.67C126.327 128.572 126.489 128.573 126.587 128.674L128.177 130.301C128.276 130.402 128.274 130.564 128.173 130.662C128.123 130.71 128.059 130.735 127.995 130.735Z" fill="#E06A4B"/>
<path d="M124.918 131.199C124.85 131.199 124.782 131.171 124.732 131.118L123.894 130.223C123.798 130.119 123.803 129.958 123.906 129.862C124.01 129.766 124.17 129.77 124.267 129.873L125.105 130.769C125.201 130.872 125.195 131.034 125.093 131.13C125.043 131.176 124.981 131.199 124.918 131.199Z" fill="#E06A4B"/>
<path d="M111.81 109.738C111.746 109.738 111.682 109.714 111.632 109.666L107.805 105.988C107.703 105.89 107.7 105.728 107.798 105.627C107.896 105.526 108.057 105.522 108.159 105.62L111.986 109.298C112.088 109.396 112.091 109.557 111.993 109.659C111.944 109.712 111.877 109.738 111.81 109.738Z" fill="#E06A4B"/>
<path d="M130.327 49.4072L125.757 48.9983C124.056 48.8462 122.419 49.3332 120.997 50.2867C120.478 46.9412 117.738 44.2551 114.214 43.958C110.081 43.6094 106.448 46.6778 106.1 50.8105C105.751 54.9437 108.819 58.5766 112.952 58.9248C113.564 58.9763 114.162 58.9447 114.743 58.8543L114.449 59.327C111.468 64.1106 113.925 71.0253 119.936 74.7705L123.4 76.9293L127.015 71.1279C128.854 68.1764 128.621 64.4148 126.763 61.0856C128.404 59.8906 129.73 58.0601 130.485 55.8472C130.576 56.0177 130.67 56.1887 130.78 56.3587C132.325 58.74 137.729 60.2602 138.634 63.6649C138.634 63.6649 140.02 60.8992 140.167 57.592C140.404 52.3031 135.492 48.2602 130.327 49.4072Z" fill="#111111"/>
<path d="M139.705 67.4184L136.725 56.2142C136.044 53.6522 133.775 52.3526 131.203 51.9304L131.121 52.8406C130.603 58.6297 126.398 62.984 121.729 62.5659L120.835 62.4858L120.176 62.5143C118.183 62.6011 116.623 64.303 116.709 66.2964L116.713 66.3791C116.8 68.3724 118.502 69.9324 120.495 69.8456L122.231 69.77L120.609 80.9624C120.253 84.3126 123.388 86.5765 126.838 86.943L126.981 86.9583C130.43 87.3248 133.544 84.8838 133.9 81.5342L134.353 77.2749L134.493 77.2376C138.528 76.1641 140.862 71.768 139.705 67.4184Z" fill="#FFA485"/>
<path d="M119.967 67.4377C119.884 67.4377 119.803 67.3979 119.754 67.3239C119.676 67.2065 119.708 67.0478 119.825 66.9702L120.754 66.353L119.677 65.1759C119.582 65.0718 119.59 64.9105 119.694 64.8155C119.797 64.7211 119.959 64.7277 120.055 64.8318L121.332 66.2285C121.382 66.2836 121.406 66.3576 121.397 66.4316C121.388 66.5056 121.347 66.572 121.285 66.6134L120.108 67.3954C120.064 67.424 120.016 67.4377 119.967 67.4377Z" fill="#E06A4B"/>
<path d="M119.697 68.5169C119.68 68.8354 119.925 69.1075 120.244 69.1244C120.563 69.1412 120.836 68.8962 120.852 68.5776C120.869 68.2591 120.624 67.987 120.305 67.9702C119.986 67.9539 119.714 68.1984 119.697 68.5169Z" fill="white"/>
<path d="M134.346 77.3346C134.346 77.3346 127.733 77.8997 126.4 75.3938C126.4 75.3938 126.292 79.6031 133.948 81.0798L134.346 77.3346Z" fill="#E06A4B"/>
<path d="M137.908 63.7635C138.006 64.1392 137.78 64.523 137.405 64.62C137.029 64.7175 136.646 64.4919 136.548 64.1162C136.451 63.7405 136.676 63.3571 137.052 63.2596C137.428 63.1621 137.811 63.3878 137.908 63.7635Z" fill="#111111"/>
<path d="M132.747 64.3924C132.746 64.8171 132.402 65.1611 131.977 65.1606C131.552 65.1606 131.208 64.8156 131.209 64.3914C131.209 63.9667 131.553 63.6226 131.978 63.6231C132.403 63.6231 132.747 63.9677 132.747 64.3924Z" fill="#111111"/>
<path d="M134.86 73.7813C134.829 73.791 134.795 73.79 134.762 73.7772C134.729 73.764 133.942 73.4551 133.392 74.0856C133.339 74.1463 133.247 74.1524 133.186 74.0993C133.125 74.0463 133.119 73.9539 133.172 73.8931C133.862 73.1029 134.863 73.5026 134.873 73.5067C134.948 73.5373 134.983 73.6226 134.952 73.6971C134.935 73.739 134.9 73.7686 134.86 73.7813Z" fill="#E06A4B"/>
<path d="M128.527 61.8446C128.806 61.8947 129.128 61.7859 129.444 61.6987C129.761 61.6037 130.082 61.5164 130.363 61.4506C130.645 61.3842 130.971 61.3194 131.297 61.2627C131.62 61.1999 131.957 61.1535 132.182 60.985C132.4 60.8258 132.429 60.5098 132.058 60.2168C131.707 59.9294 130.914 59.7135 129.981 59.9304C129.05 60.1514 128.448 60.6956 128.272 61.1065C128.082 61.5322 128.258 61.7997 128.527 61.8446Z" fill="#111111"/>
<path d="M138.442 60.8442C138.255 60.9146 138.025 60.8661 137.801 60.8339C137.576 60.7962 137.349 60.7645 137.15 60.7451C136.952 60.7252 136.723 60.712 136.495 60.7048C136.269 60.6926 136.034 60.6946 135.865 60.5889C135.703 60.4899 135.655 60.2474 135.885 59.9774C136.101 59.714 136.626 59.4562 137.283 59.52C137.94 59.5869 138.398 59.9422 138.554 60.2423C138.72 60.5506 138.622 60.7788 138.442 60.8442Z" fill="#111111"/>
<path d="M131.246 65.255C131.246 65.255 131.895 64.7119 132.603 65.2489L131.246 65.255Z" fill="#FFA485"/>
<path d="M131.247 65.5092C131.174 65.5092 131.101 65.4776 131.051 65.4168C130.962 65.3086 130.975 65.1494 131.083 65.059C131.361 64.8257 132.069 64.523 132.757 65.0452C132.87 65.1305 132.892 65.2908 132.806 65.4031C132.721 65.5149 132.561 65.5373 132.449 65.4521C131.926 65.0549 131.461 65.4097 131.409 65.451C131.362 65.4904 131.304 65.5092 131.247 65.5092Z" fill="#E06A4B"/>
<path d="M136.672 64.7507C136.672 64.7507 137.32 64.2076 138.028 64.7446L136.672 64.7507Z" fill="#FFA485"/>
<path d="M136.672 65.0049C136.599 65.0049 136.526 64.9738 136.475 64.9125C136.386 64.8043 136.4 64.645 136.507 64.5547C136.785 64.3214 137.493 64.0187 138.182 64.5409C138.294 64.6261 138.316 64.7859 138.231 64.8987C138.145 65.01 137.985 65.033 137.873 64.9477C137.35 64.5511 136.885 64.9054 136.833 64.9472C136.787 64.986 136.729 65.0049 136.672 65.0049Z" fill="#E06A4B"/>
<path d="M130.893 67.6093C130.893 67.6093 132.288 68.5097 133.754 68.962C135.221 69.4142 133.852 71.4198 131.606 70.8405C129.36 70.2606 129.702 67.1667 130.893 67.6093Z" fill="white"/>
<path d="M134.715 62.7017L134.778 64.3342C134.802 64.9569 135.327 65.4424 135.95 65.4184C136.261 65.4062 136.524 65.6491 136.536 65.9605C136.575 66.9677 135.79 67.816 134.783 67.8548L134.121 67.8804" fill="#FFA485"/>
<path d="M134.121 68.1356C133.985 68.1356 133.871 68.0279 133.866 67.8906C133.861 67.7497 133.97 67.6313 134.111 67.6257L134.773 67.6001C135.637 67.567 136.314 66.8355 136.281 65.9707C136.274 65.8008 136.131 65.6803 135.96 65.6742C135.588 65.6879 135.237 65.5583 134.966 65.3071C134.695 65.056 134.537 64.7145 134.523 64.3449L134.46 62.7125C134.455 62.5716 134.564 62.4531 134.705 62.4475C134.848 62.4368 134.965 62.5517 134.97 62.6926L135.033 64.325C135.052 64.8064 135.454 65.1918 135.94 65.1642C136.399 65.1412 136.773 65.5001 136.791 65.9513C136.835 67.0978 135.939 68.0667 134.793 68.1106L134.131 68.1361C134.128 68.1356 134.124 68.1356 134.121 68.1356Z" fill="#E06A4B"/>
</svg>
