<svg width="45" height="36" viewBox="0 0 45 36" fill="none" xmlns="http://www.w3.org/2000/svg">
<path d="M44.0661 18.381C44.0661 7.98778 35.3913 0.804238 25.8862 0.807374H17.7066C8.08839 0.803924 0.171692 7.98998 0.171692 18.381C0.171692 27.8872 8.0886 35.6974 17.7066 35.6514H25.8862C35.3904 35.6971 44.0661 27.8846 44.0661 18.381Z" fill="#0079BE"/>
<path d="M17.7579 2.27942C8.96912 2.28214 1.84757 9.42052 1.84444 18.2305C1.84663 27.0391 8.96849 34.1764 17.7579 34.1796C26.5487 34.1769 33.6724 27.0392 33.6735 18.2305C33.6723 9.42031 26.5489 2.28256 17.7579 2.27942Z" fill="white"/>
<path d="M7.69986 18.1874C7.70822 13.8823 10.3915 10.2112 14.1752 8.75244V27.6203C10.3915 26.1623 7.70812 22.4931 7.69986 18.1875V18.1874ZM21.3949 27.625V8.75296C25.1802 10.2083 27.8677 13.8815 27.8745 18.1886C27.8676 22.497 25.1802 26.1675 21.3949 27.6255V27.625Z" fill="#0079BE"/>
</svg>
