<svg width="216" height="125" viewBox="0 0 216 125" fill="none" xmlns="http://www.w3.org/2000/svg">
<path d="M45.6026 39.6891L43.6161 30.8506L50.1379 29.5963L51.2548 34.7775L48.3123 39.1681L45.6026 39.6891ZM44.3086 31.3042L46.0423 39.0178L47.9674 38.6475L50.6398 34.6598L49.6933 30.2685L44.3086 31.3042Z" fill="#2A0055"/>
<path d="M49.6523 36.9387C49.5309 36.9387 49.4179 36.8613 49.3783 36.7395L48.9284 35.3539C48.8793 35.2026 48.962 35.0401 49.1135 34.9909C49.2645 34.9417 49.4273 35.0245 49.4765 35.176L49.9264 36.5616C49.9755 36.7129 49.8926 36.8754 49.7413 36.9246C49.7118 36.9342 49.6817 36.9387 49.6523 36.9387Z" fill="#2A0055"/>
<path d="M47.9624 39.1445C47.8259 39.1445 47.7047 39.0471 47.6793 38.9081L46.5725 32.8537L48.1281 30.0865C48.2061 29.9479 48.3819 29.8986 48.5204 29.9766C48.6592 30.0546 48.7084 30.2302 48.6304 30.3689L47.1766 32.9548L48.2461 38.8045C48.2747 38.9611 48.171 39.1112 48.0145 39.1398C47.997 39.1429 47.9796 39.1445 47.9624 39.1445Z" fill="#2A0055"/>
<path d="M60.5673 7.98318L55.9517 5.19084L55.2944 2.53806L64.2524 0.459106L65.8257 6.80961L60.5673 7.98318ZM56.4537 4.82124L60.6675 7.37041L65.1246 6.37582L63.8297 1.14898L55.9945 2.96736L56.4537 4.82124Z" fill="#2A0055"/>
<path d="M57.6491 6.16912C57.5441 6.16912 57.4428 6.1115 57.392 6.01146C57.32 5.86959 57.3766 5.69614 57.5184 5.62411L59.0977 4.82176C59.2397 4.74984 59.4129 4.80632 59.485 4.94819C59.557 5.09006 59.5005 5.2635 59.3586 5.33553L57.7793 6.13789C57.7376 6.15898 57.693 6.16912 57.6491 6.16912Z" fill="#2A0055"/>
<path d="M58.7967 6.9071C58.6824 6.9071 58.5745 6.83875 58.5292 6.72639C58.4698 6.57876 58.5414 6.41096 58.689 6.35149L60.3804 5.67164C60.5283 5.61252 60.6958 5.68397 60.7552 5.83149C60.8145 5.97912 60.743 6.14692 60.5953 6.20639L58.904 6.88624C58.8688 6.90041 58.8324 6.9071 58.7967 6.9071Z" fill="#2A0055"/>
<path d="M65.1049 5.38689C65.0359 5.38689 64.9666 5.36223 64.9114 5.31221L62.4943 3.11881L56.026 4.35704C55.8703 4.38712 55.7188 4.28466 55.6888 4.12827C55.659 3.97188 55.7613 3.82102 55.9176 3.79105L62.6685 2.49878L65.2987 4.88545C65.4165 4.9924 65.4253 5.17461 65.3184 5.2925C65.2616 5.35497 65.1833 5.38689 65.1049 5.38689Z" fill="#2A0055"/>
<path d="M78.8298 31.6221L65.7705 25.7298C65.7145 25.7046 65.6593 25.6777 65.6048 25.6495C64.5763 25.1145 63.8122 24.1688 63.5084 23.0548L59.7857 9.39881L66.1543 7.66272L69.5731 20.2038L81.5446 25.6052L78.8298 31.6221Z" fill="#2A0055"/>
<path d="M52.2406 35.4832L51.3285 28.9455L66.5929 26.8158L76.2528 20.7016C78.1176 19.5212 80.4735 19.2855 82.5547 20.0709L83.8294 20.5519L81.4988 26.7278L80.2242 26.2469C80.0735 26.1899 79.9045 26.2024 79.783 26.2792L69.8749 32.5506C69.8548 32.5634 69.8344 32.5759 69.814 32.5883C69.1793 32.971 68.4838 33.2171 67.7468 33.3199L52.2406 35.4832Z" fill="#2A0055"/>
<path d="M66.8936 26.5284C66.7945 26.5284 66.6979 26.4772 66.6444 26.3852C66.5643 26.2477 66.6108 26.0714 66.7483 25.9913L73.5708 22.0145C73.708 21.9341 73.8847 21.9807 73.9648 22.1183C74.0449 22.2558 73.9984 22.4321 73.8609 22.5122L67.0384 26.4891C66.9928 26.5157 66.9428 26.5284 66.8936 26.5284Z" fill="white"/>
<path d="M54.781 35.2719C54.6411 35.2719 54.5184 35.1698 54.4966 35.0273L53.5306 28.708C53.5065 28.5507 53.6146 28.4037 53.7718 28.3797C53.9291 28.3556 54.076 28.4636 54.1001 28.6209L55.0661 34.9401C55.0902 35.0974 54.9821 35.2444 54.8249 35.2684C54.8102 35.2707 54.7954 35.2719 54.781 35.2719Z" fill="#008080"/>
<path d="M60.5089 11.9191C60.3785 11.9191 60.2602 11.8299 60.2288 11.6975C60.1921 11.5426 60.2878 11.3874 60.4426 11.3506L66.7719 9.84929C66.9266 9.81252 67.0819 9.9083 67.1188 10.0631C67.1554 10.218 67.0598 10.3732 66.905 10.41L60.5757 11.9113C60.5534 11.9166 60.531 11.9191 60.5089 11.9191Z" fill="#008080"/>
<path d="M93.4202 31.5917L87.3497 37.8575C86.2148 38.6566 86.2843 40.3337 87.4831 41.0722L95.3387 48.3742L97.7612 47.0767L92.8241 39.605L96.383 35.1339L93.4202 31.5917Z" fill="#FFBFAA"/>
<path d="M98.7203 26.8945L97.5892 23.2526L83.5196 20.1936L79.053 31.7782L89.1051 33.8996L87.9304 35.2286L93.9569 39.0565L97.1187 34.9852C98.0002 33.925 98.6134 32.6755 98.91 31.3359C99.2347 29.869 99.1695 28.3404 98.7203 26.8945Z" fill="white"/>
<path d="M94.0236 39.4403L87.4907 35.2909L88.5616 34.0795L78.6625 31.9904L83.3396 19.8597L97.8145 23.0069L98.9956 26.8092C99.4584 28.2992 99.526 29.8862 99.1914 31.3984C98.8864 32.7756 98.2463 34.0796 97.3402 35.1695L94.0236 39.4403ZM88.3698 35.1665L93.8901 38.6728L96.8911 34.8087C97.7448 33.7816 98.3435 32.5618 98.6287 31.2738C98.9418 29.8593 98.8785 28.3746 98.4452 26.9801L97.364 23.4987L83.6998 20.5277L79.4437 31.5663L89.6486 33.7199L88.3698 35.1665Z" fill="#008080"/>
<path d="M99.1495 32.8693C97.4347 32.8888 96.1457 31.3911 96.4305 29.7103L96.4992 29.3048L101.173 26.5491L103.486 29.6593L99.1495 32.8693Z" fill="#FFBFAA"/>
<path d="M98.1836 33.1191C97.3544 32.7524 96.7379 32.0507 96.4921 31.1938C96.2483 30.3441 96.3964 29.4321 96.8982 28.6916L97.1288 28.3511L97.606 28.6744L97.3752 29.0149C96.9695 29.6136 96.8494 30.3498 97.046 31.035C97.2445 31.727 97.7441 32.2946 98.4166 32.5922L98.1836 33.1191Z" fill="#008080"/>
<path d="M100.92 27.1216L98.2306 29.1124L100.753 32.5052C100.976 32.8045 101.395 32.8745 101.715 32.675C101.733 32.6646 101.75 32.6531 101.766 32.6409L104.513 30.6073C105.258 30.0557 105.426 29.0223 104.888 28.2989L104.355 27.5816C103.56 26.5121 102.022 26.3062 100.92 27.1216Z" fill="#FFBFAA"/>
<path d="M99.9639 27.8211C99.9639 27.8211 99.4701 25.7122 100.951 26.1782C100.951 26.1782 100.646 24.4934 101.936 25.2625C101.936 25.2625 102.694 23.505 103.598 24.9004C103.598 24.9004 105.857 24.5833 105.474 26.5848C105.474 26.5848 107.493 25.8299 107.124 27.8167C107.124 27.8167 107.82 29.6057 106.428 30.4319C106.428 30.4319 105.248 32.1786 104.703 30.8244C104.703 30.8244 104.367 32.1341 103.97 31.0178C103.97 31.0178 104.326 30.2876 104.835 30.1803C104.835 30.1803 103.633 29.459 103.534 28.4685C103.534 28.4685 102.903 28.5753 102.574 27.6723C102.574 27.6723 101.688 28.1558 101.443 27.5058C101.443 27.5055 99.9531 29.1167 99.9639 27.8211Z" fill="#2A0055"/>
<path d="M103.708 31.1888L102.97 32.462C102.893 32.5939 102.707 32.6078 102.618 32.4881L102.266 32.0156L103.708 31.1888Z" fill="#FFBFAA"/>
<path d="M79.0531 31.7782L83.0085 20.0478C83.6154 18.8276 85.0696 18.2577 86.39 18.7226L93.884 21.3611L91.9149 26.8714L86.9022 24.5878L81.6037 33.113L79.0531 31.7782Z" fill="#FFBFAA"/>
<path d="M97.5893 23.2526L91.3144 19.8505L89.7889 26.1473L92.8178 27.179L97.5893 23.2526Z" fill="white"/>
<path d="M92.7248 27.4516L89.4468 26.3351L91.1224 19.4186L97.7265 22.9993L97.452 23.5058L91.5061 20.2821L90.1307 25.9594L92.9107 26.9061L92.7248 27.4516Z" fill="#008080"/>
<path d="M98.4305 47.5489C98.1957 47.5489 97.9752 47.4047 97.8891 47.1716C97.7787 46.8727 97.9316 46.5408 98.2305 46.4303L98.9432 46.1672L100.178 46.2191C100.497 46.2325 100.744 46.5015 100.731 46.8199C100.717 47.1383 100.45 47.3867 100.13 47.3723L99.126 47.3302L98.6303 47.5132C98.5644 47.5374 98.4969 47.5489 98.4305 47.5489Z" fill="#FFBFAA"/>
<path d="M99.152 49.4768C99.0332 49.4768 98.9155 49.4402 98.8162 49.3691L97.587 48.4897C97.3276 48.3043 97.268 47.9438 97.4534 47.6846C97.6388 47.4254 97.9992 47.3656 98.2585 47.551L99.238 48.2518L100.309 47.8526C100.608 47.7414 100.94 47.8932 101.051 48.1918C101.163 48.4904 101.011 48.8229 100.712 48.9341L99.3534 49.4405C99.2881 49.4648 99.2199 49.4768 99.152 49.4768Z" fill="#FFBFAA"/>
<path d="M98.5663 50.1814C98.4582 50.1814 98.3507 50.151 98.2569 50.0915L97.1262 49.3737C96.8571 49.2029 96.7775 48.8462 96.9483 48.5772C97.119 48.3081 97.4758 48.2285 97.7448 48.3993L98.6209 48.9555L99.6424 48.5269C99.9362 48.4037 100.275 48.5417 100.398 48.8357C100.521 49.1296 100.383 49.4679 100.089 49.5912L98.7894 50.1364C98.7177 50.1665 98.6417 50.1814 98.5663 50.1814Z" fill="#FFBFAA"/>
<path d="M98.3187 50.9549C98.1666 50.9549 98.0207 50.8949 97.9125 50.7879L96.6682 49.5554C96.4417 49.3311 96.44 48.9657 96.6643 48.7392C96.8885 48.5128 97.2539 48.511 97.4805 48.7353L98.3062 49.5531L98.6689 49.1713C98.8884 48.9403 99.2537 48.931 99.4848 49.1504C99.7159 49.37 99.7253 49.7352 99.5057 49.9664L98.7371 50.7754C98.6303 50.8879 98.4827 50.9526 98.3275 50.955C98.3244 50.9549 98.3215 50.9549 98.3187 50.9549Z" fill="#FFBFAA"/>
<path d="M99.9241 48.8946C99.7957 48.8946 99.6679 48.8517 99.5631 48.7677L98.4385 47.8664C98.1898 47.6671 98.1498 47.3038 98.3492 47.0551C98.5308 46.8287 98.8482 46.7753 99.0912 46.918L99.0641 46.7647C99.0088 46.4508 99.2183 46.1515 99.5322 46.096C99.8469 46.0406 100.145 46.2503 100.201 46.5641L100.492 48.2171C100.534 48.4537 100.425 48.6914 100.218 48.8138C100.127 48.868 100.025 48.8946 99.9241 48.8946Z" fill="#FFBFAA"/>
<path d="M100.34 32.0687C100.226 32.0687 100.118 32.0008 100.073 31.8887L100.009 31.7313C99.8056 31.2301 99.7048 30.6998 99.7089 30.1552C99.7102 29.9968 99.8389 29.8693 99.997 29.8693C99.9979 29.8693 99.9985 29.8693 99.9993 29.8693C100.158 29.8705 100.286 30.0005 100.285 30.1597C100.281 30.6283 100.368 31.0842 100.543 31.5148L100.607 31.6722C100.666 31.8197 100.595 31.9876 100.448 32.0474C100.413 32.0619 100.376 32.0687 100.34 32.0687Z" fill="#2A0055"/>
<path d="M86.9019 24.8758C86.7533 24.8758 86.6273 24.7617 86.615 24.6111L86.4878 23.0444C86.4749 22.8858 86.593 22.7467 86.7516 22.7339C86.9107 22.7206 87.0493 22.8393 87.0621 22.9977L87.1893 24.5644C87.2022 24.7231 87.0841 24.8621 86.9255 24.8749C86.9176 24.8755 86.9096 24.8758 86.9019 24.8758Z" fill="#2A0055"/>
<path d="M93.8958 46.9959L97.6174 50.492L98.8548 46.1508L96.7216 45.6737L93.8958 46.9959Z" fill="#FFBFAA"/>
<path d="M82.2754 31.6316C82.2754 31.6316 82.482 33.3896 82.2617 33.3899L82.548 33.2666C82.548 33.2666 81.69 36.2417 81.5222 36.7462L81.285 37.4594C81.2073 37.6929 80.9577 37.8263 80.712 37.7656C80.4587 37.703 80.2988 37.4567 80.3502 37.2083L80.5211 36.3838L80.9253 34.7925L80.6244 35.753C80.5143 36.1043 80.3471 36.4353 80.1289 36.7334L79.7475 37.2548C79.5836 37.4789 79.2736 37.5481 79.0215 37.4171C78.836 37.3206 78.7183 37.1331 78.7152 36.9291L78.7135 36.8188L78.6619 36.8414C78.4864 36.9183 78.2805 36.8931 78.1272 36.7759C77.9048 36.6058 77.8587 36.2958 78.0232 36.0761L78.4085 35.5615C78.604 35.3004 78.7256 34.9932 78.7614 34.6702L78.8557 33.82L78.0025 35.5198C77.8369 35.8496 77.3187 35.7869 77.2542 35.422C77.252 35.4097 77.2504 35.3971 77.2492 35.3842C77.2422 35.304 77.2583 35.2251 77.2944 35.1555C77.3811 34.9885 77.4688 34.8219 77.5334 34.6455L78.1995 32.8272C78.4243 32.0033 78.79 31.224 79.2812 30.5219L79.3163 30.4717L79.7476 29.5007L81.9908 29.3271L82.2754 31.6316Z" fill="#FFBFAA"/>
<path d="M78.8248 37.1013C78.7698 37.1013 78.7143 37.0855 78.665 37.0528C78.5327 36.9644 78.497 36.7855 78.5854 36.6532L78.6596 36.5421C79.1221 35.8491 79.4418 35.0853 79.6098 34.272C79.6421 34.1162 79.7941 34.0159 79.9503 34.0482C80.1061 34.0803 80.2064 34.2328 80.1741 34.3886C79.991 35.2749 79.6427 36.1072 79.1388 36.862L79.0646 36.9731C79.0092 37.0562 78.9179 37.1013 78.8248 37.1013Z" fill="#2A0055"/>
<path d="M80.8687 32.4202C80.8883 31.8417 81.385 31.3947 81.9783 31.4218C82.5715 31.4489 83.0365 31.94 83.0169 32.5184C82.9973 33.0969 82.5005 33.5439 81.9073 33.5168C81.314 33.4897 80.849 32.9988 80.8687 32.4202Z" fill="#FFBFAA"/>
<path d="M83.2942 34.7054C83.0188 34.7054 82.775 34.5075 82.7263 34.2269L82.5245 33.0641L81.6186 32.3974C81.362 32.2085 81.307 31.8472 81.496 31.5906C81.6849 31.3338 82.0461 31.2788 82.3028 31.468L83.3954 32.2722C83.5152 32.3604 83.5964 32.4916 83.6218 32.6382L83.8633 34.0295C83.9178 34.3435 83.7074 34.6422 83.3934 34.6967C83.3602 34.7025 83.3269 34.7054 83.2942 34.7054Z" fill="#FFBFAA"/>
<path d="M100.543 28.8858C100.226 28.4592 100.325 27.8499 100.764 27.5247L101.047 27.3153C101.486 26.99 102.1 27.0722 102.417 27.4987C102.734 27.9253 102.635 28.5346 102.196 28.8598L101.913 29.0692C101.473 29.3943 100.86 29.3123 100.543 28.8858Z" fill="#FFBFAA"/>
<path d="M101.451 28.8924C101.442 28.8924 101.432 28.8919 101.422 28.8909C101.263 28.8746 101.148 28.7332 101.164 28.5749L101.251 27.7297C101.267 27.5715 101.409 27.456 101.567 27.4725C101.725 27.4888 101.841 27.6302 101.824 27.7885L101.738 28.6336C101.722 28.782 101.597 28.8924 101.451 28.8924Z" fill="#2A0055"/>
<path d="M72.6425 28.7352C71.251 28.7353 69.9405 28.1014 69.2085 26.9417C69.1235 26.8071 69.1638 26.6293 69.2983 26.5444C69.4329 26.4593 69.6107 26.4996 69.6956 26.6341C70.6589 28.1598 72.8114 28.6132 74.5962 27.6666L75.8675 26.9923L73.8648 23.8204C73.7799 23.6859 73.8201 23.5079 73.9546 23.423C74.0891 23.3379 74.2671 23.3783 74.352 23.5128L76.6865 27.2103L74.8661 28.1758C74.1526 28.5542 73.386 28.7352 72.6425 28.7352Z" fill="#008080"/>
<path d="M80.6303 24.7075C80.5804 24.7075 80.5298 24.6945 80.4839 24.6672C79.7941 24.2586 79.396 23.7249 79.3004 23.0809C79.1115 21.8088 80.2022 20.6003 80.2487 20.5495C80.3563 20.4322 80.5385 20.4241 80.6558 20.5315C80.7731 20.6389 80.7812 20.8209 80.674 20.9383C80.6645 20.9488 79.7208 21.9987 79.8706 22.9982C79.9401 23.4613 80.2452 23.8561 80.7775 24.1714C80.9144 24.2525 80.9597 24.4292 80.8786 24.5661C80.8246 24.657 80.7288 24.7075 80.6303 24.7075Z" fill="white"/>
<path d="M89.2562 33.6187L89.1402 34.1831L90.5846 34.4798L90.7005 33.9154L89.2562 33.6187Z" fill="#008080"/>
<path d="M214.666 37.3637L214.364 37.5333L213.816 37.8383C213.798 37.8373 212.279 38.6751 212.279 38.6751L155.959 67.4002L140.236 50.1113L150.181 48.3496L212.951 37.4846C212.979 37.4768 214.295 37.2451 214.295 37.2451L214.666 37.3637Z" fill="#2A0055"/>
<path d="M215.087 37.5586L215.058 37.6234L150.24 48.5492L150.413 37.2406L215.087 37.5586Z" fill="#2A0055"/>
<path d="M213.816 37.8382L215.058 37.6216L215.027 37.7026L212.279 38.6751L149.111 59.87L133.388 65.4476L140.216 49.9589L150.196 48.4238L213.798 37.8372L213.816 37.8382Z" fill="#008080"/>
<path d="M214.765 37.2986L214.734 37.3617L214.01 37.3364L212.757 37.5187C212.729 37.5266 150.408 37.2703 150.408 37.2703L159.494 26.3741L213.94 37.0482L214.312 37.1668L214.765 37.2986Z" fill="#008080"/>
<path d="M128.075 63.1024L131.976 53.6399L132.509 53.8596L129.067 62.2071L212.739 37.3975L136.885 43.245L133.772 50.797L133.239 50.5773L136.488 42.6976L215.648 36.5953L215.289 37.2425L215.176 37.276L128.075 63.1024Z" fill="#008080"/>
<path d="M213.092 36.2244L163.262 18.1689L149.674 28.6752L149.322 28.2193L163.16 17.5193L163.309 17.5732L213.289 35.6825L213.092 36.2244Z" fill="#008080"/>
<path d="M215.323 37.1622L215.159 37.1529L143.074 33.05L147.084 29.9493L147.437 30.4051L144.647 32.5624L213.732 36.4945L213.079 36.2191L213.303 35.688L215.646 36.6766L215.323 37.1622Z" fill="#008080"/>
<path d="M130.574 41.6433C130.191 41.6406 129.808 41.6394 129.424 41.6405L129.423 41.0642C129.808 41.0632 130.193 41.0643 130.578 41.0671L130.574 41.6433Z" fill="#AA5FFF"/>
<path d="M30.751 118.759L30.7483 118.183C31.514 118.179 32.2775 118.161 33.0175 118.13L33.0419 118.706C32.2948 118.737 31.524 118.755 30.751 118.759ZM28.4612 118.73C27.7126 118.707 26.9432 118.672 26.1742 118.625L26.2096 118.05C26.9725 118.097 27.7359 118.132 28.4785 118.154L28.4612 118.73ZM35.33 118.562L35.2818 117.988C36.0425 117.924 36.8012 117.844 37.5367 117.749L37.6105 118.32C36.8664 118.416 36.0992 118.498 35.33 118.562ZM23.8918 118.451C23.1463 118.383 22.3805 118.304 21.6157 118.214L21.683 117.641C22.4426 117.731 23.2033 117.81 23.9438 117.877L23.8918 118.451ZM39.8784 117.972L39.7769 117.405C40.5273 117.271 41.2736 117.117 41.9954 116.948L42.1267 117.509C41.3952 117.68 40.6387 117.836 39.8784 117.972ZM19.347 117.919C18.6078 117.814 17.8472 117.697 17.086 117.571L17.1798 117.002C17.9367 117.127 18.6931 117.244 19.428 117.348L19.347 117.919ZM14.8331 117.175C14.0976 117.038 13.3425 116.89 12.5888 116.735L12.7048 116.17C13.4551 116.325 14.2066 116.472 14.9387 116.608L14.8331 117.175ZM44.3471 116.923L44.184 116.371C44.9129 116.155 45.6361 115.918 46.3335 115.665L46.53 116.207C45.8217 116.464 45.0873 116.705 44.3471 116.923ZM10.353 116.255C9.62747 116.093 8.87801 115.919 8.12544 115.738L8.25982 115.178C9.00951 115.358 9.75609 115.531 10.4787 115.692L10.353 116.255ZM48.6645 115.354L48.4333 114.826C49.1256 114.523 49.8114 114.195 50.4717 113.85L50.7383 114.361C50.0665 114.711 49.3689 115.045 48.6645 115.354ZM5.90796 115.193C5.17002 115.01 4.43243 114.824 3.69496 114.638L3.83603 114.079C4.57292 114.265 5.30993 114.451 6.04741 114.634L5.90796 115.193ZM52.7386 113.226L52.4367 112.735C53.0769 112.341 53.7092 111.92 54.3164 111.483L54.653 111.951C54.0347 112.396 53.3906 112.825 52.7386 113.226ZM56.4695 110.54L56.0998 110.098C56.673 109.618 57.2378 109.11 57.7784 108.587L58.1791 109.001C57.6285 109.534 57.0533 110.051 56.4695 110.54ZM59.7744 107.345L59.3457 106.96C59.8427 106.407 60.3312 105.824 60.7973 105.228L61.2512 105.584C60.7769 106.189 60.2801 106.782 59.7744 107.345ZM62.6079 103.729L62.1321 103.404C62.1763 103.339 62.2203 103.274 62.2642 103.209C62.6353 102.659 63.0055 102.084 63.3643 101.501L63.855 101.804C63.4921 102.393 63.1175 102.975 62.7418 103.532C62.6973 103.598 62.6526 103.664 62.6079 103.729ZM65.0144 99.8258L64.5114 99.5448C64.8702 98.9028 65.23 98.2292 65.5808 97.5427L66.0939 97.8049C65.7399 98.4976 65.3767 99.1776 65.0144 99.8258ZM67.1022 95.7487L66.5809 95.5031C66.8927 94.8414 67.2088 94.1449 67.5206 93.4334L68.0484 93.6648C67.7345 94.3811 67.416 95.0821 67.1022 95.7487ZM68.942 91.5591L68.4092 91.3397C68.687 90.6654 68.9641 89.9746 69.2566 89.2275L69.7932 89.4376C69.4995 90.1879 69.221 90.8817 68.942 91.5591ZM70.612 87.3047L70.0727 87.1014C70.3162 86.4557 70.5762 85.7572 70.8675 84.9661L71.4082 85.1652C71.1164 85.9578 70.8561 86.6577 70.612 87.3047ZM73.765 78.743L73.2253 78.5408C73.5124 77.7742 73.7782 77.0758 74.0378 76.406L74.5751 76.6142C74.3163 77.282 74.0513 77.9783 73.765 78.743ZM75.4142 74.4985L74.8804 74.2815C75.1773 73.5513 75.474 72.8415 75.7627 72.1718L76.292 72.3998C76.0049 73.066 75.7095 73.772 75.4142 74.4985ZM77.2181 70.3241L76.695 70.0823C77.0226 69.3736 77.3563 68.6793 77.6867 68.0189L78.2021 68.2766C77.8743 68.9319 77.5432 69.6208 77.2181 70.3241ZM79.253 66.2645L78.7472 65.9884C79.1191 65.3074 79.5021 64.638 79.8856 63.9991L80.3797 64.2956C80.0003 64.9278 79.6212 65.5903 79.253 66.2645ZM84.2851 58.7393L83.8409 58.3722C84.3268 57.7841 84.8348 57.2027 85.3508 56.6438L85.7742 57.0346C85.2653 57.5856 84.7643 58.1592 84.2851 58.7393ZM87.3547 55.4148L86.9537 55.0011C87.5004 54.471 88.0696 53.9491 88.6453 53.4497L89.0228 53.885C88.4551 54.3775 87.8939 54.8922 87.3547 55.4148ZM90.7731 52.4499L90.4201 51.9946C91.0187 51.5306 91.6408 51.0748 92.2691 50.64L92.597 51.1138C91.9771 51.5427 91.3635 51.9923 90.7731 52.4499ZM94.491 49.876L94.1885 49.3855C94.8319 48.9886 95.499 48.6005 96.1707 48.2321L96.4478 48.7373C95.7845 49.1012 95.1261 49.4843 94.491 49.876ZM98.4605 47.6972L98.2083 47.1791C98.887 46.8489 99.5888 46.5278 100.294 46.2245L100.522 46.7539C99.8246 47.0536 99.131 47.371 98.4605 47.6972ZM102.625 45.9049L102.421 45.3659C103.126 45.0992 103.854 44.8415 104.583 44.5998L104.765 45.1469C104.043 45.3859 103.323 45.641 102.625 45.9049ZM106.934 44.4762L106.775 43.9224C107.499 43.7139 108.244 43.5143 108.99 43.3292L109.128 43.8884C108.389 44.0719 107.651 44.2696 106.934 44.4762ZM111.343 43.3797L111.224 42.8159C111.959 42.6601 112.716 42.5128 113.473 42.378L113.575 42.9453C112.823 43.0791 112.073 43.2253 111.343 43.3797ZM115.819 42.5813L115.735 42.0111C116.478 41.902 117.242 41.8009 118.006 41.7107L118.073 42.283C117.315 42.3724 116.556 42.4728 115.819 42.5813ZM120.336 42.0462L120.283 41.4723C121.032 41.404 121.799 41.3434 122.566 41.2923L122.604 41.8673C121.842 41.918 121.079 41.9782 120.336 42.0462ZM124.875 41.7424L124.85 41.1667C125.599 41.1341 126.368 41.1089 127.136 41.0918L127.149 41.6679C126.385 41.6849 125.62 41.71 124.875 41.7424Z" fill="#AA5FFF"/>
<path d="M1.46975 114.076C1.09738 113.982 0.725014 113.889 0.352417 113.796L0.492214 113.237C0.865041 113.33 1.23787 113.423 1.61058 113.517L1.46975 114.076Z" fill="#AA5FFF"/>
<path d="M22.2479 71.1908L22.2722 75.243L12.6209 73.4713L13.4981 76.6971L22.517 80.4395C23.2792 80.6379 24.0736 80.6614 24.8435 80.5084C26.0923 80.26 27.2107 79.5606 27.9968 78.5361L29.0669 77.1417L26.625 71.0772L24.6556 69.9248L22.2479 71.1908Z" fill="#FFBFAA"/>
<path d="M24.5933 110.804L22.4325 113.366L19.7763 115.646L20.0509 117.955L28.9104 116.901L28.0533 109.696L24.5933 110.804Z" fill="#008080"/>
<path d="M26.6322 115.733C26.3847 115.733 26.1459 115.648 25.9486 115.488C25.7195 115.303 25.5738 115.038 25.5387 114.742C25.5035 114.446 25.5828 114.154 25.7619 113.92C25.943 113.683 26.204 113.533 26.4968 113.499C26.7893 113.463 27.0782 113.548 27.3098 113.736C27.5389 113.921 27.6845 114.187 27.7197 114.482C27.7549 114.778 27.6756 115.07 27.4964 115.304C27.3154 115.541 27.0544 115.691 26.7616 115.725C26.7183 115.731 26.675 115.733 26.6322 115.733ZM26.6248 114.067C26.6049 114.067 26.5849 114.069 26.5648 114.071C26.4278 114.087 26.3053 114.158 26.2196 114.27C26.1321 114.384 26.0935 114.528 26.1108 114.674C26.1282 114.82 26.1994 114.95 26.3113 115.041C26.4209 115.13 26.5563 115.169 26.6935 115.153C26.8304 115.137 26.953 115.066 27.0387 114.954C27.1261 114.84 27.1648 114.696 27.1474 114.55C27.13 114.404 27.0588 114.274 26.9469 114.183C26.8534 114.107 26.7409 114.067 26.6248 114.067Z" fill="#2A0055"/>
<path d="M21.0602 114.605C20.9163 114.605 20.7918 114.497 20.7745 114.35C20.7557 114.192 20.8686 114.049 21.0266 114.03L23.8716 113.692C24.0311 113.674 24.173 113.786 24.1918 113.944C24.2105 114.102 24.0977 114.245 23.9397 114.264L21.0946 114.603C21.0831 114.604 21.0715 114.605 21.0602 114.605Z" fill="#2A0055"/>
<path d="M22.3447 113.274C22.2007 113.274 22.0763 113.167 22.0589 113.02C22.0401 112.862 22.1529 112.719 22.3109 112.7L25.156 112.362C25.3148 112.343 25.4574 112.456 25.4762 112.614C25.495 112.772 25.3821 112.915 25.2241 112.934L22.3791 113.272C22.3675 113.274 22.3561 113.274 22.3447 113.274Z" fill="#2A0055"/>
<path d="M51.2505 103.288L52.5981 106.688L53.3213 110.183L55.4312 111.034L58.6434 102.497L52.059 99.8425L51.2505 103.288Z" fill="#008080"/>
<path d="M55.3635 105.467C55.2267 105.467 55.0896 105.441 54.9585 105.388C54.3977 105.162 54.1167 104.512 54.3321 103.94C54.4384 103.657 54.647 103.436 54.9194 103.316C55.1875 103.198 55.4849 103.194 55.7573 103.304C56.3181 103.53 56.599 104.18 56.3836 104.752C56.2773 105.035 56.0687 105.256 55.7962 105.376C55.6573 105.437 55.5105 105.467 55.3635 105.467ZM55.3524 103.801C55.2839 103.801 55.2156 103.815 55.1512 103.844C55.022 103.9 54.9227 104.006 54.8715 104.143C54.7653 104.425 54.901 104.744 55.174 104.854C55.3011 104.905 55.4397 104.903 55.5644 104.848C55.6936 104.792 55.793 104.685 55.8443 104.549C55.9504 104.267 55.8147 103.948 55.5417 103.838C55.4803 103.813 55.4164 103.801 55.3524 103.801Z" fill="#2A0055"/>
<path d="M52.7764 108.673C52.7427 108.673 52.7084 108.667 52.6749 108.654C52.526 108.598 52.4507 108.432 52.5068 108.283L52.9995 106.974C53.0555 106.825 53.2215 106.749 53.3706 106.805C53.5195 106.861 53.5949 107.028 53.5387 107.177L53.046 108.486C53.0026 108.601 52.8929 108.673 52.7764 108.673Z" fill="#2A0055"/>
<path d="M52.2313 106.874C52.1977 106.874 52.1633 106.868 52.1299 106.856C51.981 106.8 51.9056 106.634 51.9618 106.485L52.4649 105.147C52.5209 104.998 52.6869 104.923 52.836 104.979C52.985 105.035 53.0603 105.201 53.0043 105.35L52.5011 106.688C52.4575 106.803 52.3478 106.874 52.2313 106.874Z" fill="#2A0055"/>
<path d="M52.7767 99.7576L51.124 104.006L49.4346 103.338L48.2896 102.885L47.5265 102.584L46.3816 102.131L36.0435 98.0444C35.1856 97.7151 34.4438 97.1354 33.9044 96.3916C33.6677 96.0662 33.4709 95.7094 33.3191 95.3279L30.5821 87.6579L28.9473 83.0775L35.7698 80.0397L35.988 80.6234L36.1992 81.1873L39.1366 89.0359L39.9209 91.1324L48.5804 96.942L49.6213 97.6403L50.3152 98.1063L51.356 98.8046L52.7767 99.7576Z" fill="white"/>
<path d="M51.2874 104.38L35.9375 98.312C35.0353 97.9658 34.2507 97.3597 33.671 96.5604C33.4194 96.2145 33.2108 95.8354 33.0512 95.4341L28.5859 82.9226L35.9323 79.6515L40.1582 90.9442L53.1289 99.6467L51.2874 104.38ZM29.3081 83.2318L33.5902 95.2307C33.7285 95.5777 33.9139 95.9144 34.1373 96.2217C34.6514 96.9309 35.3462 97.4679 36.1466 97.775L50.9604 103.631L52.4244 99.8681L39.6833 91.3198L35.6068 80.4272L29.3081 83.2318Z" fill="#AA5FFF"/>
<path d="M39.6025 88.3796L39.1364 89.0353L33.9043 96.391L33.642 96.7594L30.7091 105.316L30.2559 106.638L29.9533 107.52L29.5002 108.842L28.9328 110.497L23.5676 111.136C23.5676 111.136 25.4632 98.4247 25.7713 96.9686C26.2178 94.8589 26.8884 92.8005 27.7689 90.8429C28.7157 88.7382 29.5821 86.6392 30.4525 84.493C30.6996 83.8836 30.9468 83.274 31.1939 82.6646L38.5021 80.5869L39.621 82.1968C40.9132 84.055 40.9059 86.5474 39.6025 88.3796Z" fill="white"/>
<path d="M23.2269 111.467L23.2826 111.093C23.36 110.574 25.183 98.3573 25.4894 96.9093C25.9404 94.7784 26.6189 92.6977 27.5062 90.7251C28.474 88.5732 29.3659 86.4062 30.1853 84.385L30.9797 82.4262L38.6213 80.2538L39.8576 82.0328C41.2217 83.9944 41.2137 86.6124 39.8374 88.547L33.9009 96.8929L29.1466 110.762L23.2269 111.467ZM31.408 82.9036L30.7194 84.6014C29.8978 86.6278 29.0035 88.8008 28.0316 90.9614C27.1612 92.8965 26.4956 94.9378 26.0531 97.0286C25.7799 98.3196 24.2239 108.694 23.9082 110.805L28.7189 110.233L33.383 96.6268L39.3677 88.2129C40.6035 86.4758 40.6102 84.1243 39.3844 82.3616L38.3829 80.9205L31.408 82.9036Z" fill="#AA5FFF"/>
<path d="M39.1421 80.8328L28.7165 83.5603L25.758 75.9752C24.6164 75.7719 23.6363 75.0016 23.1671 73.9111C22.9429 73.3898 22.7926 72.8343 22.7243 72.2614L22.6515 71.6492C22.5341 70.6615 22.6268 69.661 22.9236 68.7167C23.194 67.8563 23.9272 67.2389 24.8021 67.1348L33.8315 66.0607C35.1764 65.9008 36.3634 66.9842 36.3687 68.3768L36.6775 75.3304L39.1421 80.8328Z" fill="#2A0055"/>
<path d="M29.7293 66.9926L26.5873 71.6704L26.5003 67.892L25.0863 62.8157L28.3154 61.9163L29.7293 66.9926Z" fill="white"/>
<path d="M25.9869 66.2779L29.2159 65.3785L27.5424 59.37L24.3134 60.2693L25.9869 66.2779Z" fill="#FFBFAA"/>
<path d="M23.5036 60.599L23.8688 61.9101C24.4613 64.0373 26.618 65.2947 28.6863 64.7185L29.9938 64.3544C30.6604 64.1687 31.0627 63.4937 30.9403 62.8084C30.9323 62.7646 30.9224 62.7206 30.9101 62.6767L29.9859 59.3582C29.5155 57.6695 27.8031 56.6711 26.1612 57.1285L25.2614 57.3792C23.9007 57.7581 23.1139 59.1997 23.5036 60.599Z" fill="#FFBFAA"/>
<path d="M28.0213 65.119C27.7779 65.119 27.5339 65.097 27.2903 65.0528C27.1338 65.0243 27.0298 64.8744 27.0583 64.7179C27.0868 64.5612 27.2365 64.4575 27.3933 64.4857C27.9181 64.5812 28.4454 64.5566 28.9611 64.4131C29.1141 64.3704 29.2732 64.46 29.3159 64.6133C29.3587 64.7666 29.2689 64.9255 29.1156 64.9682C28.7546 65.0688 28.3886 65.119 28.0213 65.119Z" fill="#2A0055"/>
<path d="M22.9815 63.1748L25.7754 65.5298C25.0997 57.7322 30.4157 61.1773 28.885 57.8107C29.8524 58.7374 29.4489 59.3676 30.6389 59.2918C30.6389 59.2918 30.4925 58.9146 30.4923 58.9143C29.9187 57.437 28.5375 56.6204 27.0259 56.6066C25.8103 56.5954 24.4424 56.9674 23.6249 57.9228C22.6121 59.1065 22.4122 61.7084 22.9815 63.1748Z" fill="#008080"/>
<path d="M25.3643 61.0685C25.3221 61.0685 25.2793 61.0592 25.2388 61.0396C25.0956 60.9701 25.0358 60.7977 25.1052 60.6545C25.6653 59.4994 26.557 59.1215 27.2081 58.8458C27.5937 58.6824 27.8982 58.5535 27.9837 58.3341C28.0641 58.128 27.9898 57.7705 27.7631 57.2719C27.6973 57.127 27.7613 56.9562 27.9062 56.8904C28.0509 56.8243 28.2217 56.8885 28.2876 57.0333C28.5935 57.7062 28.6653 58.1719 28.5206 58.5436C28.3468 58.9892 27.9028 59.1773 27.4327 59.3764C26.803 59.6432 26.0893 59.9455 25.6236 60.906C25.574 61.0086 25.4712 61.0685 25.3643 61.0685Z" fill="#F9A5A5"/>
<path d="M24.4963 59.6695C25.5319 59.3809 26.1308 58.2836 25.834 57.2184C25.5372 56.1533 24.4571 55.5237 23.4215 55.8123C22.386 56.1008 21.787 57.1982 22.0838 58.2633C22.3806 59.3285 23.4607 59.958 24.4963 59.6695Z" fill="#008080"/>
<path d="M22.9262 59.7092C22.9012 59.7092 22.8757 59.7059 22.8504 59.699C22.6969 59.6571 22.6063 59.4988 22.6481 59.3453C23.0602 57.8322 24.5217 56.8791 25.752 56.4915C25.9039 56.4438 26.0656 56.5279 26.1134 56.6798C26.1612 56.8316 26.0769 56.9934 25.9251 57.0412C24.8896 57.3674 23.5556 58.206 23.2041 59.4968C23.1691 59.6249 23.053 59.7092 22.9262 59.7092Z" fill="white"/>
<path d="M28.0277 74.6584C27.1677 74.6584 26.5644 74.422 26.5166 74.4026C26.369 74.3429 26.2978 74.175 26.3575 74.0275C26.4171 73.8802 26.5845 73.809 26.7321 73.8682C26.8149 73.9013 28.7368 74.6407 30.5692 73.1681C30.6931 73.0684 30.8744 73.0881 30.9743 73.2121C31.074 73.3361 31.0543 73.5175 30.9302 73.6172C29.903 74.4429 28.8485 74.6584 28.0277 74.6584Z" fill="white"/>
<path d="M23.9639 75.1561C23.8289 75.1561 23.7085 75.0609 23.6815 74.9235C23.6509 74.7674 23.7525 74.6159 23.9087 74.5853C24.5467 74.4599 25.1407 74.179 25.6738 73.7504C25.7978 73.6506 25.9791 73.6703 26.0789 73.7944C26.1786 73.9185 26.1589 74.0999 26.0349 74.1995C25.4282 74.6872 24.7503 75.0072 24.0198 75.1508C24.001 75.1545 23.9823 75.1561 23.9639 75.1561Z" fill="white"/>
<path d="M26.4288 73.6696L21.8278 74.2169C21.7712 73.4732 21.7485 72.718 21.6647 71.9803C21.5459 70.9328 21.4114 69.7502 21.9388 68.8C22.419 67.9348 23.27 67.338 24.2358 67.2112L24.9904 67.1123L26.4288 73.6696Z" fill="#2A0055"/>
<path d="M40.9056 75.9891C40.9056 75.9891 36.0691 81.7984 35.2975 82.2845L35.2259 82.3297L32.9982 81.5619L35.929 74.3725L32.462 70.9599L36.537 67.7917L40.7725 72.643C41.5953 73.5856 41.651 74.9919 40.9056 75.9891Z" fill="#FFBFAA"/>
<path d="M22.8794 73.3561C22.7539 73.3561 22.6385 73.2733 22.6025 73.1466C21.9623 70.8957 22.0536 68.1841 23.7011 67.2002C23.8377 67.1188 24.0146 67.1634 24.0962 67.2998C24.1778 67.4363 24.1332 67.6134 23.9965 67.695C22.6188 68.5177 22.5954 71.0158 23.1567 72.9891C23.2002 73.1422 23.1114 73.3015 22.9583 73.345C22.9321 73.3525 22.9054 73.3561 22.8794 73.3561Z" fill="white"/>
<path d="M39.4874 70.1407L33.7011 73.1958L29.5703 67.9032L32.8546 66.2362C34.1327 65.5553 35.7022 65.8494 36.6744 66.9524L39.4874 70.1407Z" fill="#2A0055"/>
<path d="M49.6211 97.6397L47.5263 102.583L46.3814 102.131L48.5803 96.9414L49.6211 97.6397Z" fill="#AA5FFF"/>
<path d="M51.3558 98.8042L49.4342 103.338L48.2893 102.885L50.3149 98.106L51.3558 98.8042Z" fill="#AA5FFF"/>
<path d="M30.7089 105.316L30.2558 106.638L24.1813 107.361L24.392 106.068L30.7089 105.316Z" fill="#AA5FFF"/>
<path d="M29.9533 107.52L29.5 108.842L23.8308 109.516L24.0413 108.223L29.9533 107.52Z" fill="#AA5FFF"/>
<path d="M56.541 103.28C56.5054 103.28 56.4692 103.274 56.4342 103.26C56.2865 103.2 56.2145 103.033 56.2737 102.885L56.7359 101.729C56.795 101.581 56.9626 101.509 57.1105 101.568C57.2583 101.627 57.3301 101.795 57.271 101.943L56.8088 103.099C56.7636 103.212 56.6554 103.28 56.541 103.28Z" fill="#2A0055"/>
<path d="M47.9684 98.673C47.9188 98.673 47.8686 98.6603 47.8227 98.6332L40.364 94.2494C39.5662 93.7806 38.8865 93.1103 38.3982 92.3112C38.3152 92.1753 38.3581 91.998 38.4938 91.915C38.6296 91.8321 38.807 91.8747 38.8898 92.0106C39.3289 92.7292 39.9395 93.3316 40.6558 93.7526L48.1145 98.1364C48.2517 98.2169 48.2975 98.3935 48.217 98.5308C48.1634 98.6222 48.0672 98.673 47.9684 98.673Z" fill="#2A0055"/>
<path d="M14.1406 73.3977C13.9521 73.2033 13.7939 72.9557 13.6745 72.6209C13.5431 72.2524 13.585 71.4198 13.3685 71.1379C13.2203 70.945 13.2523 70.9881 13.0627 71.131C12.9648 71.2049 12.458 72.3032 12.4693 72.3084L11.9247 72.0665C11.9247 72.0665 9.97673 71.387 9.46365 71.3082L8.73862 71.1967C8.50121 71.1602 8.27763 71.3175 8.22531 71.5577C8.17149 71.8053 8.31832 72.0536 8.55757 72.1195L9.35151 72.338L10.6702 72.8441L9.70164 72.6779C9.34748 72.6171 8.98641 72.6151 8.63236 72.6717L8.01302 72.7708C7.74692 72.8133 7.55353 73.0515 7.5601 73.3284C7.56494 73.5323 7.67834 73.7179 7.85525 73.8113L7.9509 73.8618L7.90907 73.8965C7.76674 74.0146 7.70047 74.2047 7.73723 74.3897C7.79059 74.6583 8.04183 74.8362 8.30437 74.7912L8.91933 74.6857C9.23131 74.6323 9.55205 74.6634 9.84973 74.776L10.6333 75.0724L8.78172 75.0566C8.42238 75.0535 8.25516 75.5311 8.54651 75.7493C8.5563 75.7567 8.56667 75.7638 8.57739 75.7704C8.64447 75.8123 8.72053 75.8334 8.79671 75.833C8.97984 75.8322 9.16297 75.83 9.34494 75.8525L11.2199 76.0835C12.0366 76.2548 13.5815 76.8857 14.4058 76.7718L14.4648 76.7636L14.4658 76.7668L15.9043 74.3505C15.2225 74.0252 14.594 73.8654 14.1406 73.3977Z" fill="#FFBFAA"/>
<path d="M30.0417 60.1948L31.3138 61.3275C31.4116 61.4606 31.3496 61.6509 31.1944 61.6942L30.3952 61.9167L30.0417 60.1948Z" fill="#FFBFAA"/>
<path d="M33.6212 73.3697L33.4899 73.2223C33.3651 73.0821 33.2362 72.941 33.1062 72.7983C32.6968 72.3496 32.2734 71.8853 31.91 71.3843C31.8165 71.2556 31.8451 71.0754 31.9739 70.982C32.1026 70.8884 32.2828 70.9171 32.3764 71.0461C32.721 71.5209 33.1332 71.973 33.532 72.4102C33.6182 72.5047 33.7039 72.5987 33.7883 72.6921L34.805 72.3116C34.9541 72.2562 35.1201 72.3315 35.1757 72.4806C35.2315 72.6296 35.1559 72.7956 35.0069 72.8515L33.6212 73.3697Z" fill="white"/>
<path d="M27.0264 63.1977C27.653 63.0232 28.0153 62.3593 27.8359 61.715L27.7203 61.3001C27.5408 60.6556 26.8874 60.2747 26.2608 60.4492C25.6343 60.6237 25.2718 61.2876 25.4513 61.932L25.5669 62.3469C25.7463 62.9913 26.3998 63.3722 27.0264 63.1977Z" fill="#FFBFAA"/>
<path d="M27.0722 62.3793C27.0175 62.3793 26.9621 62.3638 26.9131 62.3311L26.0433 61.7532C25.9108 61.6651 25.8748 61.4864 25.9629 61.3537C26.0509 61.2213 26.2297 61.1849 26.3623 61.2733L27.2321 61.8513C27.3646 61.9393 27.4006 62.1181 27.3125 62.2507C27.2571 62.3341 27.1656 62.3793 27.0722 62.3793Z" fill="#2A0055"/>
<path d="M22.5255 61.2844C22.5255 61.2844 19.4447 60.4131 19.3478 63.1244C19.3478 63.1244 15.6708 63.2155 16.085 66.4233C16.085 66.4233 13.1674 69.2541 16.1269 70.361C16.1269 70.361 17.5814 72.5675 20.5811 70.0751C20.5811 70.0751 23.2934 71.4026 23.9108 68.6957C23.9108 68.6957 28.0977 67.88 26.337 65.7864C26.337 65.7864 28.7746 61.6337 22.5255 61.2844Z" fill="#008080"/>
<path d="M26.3373 66.0745C26.2346 66.0745 26.1352 66.0193 26.0833 65.9227C26.022 65.8099 25.8024 65.5011 25.5256 65.425C25.3797 65.3846 25.2289 65.4125 25.0656 65.5093C24.9286 65.5904 24.752 65.5454 24.6708 65.4088C24.5895 65.2719 24.6346 65.0951 24.7714 65.0139C25.0693 64.8367 25.3844 64.787 25.6828 64.8705C26.2454 65.0276 26.5576 65.5875 26.5914 65.6509C26.6662 65.7912 26.6131 65.9658 26.4727 66.0406C26.4295 66.0636 26.383 66.0745 26.3373 66.0745Z" fill="#F9A5A5"/>
<path d="M32.8789 81.7758L31.6562 82.4273L30.1819 82.5167C29.9734 82.5294 29.8812 82.7915 30.033 82.9401L30.4665 83.3643L29.9677 83.7492C29.5545 84.068 29.2254 84.4875 29.0094 84.9702L28.7042 85.6524C28.6043 85.8759 28.6889 86.1417 28.8987 86.263C29.1148 86.3879 29.3872 86.3153 29.515 86.0986L29.9392 85.3796L31.1549 84.4681L30.7311 85.3744C30.5761 85.7059 30.474 86.0611 30.4286 86.4264L30.3492 87.0654C30.3151 87.3401 30.4836 87.5997 30.7439 87.6736C30.9356 87.728 31.14 87.6701 31.2765 87.5227L31.3501 87.4431L31.3709 87.4944C31.4415 87.669 31.6004 87.7894 31.7833 87.8068C32.0489 87.8322 32.2845 87.6363 32.3154 87.3644L32.3877 86.7278C32.4243 86.4048 32.5425 86.0978 32.7302 85.837L33.2243 85.1508L33.6409 86.3752C33.74 86.6666 34.0962 86.7607 34.317 86.5538C34.413 86.464 34.4624 86.3328 34.4504 86.1994L34.3304 84.8662L34.5681 84.4021C34.7973 83.9543 34.9515 83.4696 35.0241 82.9683L35.1081 82.3881L35.8424 81.7346L34.0135 79.7471L32.8789 81.7758Z" fill="#FFBFAA"/>
<path d="M35.929 74.6602C35.8655 74.6602 35.8016 74.6392 35.7484 74.5963C35.625 74.4966 35.6051 74.3161 35.7043 74.1924C36.0611 73.7474 37.0414 73.0308 38.1983 73.5048C38.3456 73.5651 38.416 73.7333 38.3557 73.8807C38.2954 74.0279 38.1274 74.0986 37.9799 74.038C36.9364 73.6105 36.1848 74.5148 36.1533 74.5536C36.0963 74.6237 36.0129 74.6602 35.929 74.6602Z" fill="#2A0055"/>
<path d="M28.8526 105.473C28.8273 105.473 28.8016 105.47 28.776 105.463C28.6226 105.421 28.5323 105.262 28.5746 105.109L31.6047 94.0956L36.2106 87.8908C36.3055 87.763 36.4858 87.7365 36.6138 87.8311C36.7414 87.9259 36.7682 88.1065 36.6733 88.2342L32.1316 94.3524L29.1302 105.261C29.095 105.389 28.979 105.473 28.8526 105.473Z" fill="#2A0055"/>
<path d="M39.6849 84.2199C39.1971 84.2199 38.716 83.9878 38.4096 83.5569L37.6903 82.5457C37.5981 82.4161 37.6284 82.236 37.7581 82.144C37.8877 82.0518 38.0678 82.082 38.1598 82.2117L38.8791 83.2229C39.186 83.6544 39.7674 83.7719 40.2027 83.4903C40.3365 83.4038 40.5148 83.4422 40.6011 83.5758C40.6876 83.7094 40.6493 83.8878 40.5156 83.9742C40.259 84.1402 39.9707 84.2199 39.6849 84.2199Z" fill="#2A0055"/>
<path d="M101.598 112.677L99.8757 116.457L104.129 119.006L106.097 113.939L101.598 112.677Z" fill="#FFBFAA"/>
<path d="M100.297 114.686L97.6878 119.36L105.636 124.123C105.845 124.249 106.1 124.108 106.099 123.867L106.086 121.916L104.573 118.619L105.622 116.916L103.819 115.835L102.355 116.583L100.297 114.686Z" fill="white"/>
<path d="M105.801 124.459C105.693 124.459 105.586 124.429 105.487 124.371L97.3 119.463L100.224 114.226L102.403 116.235L103.83 115.506L106.021 116.819L104.899 118.639L106.374 121.853L106.387 123.865C106.388 124.082 106.278 124.275 106.093 124.381C106.001 124.433 105.901 124.459 105.801 124.459ZM98.0756 119.256L105.784 123.876C105.793 123.882 105.801 123.884 105.807 123.88C105.809 123.879 105.811 123.878 105.811 123.869L105.799 121.98L104.247 118.599L105.224 117.013L103.808 116.164L102.307 116.931L100.371 115.145L98.0756 119.256Z" fill="#008080"/>
<path d="M106.094 123.185L100.602 119.932C100.523 119.884 100.446 119.834 100.371 119.781L98.8774 117.229L106.094 123.185Z" fill="white"/>
<path d="M105.948 123.433L100.455 120.18C100.369 120.128 100.285 120.073 100.204 120.016L100.154 119.98L98.6288 117.375L99.1261 117.084L100.588 119.581C100.641 119.617 100.695 119.652 100.75 119.685L106.241 122.937L105.948 123.433Z" fill="#008080"/>
<path d="M104.109 118.825L103.843 119.336L105.18 120.029L105.445 119.517L104.109 118.825Z" fill="#008080"/>
<path d="M106.575 115.929L100.163 113.381L105.192 100.727L99.1629 87.1979L105.465 84.3896L111.907 98.8466C112.404 99.9273 112.439 101.172 112.002 102.27L106.575 115.929ZM105.651 101.754C105.651 101.755 105.652 101.756 105.653 101.758C105.652 101.757 105.651 101.755 105.651 101.754Z" fill="#2A0055"/>
<path d="M125.651 104.006L129.323 106.243L132.01 102.306L127.074 99.65L125.651 104.006Z" fill="#FFBFAA"/>
<path d="M128.001 105.88L132.11 108.83L136.761 102.015L134.965 100.726L131.644 101.807L130 100.525L128.861 102.194L129.544 103.766L128.001 105.88Z" fill="white"/>
<path d="M132.181 109.237L127.598 105.944L129.214 103.73L128.533 102.163L129.935 100.109L131.7 101.486L135.014 100.407L137.157 101.946L132.181 109.237ZM128.405 105.815L132.038 108.424L136.364 102.086L134.915 101.045L131.587 102.129L130.065 100.941L129.188 102.225L129.874 103.803L128.405 105.815Z" fill="#008080"/>
<path d="M135.909 101.404L132.779 105.99C132.779 105.99 131.242 104.857 129.708 107.105L135.909 101.404Z" fill="white"/>
<path d="M129.946 107.268L129.47 106.943C130.063 106.074 130.734 105.57 131.465 105.446C131.995 105.356 132.43 105.491 132.689 105.611L135.671 101.242L136.147 101.566L132.849 106.4L132.608 106.222C132.592 106.21 132.161 105.908 131.552 106.016C130.984 106.116 130.444 106.537 129.946 107.268Z" fill="#008080"/>
<path d="M125.739 105.384L111.6 97.3021L97.1127 95.1958L98.1053 88.3683L112.722 90.4935C113.468 90.5898 114.179 90.8293 114.837 91.2055L129.163 99.3938L125.739 105.384Z" fill="#2A0055"/>
<path d="M107.947 90.2267C107.931 90.2267 107.916 90.2256 107.9 90.223L104.779 89.718C104.622 89.6926 104.515 89.5447 104.54 89.3876C104.566 89.2305 104.713 89.1228 104.871 89.1493L107.993 89.6543C108.15 89.6798 108.256 89.8276 108.231 89.9847C108.208 90.1261 108.086 90.2267 107.947 90.2267Z" fill="white"/>
<path d="M111.106 97.644C111.09 97.644 111.075 97.6427 111.059 97.6403L102.984 96.3216C102.827 96.2959 102.72 96.1478 102.746 95.9908C102.771 95.8339 102.919 95.728 103.077 95.7529L111.152 97.0716C111.309 97.0973 111.416 97.2454 111.39 97.4024C111.367 97.5436 111.244 97.644 111.106 97.644Z" fill="white"/>
<path d="M124.447 102.537C124.398 102.537 124.35 102.524 124.306 102.5L112.325 95.7615C112.109 95.64 111.877 95.5612 111.636 95.5271L106.649 94.8219C106.492 94.7996 106.382 94.6537 106.404 94.4963C106.427 94.3387 106.573 94.2296 106.73 94.2513L111.717 94.9565C112.029 95.0007 112.329 95.1026 112.608 95.2594L124.336 101.855L126.486 97.974C126.563 97.8347 126.738 97.7843 126.877 97.8615C127.016 97.9386 127.067 98.1139 126.99 98.253L124.699 102.388C124.662 102.455 124.6 102.505 124.526 102.526C124.5 102.533 124.474 102.537 124.447 102.537Z" fill="#008080"/>
<path d="M107.12 114.388C107.073 114.388 107.025 114.376 106.981 114.352L102.764 112.033C102.637 111.963 102.582 111.811 102.634 111.676L107.12 100.16L106.357 98.3221C106.296 98.1751 106.366 98.0065 106.513 97.9456C106.66 97.884 106.829 97.9541 106.89 98.1012L107.697 100.046C107.725 100.115 107.726 100.192 107.699 100.261L103.263 111.65L107.259 113.847C107.398 113.924 107.449 114.099 107.372 114.239C107.32 114.334 107.221 114.388 107.12 114.388Z" fill="#008080"/>
<path d="M72.034 88.2357L73.4792 85.6599L80.9279 89.5446L86.3799 85.0619L89.7156 89.7693L85.9892 92.41C84.6304 93.3729 83.0862 94.0274 81.4643 94.3373C80.4042 94.5399 79.3089 94.2554 78.4772 93.5673L72.034 88.2357Z" fill="#FFBFAA"/>
<path d="M87.2192 61.3297L85.6906 63.857L92.7425 68.4226L91.5301 75.3761L96.2375 75.8531L97.7306 71.4138C97.8986 69.757 97.7067 68.0907 97.1768 66.5268C96.8305 65.5045 96.043 64.6917 95.0343 64.3075L87.2192 61.3297Z" fill="#FFBFAA"/>
<path d="M81.7564 88.7725L89.6115 90.6913L89.6359 90.1996L89.6637 89.6455L89.6757 89.3871L89.6913 89.0813L89.707 88.7571L89.7084 88.7295C89.7088 88.7177 89.7095 88.7053 89.7098 88.6935C89.7105 88.6754 89.7109 88.6579 89.7117 88.6398C89.7201 88.4623 89.7228 88.2856 89.7204 88.1092C89.7193 88.006 89.7171 87.9036 89.7129 87.8017C89.6804 86.9762 89.5508 86.1599 89.329 85.368L89.3285 85.3668C89.2775 85.1854 89.2219 85.0048 89.1607 84.8264C89.0055 84.3701 88.8192 83.9229 88.5999 83.4891C88.4958 83.2814 88.3843 83.0759 88.2656 82.8744C88.2397 82.8299 88.2129 82.7868 88.1845 82.7446C88.1762 82.7319 88.1678 82.7192 88.1592 82.7069C87.8053 82.1904 87.304 81.8254 86.7462 81.6352C86.0952 81.4121 85.366 81.4278 84.7036 81.719C84.6804 81.7288 84.6575 81.7394 84.6345 81.75C84.5917 81.7699 84.5492 81.791 84.5071 81.8129C84.471 81.8323 84.4355 81.852 84.3998 81.8738C84.3771 81.8868 84.3554 81.9004 84.3329 81.915C84.2914 81.9417 84.2499 81.9692 84.2099 81.9977C84.0894 82.0836 83.9781 82.1794 83.8761 82.2836C83.7683 82.3934 83.6722 82.5128 83.5873 82.6399C83.5213 82.737 83.4627 82.8388 83.4123 82.9447C83.4023 82.9656 83.3922 82.9867 83.3829 83.0084C83.3088 83.1715 83.2524 83.3435 83.215 83.5215C83.1778 83.6945 83.1594 83.873 83.161 84.0544L83.1609 84.0764L81.7564 88.7725Z" fill="#008080"/>
<path d="M97.5848 95.6693L105.828 84.7134L104.677 83.8444L104.322 83.5757L102.62 82.2825L102.213 81.9739L102.098 81.8857L101.973 81.7911L101.212 81.2134L101.184 81.1927L100.944 81.0099L100.801 80.9016L99.1157 79.6212L98.6581 79.2741L98.3973 79.0751L97.9077 78.703L97.668 78.5206L97.3651 78.2911L97.2814 78.2275L97.0624 78.0613L96.8767 77.9203L96.6363 77.7379L95.6118 76.9599L94.4214 76.0564L94.4205 76.0557L93.761 75.5538L93.7505 75.5458C93.7496 75.5451 93.7496 75.5451 93.7496 75.5451L93.6015 75.433L93.3619 75.2505L92.5688 74.6488L92.3295 74.4659L92.1083 74.298L91.3669 73.373L87.6401 77.132L87.4445 77.3938L87.3879 77.47L87.2449 77.662L86.5936 78.5409L86.4016 78.7998L85.932 79.4335L85.8721 79.515L85.8182 79.5875L85.6804 79.7735L84.8371 80.9113L84.6479 81.1666L84.4936 81.3745L84.109 81.8933L84.1056 81.8979L83.9164 82.154L83.3227 82.9546L83.3829 83.0086L85.0688 84.5237L85.0692 84.5241L85.3657 84.7908L85.8148 85.1938L87.2524 86.4865L87.6288 86.8248L87.8405 87.0148L89.7098 88.6938L89.7753 88.7523L90.4443 89.3537L90.9838 89.8382L91.1264 89.967L91.2242 90.0548L91.8839 90.6477L92.1245 90.8631L92.8431 91.5088L92.8524 91.5172L94.2292 92.7549L94.2305 92.7559L94.5955 93.0834L94.9966 93.4438L95.2397 93.6626L95.8833 94.2405L96.0293 94.3726L96.1271 94.4604L96.2059 94.5305L97.5848 95.6693Z" fill="#008080"/>
<path d="M95.1855 78.3675C95.2366 78.3271 95.2873 78.2843 95.3359 78.2393C95.3584 78.219 95.3805 78.1981 95.4022 78.1775C95.5512 78.0388 95.6955 77.8951 95.8349 77.7484C96.062 77.5115 96.2763 77.2646 96.4786 77.0079C96.4786 77.0079 96.4786 77.0079 96.4792 77.0077C96.6939 76.7369 96.8939 76.4557 97.0803 76.1654L97.0811 76.1644C97.5252 75.4723 97.8872 74.7296 98.1595 73.9496C98.1938 73.8533 98.2252 73.7555 98.2565 73.6578C98.3001 73.5216 98.3403 73.3847 98.3771 73.2467C98.3858 73.2138 98.3945 73.1808 98.4032 73.1478C98.4115 73.1187 98.4187 73.09 98.4262 73.0605L98.5126 72.7196L98.5871 72.4225L98.651 72.1718L98.7863 71.6337L98.9066 71.1565L98.5444 71.1069L97.7778 71.0018L96.6221 70.8436L95.9327 70.7487L94.7802 70.5911L93.7223 70.4458L93.7217 70.4461L93.5855 70.4275L93.5853 70.4269L91.8157 70.1199C91.8154 70.1193 91.815 70.1196 91.815 70.1196L91.5525 70.0836L91.4852 70.2984L91.1895 71.2451L91.085 71.5799L91.0844 71.5801L90.8581 72.3076L90.7532 72.643L90.5509 73.2912L90.385 73.8234L89.8902 75.4085L89.8836 75.4292C89.7902 75.7277 89.7555 76.0351 89.7751 76.337C89.7797 76.4132 89.7882 76.4884 89.7997 76.5639C89.8177 76.6802 89.8433 76.7943 89.8782 76.9069C89.9223 77.0532 89.9794 77.1955 90.0502 77.3314C90.1173 77.4609 90.1959 77.585 90.286 77.7024C90.3162 77.742 90.3477 77.7803 90.3797 77.818C90.3966 77.838 90.4134 77.8574 90.4315 77.877C90.4591 77.9077 90.4874 77.9371 90.5164 77.9666C90.5504 77.9999 90.5847 78.0324 90.6196 78.0634C90.772 78.2015 90.9353 78.3196 91.108 78.4186C91.5792 78.6894 93.0286 79.0039 93.5592 78.9796C94.1357 78.9522 94.7066 78.7496 95.1855 78.3675Z" fill="#008080"/>
<path d="M98.4324 79.2661C98.4969 79.1802 98.4914 79.0577 98.4143 78.9781L97.413 77.9441C96.7742 77.2844 96.0521 76.7083 95.267 76.2318L94.3352 75.6664C94.2303 75.6027 94.0933 75.6353 94.03 75.7411C93.9664 75.846 93.9997 75.9827 94.1047 76.0464L95.0365 76.6118C95.7891 77.0685 96.4813 77.6208 97.0938 78.2533L98.095 79.2873C98.1804 79.3754 98.3211 79.3778 98.4092 79.2924C98.4177 79.2839 98.4255 79.2752 98.4324 79.2661Z" fill="white"/>
<path d="M89.4534 80.6032L86.1251 80.1697L83.1278 75.3889L87.1156 72.8888L90.0388 79.8347C90.2054 80.231 89.8798 80.6587 89.4534 80.6032Z" fill="#FFBFAA"/>
<path d="M88.837 77.2542C87.037 78.3825 84.6633 77.8382 83.5349 76.0383L82.4129 74.2486L82.7836 72.4549L85.8051 70.5605L87.5705 71.0864L89.5454 74.1654C90.2027 75.2139 89.8855 76.5968 88.837 77.2542Z" fill="#FFBFAA"/>
<path d="M88.955 77.4424C88.9887 77.4211 89.0218 77.3994 89.0543 77.3768C89.155 77.3068 89.18 77.1684 89.1101 77.0676C89.04 76.9667 88.9017 76.9415 88.8009 77.0118C88.7742 77.0303 88.7468 77.0484 88.719 77.0658C88.1433 77.4268 87.4815 77.6184 86.8056 77.6199C86.6828 77.6202 86.5835 77.7199 86.5838 77.8426C86.5841 77.9653 86.6838 78.0646 86.8065 78.0643C87.5657 78.0626 88.3086 77.8476 88.955 77.4424Z" fill="#2A0055"/>
<path d="M89.377 78.7385L89.5983 78.2886C89.6525 78.1784 89.6071 78.0453 89.497 77.9911C89.3868 77.937 89.2537 77.9824 89.1996 78.0924L89.0842 78.327L88.262 78.429C88.1402 78.4439 88.0538 78.555 88.0689 78.6767C88.0839 78.7986 88.1949 78.885 88.3166 78.8699L89.377 78.7385Z" fill="#2A0055"/>
<path d="M81.8715 74.8137L83.2302 73.9618C83.3342 73.8965 83.3657 73.7595 83.3004 73.6554C83.2352 73.5515 83.0982 73.52 82.9942 73.5853L81.6354 74.4372C81.5315 74.5024 81.5 74.6394 81.5652 74.7434C81.6305 74.8475 81.7675 74.8789 81.8715 74.8137Z" fill="white"/>
<path d="M82.8391 74.9284L83.5549 74.4796C83.6589 74.4144 83.6904 74.2773 83.6251 74.1733C83.5599 74.0693 83.4229 74.0379 83.3189 74.1031L82.6031 74.5519C82.4992 74.6171 82.4677 74.7541 82.5329 74.8581C82.598 74.9621 82.7352 74.9936 82.8391 74.9284Z" fill="white"/>
<path d="M88.2334 72.1131C88.4375 72.019 88.6629 71.9009 88.7265 71.6853C88.784 71.4902 88.68 71.2763 88.5245 71.1453C88.3691 71.0141 88.1703 70.9483 87.9769 70.8854C88.3096 70.9936 89.3495 68.8068 87.6503 68.9886C87.237 69.0329 86.6834 69.2272 86.3009 68.9789C85.9315 68.7392 85.8053 68.266 85.4518 68.0136C84.4981 67.3326 83.5298 68.8479 83.5644 69.6722C83.5673 69.7421 83.5743 69.8133 83.5573 69.8813C83.5129 70.0605 83.3165 70.1617 83.1329 70.1816C82.9493 70.2014 82.7634 70.1638 82.5794 70.1788C82.2748 70.2036 81.9864 70.3814 81.8275 70.6424C81.6685 70.9035 81.6431 71.2413 81.761 71.5233C81.2357 71.7502 80.8571 72.2844 80.8171 72.8552C80.7771 73.426 81.0773 74.0078 81.5659 74.3058C81.4394 74.6838 81.4205 75.0972 81.5119 75.4851C81.5441 75.6215 81.5944 75.7621 81.7024 75.8513C81.8838 76.0011 82.1518 75.9541 82.3795 75.8952C82.9156 75.7567 83.4464 75.5969 83.9699 75.4166C83.7884 74.8083 83.6227 74.0957 83.9976 73.5837C84.4471 72.9698 85.5083 72.9083 85.7339 72.1817C85.7734 72.0543 85.7824 71.9138 85.857 71.8034C85.9618 71.6483 86.1646 71.5965 86.3507 71.5768C87.0154 71.5066 87.7044 71.7026 88.2334 72.1131Z" fill="#2A0055"/>
<path d="M84.4919 77.4836C85.0044 77.1623 85.1594 76.4863 84.8381 75.9737L84.5923 75.5815C84.2709 75.069 83.5949 74.914 83.0824 75.2353C82.5699 75.5566 82.4149 76.2325 82.7362 76.7452L82.982 77.1374C83.3033 77.6499 83.9794 77.8049 84.4919 77.4836Z" fill="#FFBFAA"/>
<path d="M83.4748 77.0205C83.5788 76.9552 83.6102 76.8182 83.545 76.7142L83.4098 76.4986C83.2716 76.2783 83.3386 75.9866 83.5589 75.8484C83.6629 75.7831 83.6944 75.6461 83.6291 75.542C83.5639 75.4381 83.4269 75.4066 83.3228 75.4719C82.8949 75.7402 82.7649 76.3066 83.0333 76.7346L83.1685 76.9503C83.2337 77.0541 83.3709 77.0856 83.4748 77.0205Z" fill="#2A0055"/>
<path d="M81.8196 63.3354C81.5087 63.3354 81.2523 63.0881 81.2431 62.7753C81.2336 62.4568 81.4843 62.1909 81.8028 62.1816L82.8071 62.1518L83.2885 61.9338C83.5788 61.8022 83.9208 61.931 84.0523 62.2215C84.1838 62.5117 84.0549 62.8537 83.7646 62.9852L83.0724 63.2987L81.8368 63.3351C81.8312 63.3353 81.8254 63.3354 81.8196 63.3354Z" fill="#FFBFAA"/>
<path d="M83.9574 61.9544C83.8546 61.9546 83.7506 61.9271 83.6566 61.8695L82.6295 61.2405L81.5896 61.7151C81.2995 61.8474 80.9574 61.7196 80.8249 61.4296C80.6926 61.1396 80.8203 60.7974 81.1104 60.6649L82.4295 60.0629C82.6042 59.9834 82.8069 59.9956 82.9705 60.0957L84.2593 60.8851C84.5311 61.0515 84.6166 61.4068 84.4501 61.6786C84.3412 61.8565 84.1516 61.9544 83.9574 61.9544Z" fill="#FFBFAA"/>
<path d="M81.9463 61.0571C81.7356 61.0571 81.5327 60.9414 81.431 60.7406C81.287 60.4562 81.4008 60.1089 81.6851 59.9651L82.9425 59.3284C83.1111 59.2429 83.3106 59.2454 83.477 59.3352L84.656 59.9704C84.9366 60.1216 85.0415 60.4716 84.8904 60.7521C84.7392 61.0329 84.3892 61.1378 84.1086 60.9864L83.195 60.4942L82.2068 60.9947C82.123 61.037 82.0339 61.0571 81.9463 61.0571Z" fill="#FFBFAA"/>
<path d="M84.7238 60.7713C84.5908 60.7713 84.4572 60.7256 84.3483 60.6321L83.4663 59.8754L83.1317 60.2821C82.9293 60.5282 82.5655 60.5636 82.3195 60.3611C82.0733 60.1586 82.0379 59.795 82.2404 59.5488L82.9493 58.687C83.0478 58.5671 83.1905 58.4921 83.3451 58.4786C83.4998 58.4651 83.6531 58.5146 83.7708 58.6155L85.1 59.756C85.3419 59.9636 85.3697 60.328 85.1623 60.5699C85.048 60.7029 84.8864 60.7713 84.7238 60.7713Z" fill="#FFBFAA"/>
<path d="M82.3493 63.4287C82.091 63.4287 81.8558 63.2539 81.79 62.992L81.3811 61.3641C81.3226 61.1311 81.4145 60.8862 81.6118 60.7493C81.8094 60.6125 82.0709 60.6122 82.2686 60.7486L83.4548 61.5673C83.7171 61.7483 83.783 62.1077 83.6018 62.3701C83.4369 62.6088 83.1243 62.685 82.8715 62.5599L82.9094 62.7109C82.9871 63.02 82.7995 63.3335 82.4904 63.4111C82.4432 63.423 82.3959 63.4287 82.3493 63.4287Z" fill="#FFBFAA"/>
<path d="M88.0478 62.1115L84.0861 58.8901L83.1619 63.3087L86.3233 63.942L88.0478 62.1115Z" fill="#FFBFAA"/>
</svg>
