<svg width="50" height="50" viewBox="0 0 50 50" fill="none" xmlns="http://www.w3.org/2000/svg">
<g clip-path="url(#clip0_35_3973)">
<path d="M49.1563 29.3555C48.9336 27.8438 48.7422 26.5352 48.6797 25.6953C48.4727 22.8906 47.7149 21.3984 46.1406 20.6445C45.4645 20.3278 44.7227 20.1765 43.9766 20.2031C43.75 19.25 43.2891 17.707 42.5859 17.0117C41.375 15.8164 39.7149 15.7813 38.7422 15.8945C38.6065 15.4479 38.3669 15.0398 38.043 14.7037C37.7192 14.3676 37.3202 14.113 36.8789 13.9609C35.809 13.6497 34.6619 13.7428 33.6563 14.2227C33.3516 9.55469 32.9609 5.26172 32.5156 4.38281C32.3606 4.02447 32.1154 3.71237 31.8039 3.47689C31.4925 3.24141 31.1253 3.09058 30.7383 3.03906C29.5391 2.89063 28.3633 3.73828 28.0039 4.14844C27.7539 4.4375 27.5742 4.64453 27.5899 13.1328C27.5899 17.1133 27.6602 21.6289 27.7188 22.4297C27.7695 23.1133 27.6758 25.5547 27.5664 27.8984C27.3756 27.6028 27.2097 27.2918 27.0703 26.9688C26.1875 25.0156 24.3359 23.418 21.9102 22.4844C20.3125 21.875 18.8242 22.0391 17.9219 22.9219C17.598 23.234 17.3719 23.6336 17.2714 24.072C17.1708 24.5104 17.2 24.9686 17.3555 25.3906C17.6563 26.2266 18.3399 27.043 19.1289 27.9883C19.8601 28.8105 20.5139 29.6983 21.082 30.6406C21.594 31.6237 22.0289 32.645 22.3828 33.6953C22.7883 34.9151 23.3116 36.0926 23.9453 37.2109C24.2383 37.6953 24.5586 38.207 24.8867 38.7344C25.8876 40.2753 26.8005 41.8716 27.6211 43.5156C28.5938 45.6367 32.125 47.4219 32.5234 47.6406C32.6162 47.6887 32.7176 47.7176 32.8217 47.7258C32.9258 47.734 33.0305 47.7212 33.1296 47.6882C33.2286 47.6553 33.3201 47.6028 33.3986 47.5338C33.477 47.4649 33.5408 47.381 33.5863 47.2869C33.6317 47.1929 33.6578 47.0907 33.6631 46.9865C33.6684 46.8822 33.6527 46.7779 33.617 46.6797C33.5813 46.5816 33.5263 46.4916 33.4552 46.4151C33.3841 46.3387 33.2984 46.2772 33.2031 46.2344C32.2539 45.7617 29.6563 44.2344 29.0234 42.8555C28.1705 41.1464 27.2184 39.4886 26.1719 37.8906C25.8477 37.3711 25.5313 36.8633 25.2422 36.3828C24.6694 35.3601 24.1959 34.2849 23.8281 33.1719C23.4478 32.0442 22.9789 30.9483 22.4258 29.8945C21.8135 28.8669 21.106 27.8991 20.3125 27.0039C19.6445 26.2227 19.0156 25.4414 18.8086 24.8789C18.7547 24.7387 18.7441 24.5856 18.7783 24.4393C18.8124 24.2931 18.8896 24.1604 19 24.0586C19.3516 23.7148 20.1484 23.5117 21.3438 23.9648C24.1172 25.0234 25.2227 26.6992 25.6406 27.6328C26.0369 28.591 26.6587 29.4392 27.4531 30.1055C27.4141 30.8164 27.3828 31.4453 27.3555 31.9062C27.3437 32.1129 27.4145 32.3157 27.5522 32.4703C27.6899 32.6248 27.8832 32.7184 28.0899 32.7305H28.125C28.3243 32.7308 28.5163 32.655 28.6615 32.5185C28.8067 32.3819 28.8943 32.1951 28.9063 31.9961C28.9063 31.6602 29.375 23.793 29.2656 22.3164C29.1406 20.4844 29.0664 6.91406 29.2969 5.07813C29.6455 4.78134 30.0853 4.61312 30.543 4.60156C30.6367 4.60156 30.8867 4.64453 31.1133 5.09766C31.4688 5.82422 31.8945 10.7695 32.2383 16.8477V16.9531C32.2383 16.9531 32.2383 16.9727 32.2383 16.9844C32.4258 20.2109 32.5899 23.7539 32.7188 27.1406C32.7265 27.3478 32.8163 27.5435 32.9683 27.6845C33.1203 27.8255 33.3221 27.9003 33.5293 27.8926C33.7365 27.8848 33.9321 27.795 34.0732 27.643C34.2142 27.491 34.289 27.2892 34.2813 27.082C34.2227 25.5195 34.0469 21.1172 33.7813 16.5898C33.7739 16.4271 33.8055 16.2649 33.8734 16.1167C33.9414 15.9686 34.0437 15.8389 34.1719 15.7383C34.75 15.2813 35.8438 15.2813 36.3828 15.4531C37.2422 15.7305 37.3594 16.8203 37.3633 16.8633C37.3633 16.9336 38.0586 24.125 38.1445 25.7578C38.1555 25.9575 38.2427 26.1453 38.388 26.2827C38.5334 26.42 38.7258 26.4964 38.9258 26.4961H38.9727C39.1793 26.484 39.3727 26.3904 39.5104 26.2359C39.648 26.0814 39.7188 25.8785 39.707 25.6719C39.6289 24.3047 39.1602 19.3242 38.9844 17.4414C39.6641 17.375 40.7422 17.4102 41.4727 18.1289C41.9219 18.5703 42.3906 20.1992 42.582 21.2148V21.2422C42.582 21.2422 42.582 21.2617 42.582 21.2734C42.9818 22.9253 43.1215 24.6293 42.9961 26.3242C42.9858 26.4263 42.9958 26.5294 43.0254 26.6276C43.055 26.7259 43.1036 26.8173 43.1685 26.8968C43.2335 26.9762 43.3134 27.0421 43.4038 27.0906C43.4942 27.1392 43.5932 27.1694 43.6953 27.1797H43.7734C43.9678 27.1807 44.1555 27.1092 44.3 26.9791C44.4445 26.8491 44.5353 26.6699 44.5547 26.4766C44.6823 24.9094 44.5942 23.3322 44.293 21.7891C44.6987 21.8083 45.0967 21.9065 45.4649 22.0781C46.3164 22.4688 46.918 23.25 47.1094 25.8281C47.1758 26.7227 47.3711 28.0547 47.5977 29.5977C48.0156 32.457 48.5391 36.0156 48.4258 38.1914C48.2539 41.4883 46.8984 46.5273 46.8867 46.5781C46.8585 46.6834 46.8527 46.7933 46.8695 46.901C46.8863 47.0086 46.9254 47.1115 46.9844 47.2031L48.5469 49.6562C48.6618 49.8228 48.8368 49.9383 49.0351 49.9784C49.2335 50.0186 49.4396 49.9802 49.6102 49.8713C49.7808 49.7625 49.9025 49.5917 49.9497 49.395C49.9969 49.1982 49.9659 48.9908 49.8633 48.8164L48.4805 46.6523C48.793 45.4414 49.8281 41.2695 49.9844 38.2734C50.1211 35.9375 49.5859 32.2852 49.1563 29.3555Z" fill="#008080"/>
<path d="M0.78125 6.25H23.5234C23.7116 7.32263 24.2274 8.31064 25 9.07812C25.1466 9.22472 25.3454 9.30707 25.5527 9.30707C25.76 9.30707 25.9589 9.22472 26.1055 9.07812C26.2521 8.93153 26.3344 8.73271 26.3344 8.52539C26.3344 8.31807 26.2521 8.11925 26.1055 7.97265C25.4957 7.36045 25.1163 6.55629 25.0316 5.6964C24.9469 4.83651 25.162 3.97377 25.6406 3.25434C26.1191 2.53491 26.8317 2.00303 27.6575 1.7488C28.4833 1.49458 29.3716 1.53364 30.1719 1.85937C30.2668 1.89836 30.3684 1.91827 30.471 1.91797C30.5736 1.91767 30.6751 1.89717 30.7698 1.85763C30.961 1.77778 31.1127 1.62525 31.1914 1.43359C31.2304 1.33869 31.2503 1.23704 31.25 1.13444C31.2497 1.03185 31.2292 0.930316 31.1897 0.835644C31.1501 0.740972 31.0923 0.655014 31.0196 0.582679C30.9468 0.510343 30.8605 0.453047 30.7656 0.41406C30.0094 0.102942 29.1915 -0.0291392 28.3758 0.0281349C27.5601 0.085409 26.7687 0.330487 26.0633 0.744227C25.358 1.15797 24.7579 1.72916 24.3098 2.41321C23.8618 3.09725 23.5779 3.87561 23.4805 4.6875H0.78125C0.57405 4.6875 0.375336 4.76981 0.228823 4.91632C0.08231 5.06283 0 5.26155 0 5.46875C0 5.67595 0.08231 5.87466 0.228823 6.02118C0.375336 6.16769 0.57405 6.25 0.78125 6.25Z" fill="#008080"/>
<path d="M35.1562 4.6875C34.949 4.6875 34.7503 4.76981 34.6038 4.91632C34.4573 5.06284 34.375 5.26155 34.375 5.46875C34.375 5.67595 34.4573 5.87466 34.6038 6.02118C34.7503 6.16769 34.949 6.25 35.1562 6.25H49.2188C49.426 6.25 49.6247 6.16769 49.7712 6.02118C49.9177 5.87466 50 5.67595 50 5.46875C50 5.26155 49.9177 5.06284 49.7712 4.91632C49.6247 4.76981 49.426 4.6875 49.2188 4.6875H35.1562Z" fill="#008080"/>
<path d="M5.46875 30.4687C6.7827 30.4672 8.05216 29.9926 9.0449 29.1319C10.0376 28.2711 10.6873 27.0817 10.875 25.7812H14.8438C15.051 25.7812 15.2497 25.6989 15.3962 25.5524C15.5427 25.4059 15.625 25.2072 15.625 25C15.625 24.7928 15.5427 24.5941 15.3962 24.4476C15.2497 24.3011 15.051 24.2187 14.8438 24.2187H10.875C10.7252 23.181 10.2802 22.2081 9.59311 21.4161C8.90597 20.6241 8.00564 20.0464 6.99937 19.7517C5.99311 19.457 4.92334 19.4578 3.91752 19.754C2.91169 20.0502 2.01222 20.6293 1.32626 21.4223C0.640302 22.2153 0.196778 23.1888 0.0485309 24.2268C-0.0997166 25.2648 0.0535621 26.3235 0.490105 27.2769C0.926648 28.2302 1.62805 29.0379 2.51075 29.6038C3.39345 30.1697 4.42023 30.47 5.46875 30.4687ZM5.46875 21.0937C6.24134 21.0937 6.99657 21.3228 7.63895 21.7521C8.28133 22.1813 8.782 22.7914 9.07766 23.5051C9.37331 24.2189 9.45067 25.0043 9.29995 25.7621C9.14922 26.5198 8.77719 27.2158 8.23089 27.7621C7.68459 28.3084 6.98856 28.6805 6.23082 28.8312C5.47309 28.9819 4.68767 28.9046 3.9739 28.6089C3.26012 28.3132 2.65005 27.8126 2.22082 27.1702C1.7916 26.5278 1.5625 25.7726 1.5625 25C1.5625 23.964 1.97405 22.9704 2.70662 22.2379C3.43918 21.5053 4.43275 21.0937 5.46875 21.0937Z" fill="#008080"/>
<path d="M0.78125 45.3125H11.7812C11.9784 46.6051 12.6321 47.7843 13.6239 48.6363C14.6157 49.4883 15.88 49.9568 17.1875 49.9568C18.495 49.9568 19.7593 49.4883 20.7511 48.6363C21.7429 47.7843 22.3966 46.6051 22.5938 45.3125H25.3906C25.5978 45.3125 25.7965 45.2302 25.9431 45.0837C26.0896 44.9372 26.1719 44.7385 26.1719 44.5313C26.1719 44.3241 26.0896 44.1253 25.9431 43.9788C25.7965 43.8323 25.5978 43.75 25.3906 43.75H22.5938C22.3966 42.4574 21.7429 41.2782 20.7511 40.4262C19.7593 39.5742 18.495 39.1057 17.1875 39.1057C15.88 39.1057 14.6157 39.5742 13.6239 40.4262C12.6321 41.2782 11.9784 42.4574 11.7812 43.75H0.78125C0.57405 43.75 0.375336 43.8323 0.228823 43.9788C0.08231 44.1253 0 44.3241 0 44.5313C0 44.7385 0.08231 44.9372 0.228823 45.0837C0.375336 45.2302 0.57405 45.3125 0.78125 45.3125ZM17.1875 40.625C17.9601 40.625 18.7153 40.8541 19.3577 41.2833C20.0001 41.7125 20.5007 42.3226 20.7964 43.0364C21.0921 43.7502 21.1694 44.5356 21.0187 45.2933C20.868 46.0511 20.4959 46.7471 19.9496 47.2934C19.4033 47.8397 18.7073 48.2117 17.9496 48.3624C17.1918 48.5132 16.4064 48.4358 15.6926 48.1402C14.9789 47.8445 14.3688 47.3438 13.9396 46.7014C13.5103 46.0591 13.2812 45.3038 13.2812 44.5313C13.2812 43.4952 13.6928 42.5017 14.4254 41.7691C15.1579 41.0366 16.1515 40.625 17.1875 40.625Z" fill="#008080"/>
</g>
<defs>
<clipPath id="clip0_35_3973">
<rect width="50" height="50" fill="white"/>
</clipPath>
</defs>
</svg>
