<svg width="600" height="521" viewBox="0 0 600 521" fill="none" xmlns="http://www.w3.org/2000/svg">
<path d="M280.076 64.4193C282.439 59.6624 283.913 54.5506 284.458 49.2259L284.465 49.1573L277.83 48.4902C278.177 45.0438 278.047 41.6592 277.494 38.4019L284.068 37.2851C283.176 32.0357 281.358 27.0344 278.663 22.42L272.905 25.7827C271.2 22.8633 269.109 20.185 266.695 17.8233L271.359 13.0566C267.539 9.31953 263.132 6.33752 258.26 4.19331L255.574 10.2964C252.544 8.96275 249.291 8.01328 245.872 7.51418L246.835 0.91568C246.201 0.823057 245.556 0.743024 244.917 0.677672C240.254 0.201002 235.586 0.457723 231.042 1.44075L232.452 7.9581C229.116 8.67988 225.929 9.84896 222.964 11.405L219.865 5.50053C215.151 7.97537 210.958 11.2428 207.404 15.2121L212.373 19.6597C210.136 22.1578 208.224 24.9643 206.71 28.0181L200.735 25.0559C198.381 29.8042 196.912 34.9056 196.369 40.2188L196.366 40.2476L202.999 40.9258C202.65 44.372 202.777 47.7566 203.328 51.0144L196.753 52.1262C197.64 57.3764 199.455 62.379 202.146 66.9955L207.907 63.6371C209.61 66.558 211.699 69.2378 214.111 71.6013L209.444 76.3644C213.261 80.1042 217.665 83.0898 222.535 85.2377L225.226 79.1368C228.255 80.4729 231.507 81.4246 234.926 81.9263L233.958 88.5243C234.603 88.6189 235.26 88.7006 235.91 88.767C240.561 89.2426 245.218 88.9883 249.751 88.0112L248.346 81.4929C251.683 80.7737 254.871 79.6069 257.837 78.0533L260.931 83.9598C265.648 81.4887 269.843 78.2245 273.4 74.2578L268.435 69.8064C270.674 67.3099 272.588 64.505 274.104 61.4524L280.076 64.4193ZM238.555 62.8973C228.517 61.871 221.212 52.9017 222.238 42.8639C223.265 32.8261 232.234 25.5208 242.272 26.5473C252.31 27.5735 259.615 36.543 258.588 46.5808C257.562 56.6184 248.593 63.9237 238.555 62.8973Z" fill="white"/>
<path d="M240.46 89.4031C238.932 89.4031 237.4 89.325 235.869 89.1683C235.212 89.1011 234.549 89.0187 233.9 88.9235L233.5 88.8649L234.469 82.2648C231.35 81.7738 228.315 80.9008 225.433 79.6667L222.741 85.7695L222.372 85.6067C217.458 83.4389 213.013 80.4262 209.161 76.6524L208.873 76.37L213.541 71.6054C211.317 69.3791 209.375 66.8866 207.763 64.1875L202.001 67.5468L201.798 67.1982C199.082 62.54 197.251 57.4915 196.355 52.1931L196.288 51.7954L202.865 50.6832C202.376 47.5889 202.273 44.4315 202.559 41.286L195.924 40.6075L195.967 40.1778C196.515 34.8161 197.998 29.6681 200.374 24.8764L200.553 24.515L206.529 27.4781C207.955 24.6781 209.727 22.0622 211.804 19.6923L206.835 15.2431L207.104 14.9425C210.689 10.9373 214.92 7.64014 219.677 5.14287L220.035 4.95536L223.135 10.8616C225.941 9.42644 228.91 8.34756 231.973 7.65062L230.562 1.13119L230.957 1.04599C235.542 0.0539198 240.253 -0.205394 244.958 0.275794C245.603 0.341792 246.254 0.42248 246.893 0.51591L247.292 0.574156L246.329 7.17476C249.447 7.66354 252.483 8.5341 255.366 9.76612L258.053 3.66105L258.423 3.82355C263.339 5.98745 267.786 8.99672 271.641 12.7676L271.929 13.0497L267.264 17.8179C269.491 20.0424 271.434 22.5336 273.049 25.2313L278.808 21.8676L279.012 22.216C281.731 26.8722 283.566 31.9192 284.466 37.2169L284.534 37.6147L277.957 38.732C278.449 41.8258 278.554 44.983 278.27 48.1285L284.908 48.7959L284.859 49.2665C284.31 54.6396 282.822 59.7981 280.438 64.5985L280.258 64.9598L274.284 61.992C272.856 64.7908 271.082 67.4054 269.003 69.7738L273.969 74.2266L273.7 74.5269C270.111 78.5297 265.878 81.8235 261.119 84.3169L260.761 84.5041L257.666 78.5955C254.858 80.0286 251.888 81.1052 248.825 81.7997L250.231 88.3201L249.836 88.4052C246.754 89.0697 243.615 89.4029 240.46 89.4031ZM234.416 88.1819C234.925 88.2517 235.44 88.3134 235.951 88.3656C240.424 88.823 244.904 88.599 249.271 87.7L247.867 81.1837L248.261 81.0986C251.523 80.3956 254.682 79.2507 257.65 77.6961L258.007 77.5089L261.1 83.4139C265.511 81.0521 269.453 77.9843 272.828 74.2878L267.865 69.8375L268.135 69.5372C270.37 67.0435 272.257 64.263 273.743 61.2731L273.922 60.9118L279.893 63.8777C282.082 59.367 283.47 54.5398 284.021 49.518L277.388 48.8511L277.429 48.4496C277.765 45.1083 277.653 41.7504 277.096 38.4693L277.028 38.0717L283.601 36.9552C282.718 32.0303 281.009 27.3303 278.517 22.9726L272.76 26.3343L272.557 25.986C270.872 23.1006 268.805 20.4512 266.413 18.1115L266.124 17.8293L270.787 13.0641C267.166 9.58571 263.025 6.78329 258.466 4.7267L255.78 10.8282L255.411 10.6657C252.363 9.32413 249.134 8.39807 245.813 7.91333L245.414 7.85508L246.377 1.25835C245.878 1.19025 245.375 1.13006 244.875 1.07891C240.39 0.620637 235.9 0.846865 231.522 1.75147L232.931 8.26688L232.537 8.35208C229.275 9.05773 226.118 10.2049 223.151 11.7619L222.794 11.9494L219.696 6.04666C215.287 8.41194 211.347 11.4829 207.975 15.1817L212.942 19.628L212.673 19.9287C210.438 22.4242 208.554 25.2062 207.071 28.1971L206.892 28.5586L200.919 25.5972C198.744 30.0874 197.362 34.8913 196.809 39.8873L203.441 40.5654L203.4 40.9664C203.061 44.3076 203.17 47.6656 203.725 50.9471L203.793 51.3448L197.219 52.4563C198.098 57.3818 199.804 62.0831 202.293 66.4425L208.052 63.0852L208.255 63.4338C209.938 66.3206 212.003 68.9714 214.393 71.313L214.681 71.5954L210.015 76.3572C213.633 79.8384 217.772 82.6438 222.33 84.7041L225.02 78.6049L225.389 78.7677C228.436 80.1117 231.664 81.04 234.985 81.5272L235.384 81.5858L234.416 88.1819ZM240.448 63.3974C239.806 63.3974 239.161 63.3647 238.514 63.2985C228.271 62.2513 220.79 53.0658 221.837 42.8227C222.884 32.5798 232.069 25.0983 242.313 26.1457C252.556 27.193 260.037 36.3785 258.99 46.6215C258.482 51.5835 256.073 56.0509 252.206 59.2007C248.843 61.9398 244.727 63.3974 240.448 63.3974ZM240.4 26.8549C231.358 26.8549 223.579 33.7189 222.639 42.905C221.637 52.7055 228.795 61.494 238.596 62.4961C243.344 62.9816 247.996 61.589 251.696 58.5754C255.396 55.5616 257.702 51.2872 258.187 46.5397C259.189 36.7393 252.031 27.9506 242.231 26.9487C241.616 26.8856 241.005 26.8549 240.4 26.8549Z" fill="#0C0C0C"/>
<path d="M237.575 72.4783C230.161 71.7202 223.486 68.1205 218.78 62.3419C214.073 56.5635 211.899 49.298 212.657 41.8842C213.415 34.4703 217.015 27.7953 222.793 23.0888C228.572 18.3823 235.837 16.2079 243.251 16.966C250.665 17.7241 257.34 21.3239 262.047 27.1024C266.753 32.8808 268.927 40.1463 268.169 47.5602C267.411 54.974 263.812 61.649 258.033 66.3555C252.255 71.062 244.989 73.2364 237.575 72.4783ZM243.211 17.3555C235.901 16.6081 228.738 18.752 223.041 23.3925C217.343 28.0328 213.794 34.6141 213.047 41.924C212.299 49.2338 214.443 56.3973 219.083 62.0947C223.724 67.7922 230.305 71.3414 237.615 72.0888C244.925 72.8362 252.088 70.6922 257.786 66.0518C263.483 61.4115 267.032 54.8302 267.78 47.5203C268.527 40.2103 266.383 33.047 261.743 27.3496C257.103 21.6523 250.521 18.1029 243.211 17.3555Z" fill="#0C0C0C"/>
<path d="M241.398 96.4338L244.947 92.9238C241.873 89.8146 237.973 87.7287 233.668 86.8912C233.648 86.8873 233.628 86.8834 233.609 86.8797L232.674 91.7831C230.991 91.46 229.319 91.4012 227.699 91.5783L227.157 86.6167C222.813 87.0919 218.754 88.8493 215.417 91.6992L218.659 95.4951C217.4 96.5708 216.296 97.8357 215.395 99.258L211.178 96.5879C209.732 98.8718 208.735 101.384 208.216 104.056C207.903 105.665 207.772 107.306 207.826 108.932L212.815 108.767C212.871 110.46 213.185 112.108 213.725 113.664L209.009 115.3C210.445 119.437 213.058 123.004 216.565 125.616L219.546 121.613C220.863 122.593 222.339 123.389 223.943 123.954L222.282 128.662C223.286 129.016 224.329 129.3 225.381 129.504C228.626 130.135 231.883 130.029 235.06 129.189L233.785 124.363C235.407 123.934 236.947 123.263 238.356 122.386L240.996 126.623C244.723 124.302 247.623 120.96 249.385 116.96L244.816 114.949C245.309 113.829 245.687 112.638 245.93 111.386C246.011 110.971 246.075 110.556 246.124 110.142L251.081 110.729C251.595 106.379 250.792 102.026 248.759 98.1418L244.336 100.457C243.563 98.9793 242.573 97.6219 241.398 96.4338ZM227.974 116.168C223.572 115.313 220.696 111.05 221.552 106.648C222.408 102.246 226.67 99.3708 231.072 100.226C235.474 101.082 238.35 105.344 237.494 109.747C236.638 114.149 232.376 117.024 227.974 116.168Z" fill="#0C0C0C"/>
<path d="M239.46 113.932C236.266 119.393 229.225 121.236 223.765 118.042C218.304 114.848 216.461 107.807 219.655 102.347C222.849 96.8867 229.89 95.0431 235.35 98.2371C240.81 101.431 242.654 108.472 239.46 113.932ZM220.013 102.556C216.934 107.819 218.711 114.605 223.974 117.684C229.237 120.762 236.023 118.986 239.101 113.723C242.18 108.46 240.403 101.674 235.14 98.5954C229.878 95.5167 223.092 97.2936 220.013 102.556Z" fill="#0C0C0C"/>
<path d="M120.26 146.192L123.81 142.682C120.735 139.572 116.835 137.486 112.53 136.649C112.51 136.645 112.49 136.641 112.471 136.638L111.536 141.541C109.854 141.218 108.181 141.159 106.562 141.336L106.019 136.375C101.675 136.85 97.6158 138.607 94.2793 141.457L97.5214 145.253C96.2621 146.329 95.1578 147.594 94.2574 149.016L90.0398 146.346C88.5938 148.63 87.5974 151.142 87.0781 153.814C86.7654 155.423 86.6342 157.064 86.6881 158.69L91.6768 158.525C91.733 160.218 92.0473 161.865 92.5874 163.422L87.8715 165.058C89.307 169.194 91.9197 172.761 95.4272 175.373L98.4086 171.37C99.7252 172.351 101.201 173.147 102.805 173.712L101.144 178.42C102.149 178.774 103.192 179.058 104.244 179.262C107.489 179.893 110.745 179.786 113.923 178.946L112.647 174.121C114.27 173.692 115.809 173.021 117.219 172.143L119.858 176.381C123.585 174.059 126.486 170.718 128.247 166.718L123.678 164.707C124.171 163.587 124.549 162.396 124.792 161.144C124.873 160.729 124.937 160.314 124.986 159.9L129.943 160.486C130.457 156.137 129.654 151.784 127.621 147.899L123.198 150.214C122.425 148.737 121.435 147.38 120.26 146.192ZM106.836 165.926C102.434 165.071 99.5583 160.808 100.414 156.406C101.27 152.004 105.532 149.129 109.934 149.984C114.336 150.84 117.212 155.102 116.356 159.504C115.5 163.907 111.238 166.782 106.836 165.926Z" fill="white"/>
<path d="M108.413 180.071C107 180.071 105.582 179.933 104.167 179.658C103.095 179.45 102.033 179.161 101.01 178.8L100.629 178.666L102.292 173.954C100.943 173.442 99.6687 172.764 98.494 171.931L95.5099 175.938L95.1863 175.697C91.6139 173.037 88.9527 169.404 87.4906 165.191L87.3582 164.81L92.0786 163.171C91.6378 161.798 91.3738 160.378 91.292 158.941L86.2984 159.107L86.285 158.704C86.2301 157.047 86.3637 155.376 86.6821 153.737C87.2111 151.016 88.2261 148.456 89.699 146.13L89.9147 145.789L94.1363 148.462C94.9341 147.265 95.8802 146.175 96.9559 145.212L93.7107 141.412L94.0174 141.15C97.4157 138.248 101.551 136.458 105.975 135.973L106.376 135.93L106.919 140.896C108.348 140.774 109.789 140.834 111.215 141.073L112.15 136.167L112.603 136.252C116.992 137.106 120.965 139.231 124.097 142.398L124.38 142.685L120.827 146.198C121.815 147.245 122.667 148.411 123.365 149.672L127.792 147.355L127.979 147.712C130.05 151.669 130.868 156.103 130.344 160.533L130.297 160.934L125.335 160.347C125.293 160.641 125.244 160.933 125.188 161.221C124.97 162.344 124.64 163.445 124.206 164.498L128.779 166.511L128.616 166.881C126.822 170.955 123.867 174.359 120.071 176.723L119.729 176.936L117.087 172.695C115.844 173.43 114.519 174.003 113.139 174.403L114.416 179.233L114.026 179.336C112.175 179.826 110.299 180.071 108.413 180.071ZM101.66 178.17C102.527 178.458 103.421 178.691 104.321 178.866C107.373 179.459 110.435 179.389 113.429 178.656L112.154 173.834L112.544 173.731C114.115 173.316 115.616 172.666 117.005 171.801L117.347 171.588L119.985 175.822C123.366 173.628 126.026 170.565 127.711 166.924L123.146 164.913L123.309 164.544C123.797 163.434 124.163 162.265 124.396 161.067C124.473 160.668 124.537 160.26 124.585 159.853L124.633 159.452L129.586 160.038C129.983 156.037 129.247 152.046 127.447 148.446L123.027 150.759L122.84 150.402C122.084 148.956 121.119 147.635 119.973 146.475L119.689 146.189L123.236 142.681C120.347 139.867 116.749 137.949 112.79 137.114L111.857 142.014L111.46 141.937C109.851 141.628 108.217 141.561 106.605 141.738L106.204 141.781L105.662 136.823C101.683 137.334 97.961 138.946 94.8502 141.505L98.0901 145.298L97.7833 145.56C96.54 146.622 95.4684 147.857 94.598 149.232L94.3823 149.573L90.1679 146.905C88.8636 149.053 87.9579 151.402 87.4739 153.891C87.1928 155.337 87.0612 156.81 87.0817 158.274L92.0665 158.108L92.0799 158.511C92.134 160.139 92.433 161.747 92.9684 163.289L93.1007 163.671L88.3884 165.306C89.7766 169.078 92.1722 172.349 95.3467 174.806L98.3258 170.806L98.6494 171.047C99.9559 172.02 101.399 172.789 102.939 173.332L103.319 173.466L101.66 178.17ZM108.403 166.482C107.857 166.482 107.307 166.429 106.759 166.322C104.524 165.888 102.592 164.609 101.319 162.722C100.046 160.834 99.5838 158.564 100.018 156.329C100.453 154.094 101.731 152.162 103.619 150.889C105.506 149.616 107.776 149.154 110.011 149.589C114.625 150.485 117.649 154.968 116.752 159.582C116.318 161.817 115.039 163.749 113.151 165.022C111.727 165.983 110.084 166.482 108.403 166.482ZM108.369 150.237C106.847 150.237 105.36 150.688 104.07 151.558C102.361 152.711 101.203 154.46 100.81 156.483C99.9982 160.66 102.736 164.719 106.913 165.53C108.936 165.924 110.991 165.505 112.7 164.353C114.409 163.2 115.567 161.451 115.96 159.428C116.772 155.251 114.034 151.192 109.857 150.381C109.361 150.284 108.863 150.237 108.369 150.237Z" fill="#0C0C0C"/>
<path d="M118.322 163.69C115.128 169.15 108.087 170.994 102.627 167.8C97.1664 164.606 95.3229 157.565 98.5169 152.105C101.711 146.645 108.752 144.801 114.212 147.995C119.672 151.189 121.516 158.23 118.322 163.69ZM98.8751 152.314C95.7965 157.577 97.5734 164.363 102.836 167.442C108.099 170.52 114.885 168.743 117.964 163.481C121.042 158.218 119.265 151.432 114.003 148.353C108.74 145.275 101.954 147.051 98.8751 152.314Z" fill="#0C0C0C"/>
<path d="M208.802 146.734C211.165 141.977 212.639 136.865 213.184 131.54L213.191 131.472L206.556 130.805C206.903 127.358 206.773 123.974 206.22 120.716L212.794 119.599C211.902 114.35 210.084 109.349 207.389 104.734L201.631 108.097C199.926 105.178 197.835 102.5 195.421 100.138L200.085 95.3711C196.265 91.6341 191.858 88.6521 186.986 86.5078L184.3 92.611C181.269 91.2773 178.017 90.3278 174.597 89.8287L175.561 83.2302C174.927 83.1378 174.282 83.0577 173.643 82.9924C168.98 82.5157 164.312 82.7724 159.768 83.7555L161.178 90.2728C157.841 90.9946 154.654 92.1638 151.69 93.7197L148.591 87.8152C143.876 90.2901 139.684 93.5575 136.13 97.5268L141.098 101.974C138.862 104.473 136.95 107.279 135.435 110.333L129.461 107.371C127.107 112.119 125.638 117.22 125.094 122.534L125.091 122.562L131.725 123.24C131.375 126.687 131.503 130.071 132.054 133.329L125.479 134.441C126.366 139.691 128.181 144.694 130.872 149.31L136.633 145.952C138.335 148.873 140.424 151.552 142.837 153.916L138.17 158.679C141.986 162.419 146.391 165.404 151.261 167.552L153.952 161.452C156.981 162.788 160.233 163.739 163.652 164.241L162.684 170.839C163.329 170.934 163.985 171.015 164.636 171.082C169.287 171.557 173.944 171.303 178.477 170.326L177.072 163.808C180.409 163.088 183.597 161.922 186.563 160.368L189.657 166.275C194.374 163.803 198.569 160.539 202.125 156.573L197.161 152.121C199.399 149.625 201.313 146.82 202.83 143.767L208.802 146.734ZM167.281 145.212C157.243 144.185 149.938 135.216 150.964 125.178C151.99 115.14 160.96 107.835 170.997 108.861C181.035 109.888 188.34 118.857 187.314 128.895C186.288 138.933 177.318 146.238 167.281 145.212Z" fill="#DBFC4F"/>
<path d="M166.301 154.793C158.887 154.035 152.212 150.435 147.506 144.656C142.799 138.878 140.625 131.612 141.383 124.199C142.141 116.785 145.741 110.11 151.519 105.403C157.298 100.697 164.563 98.5223 171.977 99.2804C179.391 100.039 186.066 103.638 190.773 109.417C195.479 115.195 197.653 122.461 196.895 129.875C196.137 137.289 192.537 143.964 186.759 148.67C180.98 153.376 173.715 155.551 166.301 154.793ZM171.937 99.67C164.627 98.9225 157.464 101.066 151.766 105.707C146.069 110.347 142.52 116.929 141.772 124.238C141.025 131.548 143.169 138.712 147.809 144.409C152.45 150.106 159.031 153.656 166.341 154.403C173.651 155.151 180.814 153.007 186.512 148.366C192.209 143.726 195.758 137.145 196.506 129.835C197.253 122.525 195.109 115.361 190.469 109.664C185.828 103.967 179.247 100.417 171.937 99.67Z" fill="#0C0C0C"/>
<path d="M390.05 518.862H235.093C224.186 518.862 216.301 509.938 217.571 499.032L258.294 149.308C259.564 138.402 269.527 129.478 280.434 129.478H435.391C446.298 129.478 454.183 138.402 452.912 149.308L412.19 499.032C410.92 509.938 400.957 518.862 390.05 518.862Z" fill="#008080"/>
<path d="M444.126 184.469L440.922 184.404C440.658 184.398 440.487 184.028 440.543 183.58L442.124 170.897C442.18 170.45 442.442 170.088 442.706 170.094L445.91 170.159C446.174 170.165 446.345 170.535 446.289 170.983L444.708 183.666C444.652 184.113 444.39 184.475 444.126 184.469Z" fill="white"/>
<path d="M441.922 202.009L438.718 201.943C438.454 201.937 438.283 201.567 438.339 201.12L439.92 188.437C439.976 187.989 440.238 187.628 440.502 187.633L443.706 187.699C443.97 187.704 444.141 188.075 444.085 188.522L442.504 201.205C442.448 201.652 442.186 202.014 441.922 202.009Z" fill="white"/>
<path d="M375.332 518.862H220.374C209.467 518.862 201.583 509.938 202.853 499.032L243.576 149.308C244.846 138.402 254.808 129.478 265.715 129.478H420.673C431.579 129.478 439.464 138.402 438.194 149.308L397.471 499.032C396.201 509.938 386.238 518.862 375.332 518.862Z" fill="white"/>
<path d="M375.332 519.153H220.374C215.04 519.153 210.245 517.067 206.872 513.278C203.467 509.454 201.937 504.382 202.564 498.998L243.286 149.275C244.576 138.198 254.638 129.187 265.715 129.187H420.673C426.007 129.187 430.802 131.273 434.175 135.062C437.58 138.887 439.111 143.958 438.484 149.342L397.761 499.065C396.471 510.142 386.409 519.153 375.332 519.153ZM265.715 129.77C260.512 129.77 255.366 131.812 251.226 135.521C247.085 139.23 244.471 144.138 243.865 149.343L203.142 499.065C202.535 504.282 204.014 509.192 207.307 512.891C210.568 516.553 215.209 518.57 220.374 518.57H375.332C380.535 518.57 385.68 516.528 389.821 512.82C393.961 509.111 396.576 504.202 397.182 498.998L437.904 149.275C438.512 144.058 437.033 139.148 433.74 135.45C430.479 131.787 425.838 129.77 420.673 129.77H265.715Z" fill="#008080"/>
<path d="M383.123 477.749H222.157C217.464 477.749 214.071 473.91 214.618 469.217L251.068 156.189C251.614 151.496 255.901 147.656 260.594 147.656H421.56C426.253 147.656 429.646 151.496 429.099 156.189L392.649 469.217C392.103 473.91 387.816 477.749 383.123 477.749Z" fill="white"/>
<path d="M383.123 478.04H222.157C219.814 478.04 217.707 477.123 216.224 475.457C214.726 473.775 214.053 471.547 214.329 469.182L250.779 156.155C251.343 151.308 255.746 147.364 260.594 147.364H421.56C423.903 147.364 426.011 148.282 427.494 149.948C428.991 151.63 429.664 153.858 429.389 156.222L392.939 469.25C392.374 474.097 387.971 478.04 383.123 478.04ZM260.594 147.947C256.033 147.947 251.889 151.659 251.357 156.222L214.907 469.25C214.652 471.447 215.274 473.513 216.659 475.069C218.03 476.609 219.983 477.457 222.157 477.457H383.123C387.685 477.457 391.828 473.745 392.36 469.182L428.81 156.155C429.066 153.958 428.444 151.891 427.059 150.335C425.687 148.795 423.734 147.947 421.56 147.947L260.594 147.947Z" fill="#008080"/>
<path d="M359.877 142.722H323.736C322.55 142.722 321.692 141.751 321.83 140.565C321.968 139.378 323.052 138.407 324.239 138.407H360.379C361.566 138.407 362.424 139.378 362.285 140.565C362.147 141.751 361.064 142.722 359.877 142.722Z" fill="#008080"/>
<path d="M359.867 142.81H323.726C322.488 142.81 321.598 141.803 321.743 140.565C321.887 139.327 323.011 138.32 324.249 138.32H360.39C361.628 138.32 362.518 139.327 362.374 140.565C362.229 141.803 361.105 142.81 359.867 142.81ZM324.229 138.496C323.088 138.496 322.051 139.424 321.919 140.565C321.786 141.706 322.606 142.634 323.747 142.634H359.887C361.028 142.634 362.065 141.706 362.197 140.565C362.33 139.424 361.51 138.496 360.369 138.496H324.229Z" fill="#008080"/>
<path d="M319.5 499.269H283.359C282.172 499.269 281.315 498.299 281.453 497.112C281.591 495.926 282.675 494.955 283.861 494.955H320.002C321.189 494.955 322.046 495.926 321.908 497.112C321.77 498.299 320.686 499.269 319.5 499.269Z" fill="#008080"/>
<path d="M259.721 167.152H255.364L256.175 160.186H260.532L259.721 167.152Z" fill="#008080"/>
<path d="M266.567 167.152H262.21L263.423 156.742H267.779L266.567 167.152Z" fill="#008080"/>
<path d="M273.413 167.152H269.057L270.91 151.235H275.267L273.413 167.152Z" fill="#008080"/>
<path d="M398.552 167.152H394.368L395.294 159.193H399.478L398.552 167.152Z" fill="#008080"/>
<path d="M403.572 167.152H399.388L400.315 159.193H404.499L403.572 167.152Z" fill="#008080"/>
<path d="M408.593 167.152H404.409L405.336 159.193H409.52L408.593 167.152Z" fill="#008080"/>
<path d="M413.614 167.152H409.43L410.356 159.193H414.54L413.614 167.152Z" fill="#008080"/>
<path d="M418.635 167.152H414.451L415.377 159.193H419.561L418.635 167.152Z" fill="#008080"/>
<g opacity="0.5">
<path d="M384.482 471.814H222.309C219.491 471.814 217.473 469.53 217.801 466.712L251.417 178.022C251.745 175.205 254.296 172.92 257.113 172.92H419.286C422.103 172.92 424.122 175.205 423.793 178.022L390.177 466.712C389.849 469.53 387.299 471.814 384.482 471.814Z" fill="#008080"/>
</g>
<path d="M302.002 297.128H265.331L266.416 289.368H303.087L302.002 297.128Z" fill="#008080"/>
<path d="M397.144 297.128H360.473L361.558 289.368H398.228L397.144 297.128Z" fill="#008080"/>
<path d="M358.563 297.128H303.912L304.997 289.368H359.648L358.563 297.128Z" fill="#008080"/>
<path d="M294.361 350.475H257.69L258.775 342.715H295.446L294.361 350.475Z" fill="#008080"/>
<path d="M389.503 350.475H352.832L353.917 342.715H390.588L389.503 350.475Z" fill="#008080"/>
<path d="M350.922 350.475H296.271L297.356 342.715H352.007L350.922 350.475Z" fill="#008080"/>
<path d="M349.573 384.48H312.902L313.987 376.72H350.658L349.573 384.48Z" fill="#008080"/>
<path d="M386.161 372.876H349.491L350.575 365.116H387.246L386.161 372.876Z" fill="#008080"/>
<path d="M347.58 372.876H292.929L294.014 365.116H348.665L347.58 372.876Z" fill="#008080"/>
<path d="M358.193 328.738H321.523L322.607 320.978H359.278L358.193 328.738Z" fill="#008080"/>
<path d="M366.539 318.201H311.888L312.973 310.441H367.624L366.539 318.201Z" fill="#008080"/>
<path d="M314.645 307.665H263.859L264.943 299.905H315.729L314.645 307.665Z" fill="#008080"/>
<path d="M353.271 307.665H316.407L317.492 299.905H354.356L353.271 307.665Z" fill="#008080"/>
<path d="M285.856 403.915H249.185L250.27 396.155H286.941L285.856 403.915Z" fill="#008080"/>
<path d="M380.998 403.915H344.327L345.412 396.155H382.083L380.998 403.915Z" fill="#008080"/>
<path d="M342.417 403.915H287.766L288.851 396.155H343.502L342.417 403.915Z" fill="#008080"/>
<path d="M350.394 424.988H295.742L296.827 417.228H351.478L350.394 424.988Z" fill="#008080"/>
<path d="M298.499 414.452H247.713L248.797 406.692H299.583L298.499 414.452Z" fill="#008080"/>
<path d="M337.126 414.451H300.262L301.346 406.691H338.21L337.126 414.451Z" fill="#008080"/>
<path d="M310.226 339.275H259.44L260.525 331.515H311.311L310.226 339.275Z" fill="#008080"/>
<path d="M348.853 339.275H311.989L313.074 331.515H349.938L348.853 339.275Z" fill="#008080"/>
<path d="M306.785 361.676H255.999L257.084 353.916H307.87L306.785 361.676Z" fill="#008080"/>
<path d="M345.412 361.676H308.548L309.633 353.916H346.496L345.412 361.676Z" fill="#008080"/>
<path d="M254.465 303.221C254.589 302.281 254.329 301.562 253.686 301.064C253.043 300.567 252.046 300.318 250.695 300.318L251.204 296.443C252.566 296.443 253.629 296.205 254.395 295.73C255.16 295.254 255.601 294.573 255.717 293.687L255.734 293.557L256.411 288.4C256.628 286.746 257.306 285.582 258.443 284.906C259.58 284.231 261.468 283.893 264.105 283.893L263.626 287.541C262.552 287.573 261.787 287.779 261.332 288.157C260.877 288.536 260.601 289.092 260.505 289.827L259.868 294.676C259.536 296.708 258.114 297.908 255.601 298.275L255.575 298.47C258.055 298.849 259.169 299.994 258.918 301.908L258.899 302.054L258.262 306.902C258.166 307.637 258.292 308.194 258.643 308.572C258.993 308.95 259.706 309.156 260.783 309.188L260.302 312.853C257.664 312.853 255.865 312.515 254.906 311.839C253.946 311.164 253.575 309.993 253.794 308.329L254.465 303.221Z" fill="#008080"/>
<path d="M386.877 333.803C386.716 335.142 386.35 336.153 385.778 336.834C385.206 337.516 384.336 338.015 383.168 338.332C382 338.649 380.417 338.808 378.42 338.808L378.906 334.754C380.093 334.73 380.935 334.514 381.432 334.108C381.929 333.701 382.229 333.073 382.33 332.224L382.973 326.861L382.996 326.664C383.12 325.635 383.572 324.801 384.355 324.161C385.137 323.522 386.228 323.1 387.627 322.897L387.653 322.681C384.987 322.275 383.753 320.947 383.951 318.699L384.593 313.336C384.693 312.499 384.546 311.877 384.153 311.47C383.759 311.064 382.966 310.842 381.775 310.807L382.258 306.771C384.255 306.771 385.803 306.929 386.901 307.246C387.999 307.563 388.749 308.065 389.151 308.753C389.553 309.44 389.675 310.442 389.518 311.757L388.834 317.462L388.813 317.641C388.692 318.645 388.97 319.399 389.645 319.901C390.32 320.404 391.453 320.655 393.044 320.655L392.53 324.942C391.035 324.942 389.867 325.187 389.025 325.677C388.183 326.168 387.692 326.993 387.553 328.153L386.877 333.803Z" fill="#008080"/>
<path d="M430.374 117.434C427.224 107.991 419.44 105.111 419.44 105.111C419.44 105.111 413.047 88.6071 410.627 89.0049C408.5 89.3546 411.595 100.078 412.798 105.115C411.324 100.181 407.056 89.8391 404.844 90.6727C401.548 91.9153 406.547 108.915 406.547 108.915C406.547 108.915 401.552 94.3354 398.509 95.7272C395.99 96.8795 397.756 101.353 401.059 110.025C397.503 107.615 391.878 104.303 390.833 106.681C389.545 109.609 401.266 118.845 405.278 121.893C410.692 138.284 417.733 160.701 430.765 158.178C436.116 157.143 432.651 124.261 430.374 117.434Z" fill="white"/>
<path d="M428.745 158.781C423.765 158.781 419.29 155.189 415.118 147.868C411.087 140.793 408.013 131.471 405.3 123.246L404.935 122.139C402.862 120.561 399.012 117.545 395.793 114.537C393.099 112.02 389.615 108.45 390.464 106.519C390.676 106.036 391.062 105.701 391.58 105.552C393.13 105.106 396.039 106.263 400.234 108.993C397.104 100.772 395.601 96.6144 398.342 95.3609C398.736 95.1803 399.164 95.1865 399.612 95.379C400.965 95.9604 402.611 98.4089 404.505 102.657C404.53 102.713 404.555 102.769 404.579 102.825C404.4 102.018 404.224 101.179 404.063 100.336C403.572 97.7536 403.321 95.6384 403.316 94.049C403.31 91.8774 403.763 90.6495 404.702 90.2957C405.031 90.1719 405.387 90.2034 405.761 90.3889C407.251 91.1273 409.137 94.6214 410.692 98.2438C409.651 93.7581 409.087 90.2616 409.859 89.083C410.033 88.8189 410.275 88.6543 410.562 88.6073C411.404 88.4674 412.823 89.2668 416.307 96.7386C417.979 100.325 419.435 103.992 419.752 104.802C420.287 105.024 421.988 105.801 423.981 107.419C426.157 109.187 429.099 112.337 430.757 117.307C431.849 120.58 433.102 129.199 433.673 137.355C434.088 143.277 434.473 153.742 432.392 157.304C431.967 158.03 431.446 158.458 430.842 158.575C430.133 158.712 429.434 158.781 428.745 158.781ZM392.311 106.264C392.12 106.264 391.951 106.285 391.803 106.328C391.511 106.412 391.32 106.576 391.202 106.843C390.432 108.597 396.053 114.378 405.523 121.572L405.622 121.648L406.067 122.994C408.767 131.183 411.828 140.464 415.819 147.469C419.834 154.514 424.088 157.97 428.771 157.971C429.402 157.971 430.041 157.908 430.689 157.783C431.054 157.712 431.393 157.414 431.695 156.896C435.014 151.216 432.117 123.936 429.991 117.562C426.944 108.426 419.376 105.518 419.3 105.489L419.13 105.426L419.064 105.257C419.048 105.216 417.447 101.094 415.574 97.0765C412.006 89.4267 410.818 89.3838 410.692 89.4035C410.649 89.4106 410.596 89.4306 410.534 89.5255C409.635 90.8961 411.458 98.1185 412.548 102.434C412.786 103.377 413.01 104.267 413.19 105.021L412.412 105.231C410.89 100.136 407.403 92.103 405.403 91.112C405.153 90.9881 405.028 91.0352 404.986 91.0509C404.462 91.2484 403.401 92.5338 404.856 100.185C405.68 104.521 406.922 108.76 406.934 108.802L406.165 109.047C405.051 105.794 401.644 97.1303 399.293 96.1204C399.057 96.0188 398.861 96.0104 398.677 96.0948C396.553 97.0664 398.216 101.432 401.235 109.357L401.891 111.078L400.832 110.36C396.938 107.719 393.897 106.264 392.311 106.264Z" fill="#0C0C0C"/>
<path d="M456.425 109.398H265.965L277.337 29.915H467.797L456.425 109.398Z" fill="white"/>
<path d="M456.774 109.801H265.5L276.987 29.5115H468.262L456.774 109.801ZM266.43 108.994H456.075L467.331 30.3183H277.687L266.43 108.994Z" fill="#0C0C0C"/>
<path d="M327.983 79.5195H291.312L292.397 71.7595H329.067L327.983 79.5195Z" fill="#BFC2C4"/>
<path d="M423.124 79.5195H386.454L387.539 71.7595H424.209L423.124 79.5195Z" fill="#BFC2C4"/>
<path d="M384.544 79.5195H329.893L330.977 71.7595H385.628L384.544 79.5195Z" fill="#BFC2C4"/>
<path d="M335.784 100.593H288.366L289.451 92.833H336.869L335.784 100.593Z" fill="#BFC2C4"/>
<path d="M392.52 100.593H337.869L338.954 92.833H393.605L392.52 100.593Z" fill="#BFC2C4"/>
<path d="M340.625 90.0564H289.839L290.924 82.2964H341.71L340.625 90.0564Z" fill="#BFC2C4"/>
<path d="M403.316 90.0564H380.95L382.035 82.2964H404.401L403.316 90.0564Z" fill="#BFC2C4"/>
<path d="M379.252 90.0564H342.388L343.473 82.2964H380.337L379.252 90.0564Z" fill="#BFC2C4"/>
<path d="M279.244 91.0246C279.367 90.0841 279.108 89.3653 278.465 88.8679C277.822 88.3708 276.825 88.1221 275.474 88.1221L275.983 84.2466C277.345 84.2466 278.408 84.0089 279.174 83.5331C279.939 83.0575 280.38 82.3766 280.496 81.49L280.513 81.3603L281.19 76.2039C281.408 74.5499 282.085 73.3854 283.222 72.7096C284.359 72.0341 286.247 71.696 288.885 71.696L288.405 75.3445C287.331 75.3769 286.566 75.5823 286.111 75.9606C285.656 76.3391 285.38 76.8957 285.284 77.6307L284.647 82.479C284.315 84.5114 282.893 85.7113 280.38 86.0788L280.355 86.2734C282.834 86.6519 283.949 87.7976 283.697 89.7109L283.678 89.8568L283.041 94.7051C282.945 95.4401 283.072 95.9968 283.422 96.3752C283.772 96.7535 284.486 96.9589 285.563 96.9913L285.081 100.656C282.444 100.656 280.645 100.318 279.685 99.6424C278.725 98.9666 278.355 97.7964 278.573 96.1319L279.244 91.0246Z" fill="#0C0C0C"/>
<path d="M298.654 59.2361L281.111 50.8389L281.599 48.0973L302.329 38.5881L301.51 43.1893L287.315 49.2667L299.47 54.654L298.654 59.2361Z" fill="#0C0C0C"/>
<path d="M320.665 35.0991L305.228 63.1281H299.917L315.355 35.0991H320.665Z" fill="#0C0C0C"/>
<path d="M319.063 54.6545L333.135 49.2672L321.104 43.1898L321.923 38.5886L339.267 48.0978L338.779 50.8394L318.247 59.2366L319.063 54.6545Z" fill="#0C0C0C"/>
<path d="M431.741 126.278C431.741 126.278 438.214 117.557 426.471 99.6466C418.792 87.9343 414.532 90.4653 420.519 100.767C422.333 103.887 421.488 108.115 420.75 109.544C418.618 113.675 418.693 121.54 421.835 124.313C424.976 127.085 431.741 126.278 431.741 126.278Z" fill="white"/>
<path d="M429.519 126.791C429.038 126.791 428.503 126.777 427.938 126.738C425.082 126.539 422.939 125.825 421.568 124.615C418.277 121.711 418.169 113.665 420.392 109.36C421.131 107.927 421.853 103.866 420.17 100.97C417.367 96.1472 416.536 92.5891 418 91.6842C419.639 90.6717 423.014 93.6385 426.809 99.4258C430.189 104.581 434.165 112.282 433.913 119.693C433.76 124.186 432.134 126.426 432.065 126.519L431.961 126.658L431.789 126.679C431.737 126.685 430.825 126.791 429.519 126.791ZM418.737 92.293C418.611 92.293 418.506 92.32 418.424 92.3703C418.13 92.5523 417.938 93.2614 418.281 94.7061C418.652 96.2644 419.546 98.2901 420.868 100.565C422.729 103.766 421.943 108.114 421.109 109.73C419.033 113.751 419.141 121.398 422.101 124.01C424.79 126.383 430.422 125.996 431.51 125.896C431.849 125.351 432.999 123.244 433.109 119.59C433.324 112.41 429.435 104.902 426.134 99.868C422.409 94.1878 419.799 92.293 418.737 92.293Z" fill="#0C0C0C"/>
<path d="M514.069 209.017C514.069 209.017 461.758 217.365 443.053 212.121C437.183 210.475 429.206 206.031 425.616 195.745C417.167 171.535 405.096 134.349 405.096 134.349C403.553 126.18 421.245 118.326 433.213 119.997C439.633 135.605 445.288 158.38 453.069 176.365C454.893 180.581 488.835 166.455 503.485 158.374" fill="white"/>
<path d="M461.032 214.265C453.168 214.265 447.119 213.68 442.944 212.509C438.016 211.127 429.162 207.13 425.235 195.878C416.881 171.94 404.833 134.845 404.712 134.473L404.699 134.424C404.284 132.227 405.163 129.913 407.241 127.733C409.751 125.1 413.995 122.701 418.886 121.15C423.914 119.556 429.022 119.004 433.269 119.597L433.498 119.629L433.586 119.843C436.518 126.971 439.264 135.508 442.171 144.546C445.633 155.307 449.212 166.434 453.439 176.204C453.506 176.361 453.673 176.485 453.934 176.575C456.216 177.354 464.029 175.254 475.37 170.813C485.119 166.995 496.34 161.855 503.29 158.021L503.68 158.727C496.702 162.576 485.443 167.735 475.664 171.564C469.673 173.911 459.691 177.53 455.145 177.53C454.556 177.53 454.059 177.47 453.674 177.338C453.188 177.172 452.86 176.899 452.698 176.525C448.456 166.718 444.871 155.572 441.403 144.793C438.53 135.861 435.815 127.42 432.928 120.365C424.57 119.294 412.9 122.965 407.825 128.29C405.942 130.265 405.134 132.325 405.487 134.249C405.86 135.396 417.736 171.941 425.997 195.612C429.803 206.518 438.385 210.393 443.162 211.732C461.567 216.892 513.483 208.702 514.005 208.618L514.132 209.415C514.002 209.436 500.865 211.521 485.613 212.937C476.076 213.822 467.868 214.265 461.032 214.265Z" fill="#0C0C0C"/>
<path d="M405.504 476.525C405.504 476.525 357.663 500.9 355.558 506.092C353.454 511.284 354.187 513.332 356.533 513.267L442.188 510.904C443.581 510.865 444.651 509.626 444.476 508.252L439.125 466.035C438.936 464.542 437.388 463.648 435.976 464.216L405.908 476.315C405.767 476.372 405.632 476.442 405.504 476.525Z" fill="#0C0C0C"/>
<path d="M354.379 510.512L353.999 519.044L444.738 518.354L444.476 508.252L354.379 510.512Z" fill="white"/>
<path d="M353.577 519.451L353.993 510.118L444.869 507.838L445.152 518.754L353.577 519.451ZM354.765 510.906L354.421 518.638L444.324 517.954L444.083 508.665L354.765 510.906Z" fill="#0C0C0C"/>
<path d="M368.139 513.672L368.018 512.225C376.444 511.521 384.195 509.619 391.058 506.569C396.537 504.134 401.466 500.966 405.708 497.153C412.91 490.679 415.645 484.544 415.672 484.483L417.002 485.065C416.888 485.327 414.113 491.551 406.678 498.233C402.324 502.148 397.266 505.399 391.647 507.896C384.636 511.012 376.727 512.955 368.139 513.672Z" fill="white"/>
<path d="M370.134 510.117L369.327 510.118L369.337 519.035L370.143 519.034L370.134 510.117Z" fill="#0C0C0C"/>
<path d="M388.768 509.687L387.961 509.688L387.973 519.059L388.78 519.058L388.768 509.687Z" fill="#0C0C0C"/>
<path d="M407.467 509.091L406.661 509.092L406.674 518.604L407.481 518.603L407.467 509.091Z" fill="#0C0C0C"/>
<path d="M426.126 508.722H425.32V518.499H426.126V508.722Z" fill="#0C0C0C"/>
<path d="M444.903 504.642L509.236 267.394C516.315 244.334 484.259 263.368 460.664 258.919L385.404 485.86C395.072 494.321 433.215 509.132 444.903 504.642Z" fill="white"/>
<path d="M439.28 505.876C437.177 505.876 434.736 505.647 431.969 505.189C426.871 504.345 420.748 502.72 414.265 500.489C401.888 496.231 389.911 490.34 385.138 486.164L384.936 485.988L385.02 485.733L460.392 258.457L460.738 258.523C469.715 260.215 479.847 258.496 488.786 256.978C498.493 255.331 506.16 254.03 509.261 257.561C510.964 259.501 511.081 262.756 509.621 267.513L445.239 504.945L445.048 505.018C443.559 505.59 441.63 505.876 439.28 505.876ZM385.871 485.731C390.705 489.835 402.411 495.558 414.527 499.726C428.452 504.517 439.373 506.19 444.568 504.336L508.846 267.288C510.221 262.808 510.158 259.805 508.655 258.093C505.852 254.9 498.006 256.232 488.922 257.774C480.03 259.283 469.966 260.991 460.936 259.379L385.871 485.731Z" fill="#0C0C0C"/>
<path opacity="0.5" d="M436.874 387.18C448.624 336.672 488.109 209.237 508.438 198.15C524.863 189.192 481.892 394.959 464.066 433.974C459.829 443.247 430.867 413.001 436.874 387.18Z" fill="#008080"/>
<path d="M550.955 441.632C550.955 441.632 560.125 492.741 564.265 496.197C568.405 499.653 570.461 499.581 571.036 497.406L592.055 418.006C592.397 416.715 591.562 415.369 590.269 415.126L550.533 407.662C549.128 407.398 547.898 408.559 548.031 410.022L550.874 441.199C550.888 441.346 550.915 441.491 550.955 441.632Z" fill="#0C0C0C"/>
<path d="M567.955 498.577L575.59 501.429L599.502 417.848L590.269 415.126L567.955 498.577Z" fill="white"/>
<path d="M575.858 501.959L567.471 498.827L567.566 498.473L589.986 414.622L600 417.574L599.89 417.959L575.858 501.959ZM568.44 498.327L575.323 500.898L599.004 418.122L590.552 415.63L568.44 498.327Z" fill="#0C0C0C"/>
<path d="M550.954 442.359C550.638 442.359 550.347 442.15 550.256 441.831C550.204 441.646 550.168 441.455 550.151 441.265C550.115 440.865 550.409 440.512 550.809 440.476C551.207 440.44 551.561 440.734 551.597 441.134C551.607 441.234 551.625 441.335 551.653 441.433C551.763 441.819 551.54 442.221 551.154 442.33C551.087 442.35 551.02 442.359 550.954 442.359Z" fill="white"/>
<path d="M567.955 499.303C567.862 499.303 567.767 499.285 567.676 499.247C567.614 499.221 566.124 498.591 563.815 496.767C563.11 496.21 560.966 494.517 555.314 467.813C552.544 454.728 550.262 441.887 550.24 441.759C550.17 441.364 550.433 440.987 550.828 440.917C551.223 440.847 551.6 441.111 551.67 441.505C551.692 441.633 553.971 454.454 556.736 467.515C558.358 475.178 559.827 481.422 561.102 486.072C563.22 493.794 564.334 495.327 564.715 495.627C566.848 497.312 568.223 497.902 568.236 497.907C568.605 498.063 568.779 498.488 568.624 498.857C568.507 499.135 568.238 499.303 567.955 499.303Z" fill="white"/>
<path d="M570.301 486.318L570.071 487.091L578.616 489.639L578.846 488.866L570.301 486.318Z" fill="#0C0C0C"/>
<path d="M575.249 468.29L575.018 469.063L583.999 471.738L584.229 470.965L575.249 468.29Z" fill="#0C0C0C"/>
<path d="M580.01 450.219L579.779 450.992L588.895 453.707L589.125 452.933L580.01 450.219Z" fill="#0C0C0C"/>
<path d="M585.037 432.209L584.806 432.982L594.175 435.777L594.405 435.004L585.037 432.209Z" fill="#0C0C0C"/>
<path d="M575.042 475.131C575.039 475.131 575.037 475.131 575.034 475.131C574.633 475.126 574.311 474.798 574.315 474.397C574.414 464.963 571.849 457.44 566.899 452.641C563.167 449.022 559.345 448.186 559.307 448.178C558.915 448.096 558.663 447.712 558.745 447.32C558.826 446.928 559.209 446.675 559.601 446.756C559.772 446.791 563.811 447.659 567.844 451.534C570.199 453.798 572.063 456.626 573.385 459.939C575.023 464.047 575.825 468.917 575.768 474.412C575.764 474.81 575.439 475.131 575.042 475.131Z" fill="white"/>
<path d="M580.181 411.396C580.181 411.396 507.8 386.373 512.542 367.784C517.284 349.196 540.905 261.25 540.905 261.25C535.591 237.721 516.234 242.627 490.074 238.358C490.074 238.358 454.815 345.768 447.819 383.437C441.557 417.153 548.675 467.145 548.675 467.145C561.269 469.683 580.562 429.012 580.181 411.396Z" fill="white"/>
<path d="M549.831 467.662C549.411 467.662 548.999 467.622 548.595 467.54L548.548 467.531L548.504 467.51C548.236 467.385 521.402 454.81 495.68 438.273C480.561 428.554 468.774 419.384 460.646 411.021C450.418 400.495 445.968 391.19 447.422 383.363C454.343 346.098 489.339 239.306 489.691 238.232L489.799 237.904L490.139 237.96C495.98 238.913 501.365 239.398 506.573 239.866C524.301 241.46 537.11 242.612 541.299 261.162L541.321 261.259L541.295 261.355C541.059 262.235 517.62 349.511 512.933 367.884C510.551 377.223 528.923 388.435 544.755 396.196C562.036 404.667 580.132 410.952 580.313 411.015L580.579 411.107L580.585 411.387C580.732 418.209 577.969 428.776 573.195 439.654C568.334 450.727 562.257 459.995 556.937 464.445C554.381 466.584 551.997 467.662 549.831 467.662ZM548.801 466.759C551.022 467.185 553.584 466.199 556.419 463.827C561.648 459.452 567.643 450.294 572.456 439.329C577.121 428.703 579.848 418.403 579.782 411.684C577.468 410.87 560.582 404.852 544.406 396.923C534.217 391.929 526.293 387.162 520.856 382.754C513.956 377.161 511.027 372.091 512.151 367.685C516.77 349.58 539.586 264.61 540.49 261.242C538.608 253 534.836 247.796 528.625 244.871C522.82 242.137 515.258 241.457 506.501 240.669C501.619 240.23 496.098 239.734 490.351 238.811C488.193 245.407 454.935 347.327 448.215 383.51C446.813 391.064 451.189 400.13 461.223 410.457C469.306 418.775 481.044 427.905 496.111 437.591C521.297 453.783 547.554 466.173 548.801 466.759Z" fill="#0C0C0C"/>
<path d="M463.363 376.972C463.363 376.972 461.662 387.861 470.509 397.388L463.363 376.972Z" fill="white"/>
<path d="M470.214 397.663C465.576 392.669 463.851 387.3 463.221 383.676C462.537 379.743 462.947 377.023 462.965 376.909L463.762 377.034C463.758 377.06 463.354 379.76 464.022 383.571C464.636 387.078 466.312 392.276 470.805 397.114L470.214 397.663Z" fill="#0C0C0C"/>
<path d="M531.909 300.589C531.909 300.589 551.714 221.308 557.45 186.142C563.186 150.976 531.767 148.287 515.754 153.438C508.163 155.881 492.405 160.777 486.602 177.697C463.232 245.839 447.301 294.196 447.301 294.196C473.775 311.228 506.431 319.894 531.909 300.589Z" fill="white"/>
<path d="M498.647 311.991C495.806 311.991 492.9 311.801 489.927 311.419C476.358 309.677 461.543 303.838 447.083 294.536L446.82 294.367L446.918 294.07C447.077 293.586 463.117 244.932 486.22 177.566C492.024 160.643 507.795 155.573 515.374 153.137L515.631 153.054C520.912 151.355 527.265 150.676 533.059 151.192C540.04 151.814 546.003 154.099 550.303 157.8C553.617 160.652 555.965 164.34 557.279 168.76C558.742 173.678 558.934 179.548 557.848 186.207C552.175 220.987 532.498 299.893 532.3 300.686L532.266 300.824L532.153 300.91C522.427 308.279 511.186 311.991 498.647 311.991ZM447.782 294.026C462.058 303.166 476.661 308.902 490.03 310.619C505.852 312.65 519.821 309.196 531.552 300.353C532.49 296.587 551.496 220.135 557.051 186.077C558.118 179.539 557.934 173.791 556.506 168.99C555.236 164.721 552.972 161.161 549.777 158.412C543.465 152.979 530.164 149.226 515.878 153.822L515.621 153.905C511.807 155.131 506.042 156.984 500.541 160.598C493.99 164.902 489.428 170.699 486.984 177.828C464.822 242.446 449.161 289.846 447.782 294.026Z" fill="#0C0C0C"/>
<path d="M533.736 152.824L526.157 136.624L512.816 139.379L515.754 153.438L510.251 164.934C510.251 164.934 532.128 155.856 533.736 152.824Z" fill="white"/>
<path d="M509.432 165.711L515.332 153.387L512.338 139.065L526.387 136.164L534.186 152.835L534.092 153.013C533.373 154.368 529.274 156.779 521.561 160.382C515.948 163.004 510.46 165.284 510.406 165.307L509.432 165.711ZM513.293 139.692L516.177 153.489L511.072 164.153C517.549 161.425 531.525 155.19 533.277 152.795L525.926 137.083L513.293 139.692Z" fill="#0C0C0C"/>
<path d="M507.698 117.582C510.845 112.443 512.865 118.858 519.727 117.621C524.998 116.67 529.553 118.974 530.914 126.406C532.334 134.166 521.839 144.025 519.64 141.802C517.441 139.58 517.46 135.996 519.683 133.797C520.802 132.69 514.814 133.079 512.615 130.857C510.417 128.634 503.97 123.668 507.698 117.582Z" fill="#DBFC4F"/>
<path d="M517.804 124.317C521.051 124.175 523.954 126.57 525.363 130.128C526.588 130.196 527.615 131.593 527.692 133.356C527.758 134.865 527.107 136.17 526.157 136.624C525.563 141.303 519.456 147.608 515.641 147.775C511.226 147.968 510.515 140.783 510.264 135.049C510.013 129.315 513.389 124.51 517.804 124.317Z" fill="white"/>
<path d="M515.466 148.182C513.404 148.182 511.904 146.693 511.005 143.752C510.219 141.182 509.986 137.919 509.861 135.066C509.601 129.119 513.156 124.116 517.786 123.914C521.04 123.773 524.099 126.058 525.647 129.756C526.981 129.996 528.014 131.479 528.095 133.339C528.163 134.885 527.539 136.275 526.527 136.882C525.774 141.63 519.68 148.002 515.658 148.178C515.594 148.181 515.53 148.182 515.466 148.182ZM517.821 124.72C513.636 124.903 510.427 129.528 510.667 135.031C510.782 137.669 511.013 141.018 511.777 143.516C512.594 146.188 513.851 147.448 515.623 147.372C519.33 147.21 525.201 140.953 525.756 136.573L525.784 136.355L525.983 136.26C526.809 135.865 527.346 134.678 527.289 133.374C527.222 131.836 526.366 130.587 525.341 130.53L525.083 130.516L524.988 130.276C523.6 126.772 520.784 124.593 517.821 124.72Z" fill="#0C0C0C"/>
<path d="M526.727 130.236C526.727 130.236 517.316 133.937 510.845 123.668C510.845 123.668 522.075 118.271 524.287 122.723C526.499 127.175 526.727 130.236 526.727 130.236Z" fill="#DBFC4F"/>
<path d="M517.529 141.535C517.529 141.535 514.363 142.318 513.266 141.535C513.266 141.535 512.963 143.449 515.039 143.536C517.115 143.622 517.529 141.535 517.529 141.535Z" fill="white"/>
<path d="M531.045 146.318L537.736 153.449L513.995 177.19L510.251 164.934C520.419 160.481 528.366 154.826 531.045 146.318Z" fill="white"/>
<path d="M513.806 177.95L509.76 164.709L510.089 164.565C521.791 159.44 528.328 153.603 530.661 146.197L530.868 145.539L538.297 153.458L538.021 153.734L513.806 177.95ZM510.741 165.159L514.185 176.429L537.174 153.44L531.214 147.088C528.663 154.355 522.13 160.117 510.741 165.159Z" fill="#0C0C0C"/>
<path d="M515.754 153.438L515.005 149.854L502.429 175.015L510.251 164.934L515.754 153.438Z" fill="white"/>
<path d="M502.748 175.263L502.068 174.835L515.162 148.636L516.177 153.489L510.596 165.147L510.569 165.181L502.748 175.263ZM514.847 151.071L504.621 171.532L509.906 164.721L515.332 153.387L514.847 151.071Z" fill="#0C0C0C"/>
<path d="M511.98 170.592L506.561 190.321L501.82 189.538" fill="white"/>
<path d="M506.854 190.778L501.755 189.936L501.886 189.14L506.268 189.863L511.59 170.485L512.369 170.699L506.854 190.778Z" fill="#0C0C0C"/>
<path d="M507.091 174.016C507.091 174.568 507.539 175.016 508.092 175.016C508.644 175.016 509.092 174.568 509.092 174.016C509.092 173.463 508.644 173.015 508.092 173.015C507.539 173.015 507.091 173.463 507.091 174.016Z" fill="white"/>
<path d="M508.092 175.419C507.318 175.419 506.688 174.789 506.688 174.015C506.688 173.242 507.318 172.612 508.092 172.612C508.866 172.612 509.495 173.242 509.495 174.015C509.495 174.789 508.866 175.419 508.092 175.419ZM508.092 173.419C507.763 173.419 507.495 173.687 507.495 174.015C507.495 174.344 507.763 174.612 508.092 174.612C508.421 174.612 508.688 174.344 508.688 174.015C508.688 173.686 508.421 173.419 508.092 173.419Z" fill="#0C0C0C"/>
<path d="M505.361 179.2C505.361 179.752 505.809 180.2 506.361 180.2C506.913 180.2 507.361 179.752 507.361 179.2C507.361 178.648 506.913 178.2 506.361 178.2C505.809 178.2 505.361 178.648 505.361 179.2Z" fill="white"/>
<path d="M506.361 180.604C505.587 180.604 504.958 179.974 504.958 179.2C504.958 178.426 505.587 177.797 506.361 177.797C507.135 177.797 507.764 178.426 507.764 179.2C507.764 179.974 507.135 180.604 506.361 180.604ZM506.361 178.604C506.032 178.604 505.764 178.871 505.764 179.2C505.764 179.529 506.032 179.797 506.361 179.797C506.69 179.797 506.958 179.529 506.958 179.2C506.958 178.871 506.69 178.604 506.361 178.604Z" fill="#0C0C0C"/>
<path d="M503.361 185.541C503.361 186.094 503.809 186.541 504.361 186.541C504.913 186.541 505.361 186.094 505.361 185.541C505.361 184.989 504.913 184.541 504.361 184.541C503.808 184.541 503.361 184.989 503.361 185.541Z" fill="white"/>
<path d="M504.361 186.945C503.587 186.945 502.957 186.315 502.957 185.541C502.957 184.767 503.587 184.138 504.361 184.138C505.135 184.138 505.764 184.767 505.764 185.541C505.764 186.315 505.135 186.945 504.361 186.945ZM504.361 184.945C504.032 184.945 503.764 185.212 503.764 185.541C503.764 185.87 504.032 186.138 504.361 186.138C504.69 186.138 504.958 185.87 504.958 185.541C504.958 185.212 504.69 184.945 504.361 184.945Z" fill="#0C0C0C"/>
<path opacity="0.5" d="M485.774 222.094C461.4 226.287 435.105 220.451 438.84 237.781C446.928 275.308 525.975 250.467 535.844 218.496C545.648 186.736 510.147 217.901 485.774 222.094Z" fill="#008080"/>
<path d="M355.876 197.866L384.369 206.696L375.281 217.001L357.996 206.726L355.876 197.866Z" fill="white"/>
<path d="M375.362 217.519L357.643 206.985L355.319 197.271L385.084 206.495L375.362 217.519ZM358.348 206.466L375.2 216.483L383.654 206.896L356.434 198.461L358.348 206.466Z" fill="#0C0C0C"/>
<path d="M348.962 259.988H158.503L172.102 164.121H362.561L348.962 259.988Z" fill="white"/>
<path d="M349.312 260.392H158.038L158.103 259.932L171.752 163.718H363.026L349.312 260.392ZM158.967 259.585H348.612L362.096 164.524H172.452L158.967 259.585Z" fill="#0C0C0C"/>
<path d="M223.855 188.739H187.185L188.269 180.979H224.94L223.855 188.739Z" fill="#BFC2C4"/>
<path d="M318.997 188.739H282.326L283.411 180.979H320.082L318.997 188.739Z" fill="#BFC2C4"/>
<path d="M280.416 188.739H225.765L226.85 180.979H281.501L280.416 188.739Z" fill="#BFC2C4"/>
<path d="M241.471 220.349H182.766L183.851 212.59H242.555L241.471 220.349Z" fill="#BFC2C4"/>
<path d="M280.046 220.349H243.376L244.461 212.59H281.131L280.046 220.349Z" fill="#BFC2C4"/>
<path d="M231.657 209.813H184.239L185.324 202.053H232.742L231.657 209.813Z" fill="#BFC2C4"/>
<path d="M288.393 209.813H233.742L234.826 202.053H289.477L288.393 209.813Z" fill="#BFC2C4"/>
<path d="M236.498 199.276H185.712L186.796 191.516H237.583L236.498 199.276Z" fill="#BFC2C4"/>
<path d="M299.189 199.276H276.823L277.908 191.516H300.274L299.189 199.276Z" fill="#BFC2C4"/>
<path d="M275.125 199.276H238.261L239.345 191.516H276.209L275.125 199.276Z" fill="#BFC2C4"/>
<path d="M232.079 230.886H181.293L182.378 223.126H233.164L232.079 230.886Z" fill="#BFC2C4"/>
<path d="M294.771 230.886H272.404L273.489 223.126H295.855L294.771 230.886Z" fill="#BFC2C4"/>
<path d="M270.706 230.886H233.842L234.927 223.126H271.791L270.706 230.886Z" fill="#BFC2C4"/>
<path d="M176.318 194.833C176.442 193.892 176.182 193.173 175.539 192.676C174.896 192.179 173.899 191.93 172.548 191.93L173.057 188.055C174.419 188.055 175.483 187.817 176.248 187.341C177.013 186.866 177.454 186.185 177.57 185.298L177.587 185.168L178.264 180.012C178.482 178.358 179.159 177.193 180.296 176.518C181.433 175.842 183.321 175.504 185.959 175.504L185.48 179.153C184.405 179.185 183.64 179.39 183.185 179.769C182.73 180.147 182.454 180.704 182.358 181.439L181.721 186.287C181.389 188.32 179.967 189.519 177.454 189.887L177.428 190.081C179.908 190.46 181.023 191.606 180.771 193.519L180.752 193.665L180.115 198.513C180.019 199.248 180.146 199.805 180.496 200.183C180.846 200.562 181.56 200.767 182.636 200.799L182.155 204.464C179.517 204.464 177.719 204.126 176.759 203.451C175.799 202.775 175.429 201.605 175.647 199.94L176.318 194.833Z" fill="#0C0C0C"/>
<path d="M308.73 225.415C308.57 226.754 308.203 227.764 307.632 228.446C307.059 229.128 306.19 229.627 305.021 229.944C303.853 230.261 302.271 230.419 300.274 230.419L300.76 226.365C301.946 226.341 302.788 226.126 303.286 225.72C303.783 225.313 304.082 224.685 304.184 223.836L304.826 218.473L304.85 218.275C304.973 217.247 305.426 216.413 306.208 215.773C306.99 215.134 308.081 214.712 309.481 214.509L309.507 214.293C306.841 213.887 305.607 212.559 305.804 210.311L306.447 204.948C306.547 204.111 306.4 203.489 306.006 203.082C305.613 202.676 304.82 202.454 303.628 202.418L304.112 198.382C306.109 198.382 307.657 198.541 308.755 198.858C309.853 199.175 310.603 199.677 311.005 200.365C311.407 201.052 311.529 202.054 311.371 203.369L310.688 209.073L310.666 209.253C310.546 210.257 310.823 211.011 311.499 211.513C312.174 212.015 313.307 212.266 314.897 212.266L314.384 216.554C312.889 216.554 311.72 216.799 310.878 217.289C310.036 217.78 309.546 218.605 309.407 219.765L308.73 225.415Z" fill="#0C0C0C"/>
<path d="M410.117 225.658C407.032 207.289 369.885 200.961 349.854 200.983C335.356 200.999 327.744 202.242 327.473 206.029C327.187 210.022 345.616 209.513 345.616 209.513C345.616 209.513 324.474 211.03 324.462 215.244C324.448 219.801 345.482 216.988 345.482 216.988C345.482 216.988 324.211 218.351 325.014 222.422C325.582 225.3 346.751 225.554 346.751 225.554C346.751 225.554 331.299 228.295 331.698 230.906C332.124 233.693 353.239 233.07 365.139 232.646C373.741 232.339 411.197 232.088 410.117 225.658Z" fill="white"/>
<path d="M348.265 233.423C346.84 233.423 345.448 233.411 344.107 233.383C333.112 233.158 331.463 232.035 331.299 230.967C331.169 230.112 331.822 228.757 338.972 226.861C340.426 226.475 341.895 226.135 343.155 225.862C341.183 225.791 338.624 225.671 336.064 225.469C332.933 225.222 330.411 224.903 328.568 224.52C326.007 223.989 324.789 223.365 324.618 222.5C324.526 222.032 324.645 221.579 324.972 221.155C325.833 220.036 328.305 219.059 332.337 218.241C328.398 218.169 325.852 217.644 324.747 216.674C324.288 216.271 324.057 215.79 324.058 215.242C324.064 213.242 327.635 211.658 334.975 210.4C336.272 210.178 337.572 209.987 338.797 209.826C334.376 209.607 329.169 208.994 327.601 207.356C327.214 206.951 327.035 206.495 327.071 206C327.218 203.945 329.237 202.537 333.246 201.697C336.841 200.943 342.118 200.588 349.854 200.579C359.231 200.572 373.765 201.998 386.463 206.039C396.471 209.225 408.769 215.204 410.515 225.591C410.617 226.2 410.446 226.779 410.007 227.312C406.171 231.968 380.784 232.632 368.584 232.95C367.21 232.986 366.023 233.017 365.153 233.048C359.795 233.24 353.785 233.423 348.265 233.423ZM338.723 218.049C333.246 218.737 326.939 219.922 325.611 221.647C325.427 221.886 325.363 222.107 325.41 222.344C325.459 222.594 326.208 223.882 336.124 224.665C341.413 225.082 346.703 225.15 346.756 225.15L346.822 225.951C346.784 225.958 342.928 226.646 339.174 227.642C332.252 229.478 332.064 230.632 332.097 230.845C332.114 230.959 332.36 231.555 335.488 232.014C337.513 232.312 340.419 232.501 344.124 232.577C350.635 232.71 358.394 232.483 365.125 232.242C365.998 232.211 367.187 232.18 368.563 232.144C378.742 231.878 405.783 231.172 409.385 226.799C409.672 226.45 409.782 226.099 409.719 225.725C408.042 215.739 396.013 209.926 386.218 206.809C373.655 202.81 359.271 201.387 349.956 201.387C349.922 201.387 349.889 201.387 349.855 201.387C339.151 201.399 328.168 201.963 327.875 206.058C327.857 206.32 327.958 206.562 328.184 206.798C330.32 209.03 341.484 209.224 345.605 209.11L345.645 209.916C345.592 209.92 340.314 210.305 335.107 211.197C328.602 212.312 324.869 213.787 324.865 215.245C324.864 215.553 324.999 215.822 325.279 216.068C327.015 217.591 333.277 217.597 338.662 217.244C342.372 216.786 345.42 216.588 345.456 216.586L345.535 217.388C345.499 217.392 342.457 217.796 338.723 218.049Z" fill="#0C0C0C"/>
<path d="M528.843 168.059C528.843 168.059 496.103 189.287 452.986 199.289C416.313 207.796 379.822 202.133 379.822 202.133C365.919 206.091 371.376 237.88 382.817 237.88C382.817 237.88 435.837 240.855 463.232 234.705C509.092 224.41 547.236 209.018 547.236 209.018L528.843 168.059Z" fill="white"/>
<path d="M524.899 170.156C524.899 170.156 496.103 189.287 452.986 199.289C416.313 207.796 379.822 202.133 379.822 202.133C365.919 206.091 371.376 237.88 382.818 237.88C382.818 237.88 435.837 240.855 463.232 234.705C509.092 224.41 539.904 211.487 539.904 211.487" fill="white"/>
<path d="M411.939 239.003C396.024 239.003 383.259 238.308 382.806 238.283C380.033 238.279 377.449 236.535 375.336 233.24C373.447 230.295 372.078 226.311 371.479 222.023C370.84 217.439 371.154 212.976 372.364 209.458C373.766 205.381 376.307 202.714 379.712 201.745L379.797 201.721L379.884 201.734C379.975 201.748 389.149 203.151 402.676 203.498C415.155 203.818 433.997 203.279 452.895 198.896C475.124 193.739 493.456 186.109 504.921 180.615C517.345 174.662 524.604 169.867 524.676 169.819L525.123 170.491C525.051 170.539 517.756 175.359 505.286 181.335C493.782 186.848 475.386 194.507 453.078 199.681C434.092 204.085 415.17 204.626 402.641 204.304C389.779 203.973 380.832 202.691 379.849 202.545C373.034 204.554 371.133 213.705 372.278 221.911C373.705 232.13 378.66 237.476 382.817 237.476L382.84 237.477C382.972 237.484 396.283 238.223 412.756 238.195C427.952 238.172 449.029 237.48 463.144 234.311C508.439 224.142 539.44 211.244 539.748 211.115L540.06 211.859C539.752 211.988 508.69 224.913 463.321 235.098C449.133 238.283 427.991 238.979 412.752 239.002C412.481 239.003 412.208 239.003 411.939 239.003Z" fill="#0C0C0C"/>
<path d="M114.733 318.579C113.565 310.262 109.028 295.896 86.4018 300.867C64.7761 305.619 67.4204 333.614 49.7947 350.354C32.1691 367.094 -2.79193 365.171 5.16574 410.688C14.5539 464.388 104.429 420.942 104.429 420.942C104.429 420.942 117.017 334.855 114.733 318.579Z" fill="#0C0C0C"/>
<path d="M40.9755 438.006C35.7675 436.764 29.565 432.621 24.3837 426.922C18.5833 420.543 14.9257 413.189 14.0843 406.216C13.0819 397.907 15.5928 386.101 33.2475 377.04C59.7088 363.459 63.8796 351.001 69.6519 333.759C70.8426 330.202 72.0738 326.524 73.5856 322.557C76.4892 314.938 80.5946 309.447 85.7877 306.238C91.2795 302.845 96.3201 303.069 98.8359 303.505C103.142 304.251 106.305 306.602 106.357 309.095L105.389 309.115C105.344 306.921 101.937 305.025 98.6706 304.459C90.8931 303.111 80.4557 307.248 74.4904 322.902C72.9857 326.851 71.7575 330.519 70.57 334.066C64.7248 351.526 60.5016 364.141 33.6894 377.901C24.2186 382.762 13.2962 391.6 15.0456 406.1C15.8629 412.875 19.4337 420.039 25.1002 426.271C30.0799 431.748 36.2492 435.883 41.2001 437.064L40.9755 438.006Z" fill="white"/>
<path d="M55.4557 436.684C49.5466 434.573 35.9085 422.079 35.5769 409.409C35.4761 405.555 36.6316 402.026 39.0114 398.919C41.6841 395.429 45.9296 392.454 51.6304 390.074C62.2977 385.621 70.6048 377.149 76.3211 364.892C81.9312 352.863 83.6843 340.197 84.1673 331.691C84.8326 319.97 87.8602 312.414 93.166 309.234C98.5277 306.02 104.138 308.555 104.375 308.665L103.967 309.543L104.171 309.104L103.968 309.543C103.915 309.519 98.5698 307.116 93.6539 310.07C88.6461 313.08 85.7796 320.373 85.134 331.746C84.6462 340.337 82.8738 353.133 77.1987 365.301C71.3774 377.783 62.9004 386.419 52.0037 390.967C41.5406 395.335 36.3395 401.531 36.5451 409.384C36.6826 414.64 39.3782 420.659 44.1351 426.33C47.1813 429.962 52.1253 434.466 55.7817 435.772L55.4557 436.684Z" fill="white"/>
<path d="M175.182 367.794C166.898 361.3 178.803 343.339 184.226 333.403C188.151 326.212 190.825 322.769 192.777 323.658C194.836 324.595 189.605 333.605 189.605 333.605C189.605 333.605 196.07 323.521 198.164 324.653C200.43 325.878 193.351 335.557 193.351 335.557C193.351 335.557 199.774 325.368 201.578 326.867C202.853 327.926 197.259 338.502 197.259 338.502C197.259 338.502 202.795 331.573 203.983 332.476C205.251 333.441 199.237 343.753 195.811 349.544C193.335 353.731 178.081 370.067 175.182 367.794Z" fill="white"/>
<path d="M175.89 368.494C175.491 368.494 175.154 368.387 174.883 368.175C171.488 365.513 170.945 360.916 173.224 354.121C175.123 348.461 178.694 342.189 181.564 337.15C182.373 335.729 183.137 334.387 183.801 333.171C188.247 325.026 190.82 322.235 192.978 323.217C193.297 323.362 193.528 323.634 193.646 324.002C193.942 324.931 193.46 326.625 192.759 328.354C196.322 323.852 197.682 323.841 198.395 324.227C198.73 324.408 198.956 324.719 199.047 325.125C199.2 325.802 198.946 326.809 198.478 327.941C199.386 327.018 200.247 326.357 200.921 326.25C201.388 326.176 201.704 326.342 201.888 326.494C202.448 326.96 202.649 328.104 200.339 333.279C200.04 333.949 199.731 334.613 199.433 335.236C199.562 335.096 199.693 334.956 199.824 334.817C201.571 332.971 203.32 331.364 204.276 332.091C205.334 332.895 204.356 336.05 196.228 349.79C193.81 353.879 181.03 367.572 176.388 368.445C176.213 368.477 176.047 368.494 175.89 368.494ZM175.481 367.413C175.628 367.529 175.874 367.556 176.209 367.493C178.065 367.144 181.84 364.237 186.567 359.518C190.377 355.715 194.254 351.225 195.395 349.297C197.244 346.171 199.36 342.544 201.031 339.354C203.618 334.415 203.721 333.172 203.671 332.883C203.464 332.917 202.635 333.223 200.329 335.694C198.909 337.216 197.65 338.788 197.638 338.804C197.482 338.999 197.203 339.043 196.994 338.907C196.785 338.77 196.715 338.496 196.831 338.275C200.333 331.655 201.535 327.787 201.255 327.228C201.229 327.21 201.18 327.19 201.073 327.206C200.02 327.374 197.899 329.886 196.022 332.478C194.964 334.156 193.982 335.514 193.742 335.843C193.588 336.053 193.294 336.104 193.079 335.958C192.863 335.811 192.802 335.52 192.941 335.299C193.159 334.953 194.05 333.556 195.201 331.959C196.864 329.308 198.353 326.446 198.103 325.338C198.065 325.168 197.993 325.11 197.934 325.079C197.837 325.027 196.886 324.689 193.483 328.999C191.641 331.333 190.028 333.841 190.012 333.866C189.87 334.087 189.577 334.155 189.353 334.018C189.128 333.881 189.054 333.589 189.186 333.362C190.79 330.598 193.169 325.694 192.723 324.297C192.674 324.143 192.606 324.112 192.577 324.098C190.622 323.208 187.118 329.115 184.651 333.635C183.983 334.859 183.217 336.204 182.406 337.629C179.557 342.632 176.011 348.859 174.142 354.429C172.009 360.787 172.447 365.034 175.481 367.413Z" fill="#0C0C0C"/>
<path d="M107.163 359.06C107.163 359.06 145.685 386.369 159.49 393.21C173.434 400.12 196.535 350.372 196.535 350.372C197.578 344.85 188.053 337.131 179.963 338.261C173.516 349.684 163.824 372.519 156.897 368.291C143.675 360.223 109.852 334.855 109.852 334.855" fill="white"/>
<path d="M162.314 394.351C161.243 394.351 160.227 394.115 159.275 393.643C145.594 386.864 107.269 359.728 106.883 359.455L107.443 358.665C107.828 358.938 146.091 386.03 159.705 392.776C161.237 393.535 162.981 393.58 164.889 392.909C178.068 388.277 195.292 351.883 196.07 350.223C196.388 348.386 195.409 346.115 193.376 343.982C190.542 341.008 185.261 338.123 180.266 338.709C179.065 340.85 177.752 343.378 176.365 346.049C171.109 356.17 165.152 367.642 159.827 369.126C158.693 369.442 157.622 369.3 156.645 368.704C143.555 360.716 109.9 335.496 109.562 335.243L110.143 334.468C110.481 334.722 144.099 359.914 157.149 367.878C157.899 368.335 158.69 368.439 159.567 368.194C164.486 366.822 170.596 355.057 175.506 345.603C176.943 342.836 178.3 340.222 179.542 338.023L179.659 337.814L179.896 337.781C185.327 337.021 190.931 340.014 194.077 343.314C196.349 345.698 197.419 348.303 197.011 350.461L197 350.521L196.975 350.575C196.93 350.671 192.464 360.254 186.37 370.305C178.148 383.865 171.029 391.777 165.21 393.822C164.207 394.175 163.24 394.351 162.314 394.351Z" fill="#0C0C0C"/>
<path d="M594.744 519.068H0V520.036H594.744V519.068Z" fill="#0C0C0C"/>
<path d="M72.8826 507.12C72.8826 507.12 37.9942 521.573 34.2528 520.396C30.5116 519.218 29.7488 517.931 30.8543 516.725L71.2094 472.683C71.8655 471.967 73.0175 471.95 73.6739 472.646L93.8445 494.041C94.5578 494.798 94.3303 496.006 93.3817 496.5L73.1792 507C73.0846 507.049 72.9852 507.089 72.8826 507.12Z" fill="#0C0C0C"/>
<path d="M34.8019 520.78C34.5384 520.78 34.3212 520.755 34.1559 520.703C31.7008 519.931 30.3789 519.076 30.1147 518.092C29.9718 517.559 30.1407 517.026 30.6164 516.506L70.9715 472.465C71.348 472.054 71.8881 471.816 72.453 471.812C73.0105 471.807 73.538 472.031 73.9087 472.424L94.0792 493.82C94.4816 494.247 94.6567 494.821 94.5594 495.395C94.4584 495.991 94.0834 496.498 93.5304 496.786L73.3279 507.286C73.2204 507.342 73.1073 507.388 72.9916 507.424C72.5855 507.592 64.0009 511.138 55.0846 514.501C50.8218 516.109 38.4379 520.78 34.8019 520.78ZM72.4675 472.457C72.4641 472.457 72.4611 472.457 72.4575 472.457C72.0714 472.46 71.7031 472.622 71.4474 472.901L31.0923 516.943C30.7708 517.294 30.655 517.615 30.7381 517.925C30.8754 518.436 31.6133 519.227 34.3496 520.088C34.4792 520.128 34.6525 520.148 34.8651 520.148C39.5389 520.149 63.5062 510.655 72.7589 506.822L72.7894 506.811C72.8725 506.786 72.9537 506.753 73.0305 506.714L93.2328 496.213C93.6046 496.02 93.8562 495.683 93.9231 495.287C93.9862 494.914 93.872 494.541 93.6098 494.263L73.4393 472.867C73.1932 472.606 72.8395 472.457 72.4675 472.457Z" fill="#0C0C0C"/>
<path d="M31.3469 519.071L26.6035 515.516L68.3823 468.062L73.6739 472.646L31.3469 519.071Z" fill="white"/>
<path d="M31.4086 519.722L25.894 515.589L68.3363 467.382L74.3661 472.605L31.4086 519.722ZM27.313 515.443L31.2855 518.42L72.9816 472.687L68.4283 468.742L27.313 515.443Z" fill="#0C0C0C"/>
<path d="M43.423 519.045C43.0773 519.045 42.7709 518.797 42.7088 518.445L41.6576 512.492C41.5879 512.097 41.8516 511.721 42.2464 511.651C42.641 511.58 43.0181 511.845 43.0878 512.24L44.1389 518.193C44.2086 518.587 43.945 518.964 43.5501 519.034C43.5075 519.042 43.4649 519.045 43.423 519.045Z" fill="white"/>
<path d="M47.5789 517.946C47.2333 517.946 46.927 517.698 46.8647 517.346L45.5525 509.914C45.4828 509.519 45.7465 509.142 46.1413 509.072C46.5358 509.003 46.913 509.266 46.9827 509.661L48.2949 517.093C48.3646 517.488 48.1009 517.864 47.7061 517.934C47.6633 517.942 47.6207 517.946 47.5789 517.946Z" fill="white"/>
<path d="M52.1084 516.131C51.7626 516.131 51.4564 515.883 51.3942 515.531L49.8314 506.679C49.7617 506.285 50.0254 505.908 50.4202 505.838C50.8146 505.768 51.1917 506.032 51.2616 506.427L52.8246 515.278C52.8943 515.673 52.6306 516.05 52.2358 516.12C52.1928 516.127 52.1504 516.131 52.1084 516.131Z" fill="white"/>
<path d="M72.8822 507.847C72.5702 507.847 72.2818 507.644 72.1872 507.33C72.0717 506.946 72.2892 506.541 72.6733 506.425C72.7325 506.407 72.7901 506.384 72.8448 506.355C73.2009 506.171 73.639 506.31 73.8238 506.665C74.0087 507.021 73.8699 507.46 73.514 507.644C73.3796 507.714 73.2376 507.772 73.0922 507.816C73.0221 507.837 72.9516 507.847 72.8822 507.847Z" fill="white"/>
<path d="M74.0381 471.409C74.0381 471.409 115.461 474.242 129.392 475.429C101.392 469.026 87.7576 444.669 87.7576 444.669C100.284 432.387 123.782 413.616 140.424 405.709C140.424 405.709 175.412 457.676 189.134 481.281C200.089 500.127 189.645 520.475 161.895 520.475C121.558 520.475 63.4595 519.071 63.4595 519.071C54.7623 515.655 66.8585 482.024 74.0381 471.409Z" fill="white"/>
<path d="M161.895 520.959C122.014 520.959 64.0288 519.569 63.4479 519.555L63.3622 519.552L63.2825 519.521C61.968 519.005 61.0295 517.866 60.4928 516.137C58.7078 510.386 61.6961 499.471 63.6361 493.477C66.4399 484.814 70.459 475.836 73.6369 471.137L73.793 470.907L74.0708 470.926C74.4418 470.951 107.494 473.214 124.292 474.529C119.631 473.031 115.117 470.956 110.822 468.334C106.175 465.497 101.771 462.017 97.7326 457.99C90.8559 451.132 87.3692 444.966 87.3348 444.905L87.1539 444.582L87.4182 444.323C94.0879 437.783 103.14 430.07 112.255 423.162C119.683 417.532 130.564 409.858 140.216 405.271L140.592 405.092L140.825 405.438C141.175 405.958 175.979 457.689 189.552 481.038C194.834 490.125 195.333 499.735 190.92 507.404C188.561 511.504 184.818 514.892 180.096 517.203C175.005 519.695 168.881 520.959 161.895 520.959ZM63.5599 518.589C66.1621 518.651 122.753 519.991 161.895 519.991C168.732 519.991 174.713 518.76 179.671 516.334C184.219 514.108 187.819 510.853 190.081 506.921C194.317 499.561 193.819 490.304 188.715 481.524C175.743 459.209 143.335 410.908 140.256 406.326C124.704 413.826 101.822 431.618 88.3663 444.75C89.166 446.086 92.5338 451.443 98.4391 457.327C102.422 461.296 106.764 464.724 111.343 467.518C117.062 471.006 123.171 473.509 129.5 474.956L129.351 475.91C116.182 474.789 77.9454 472.162 74.2845 471.911C68.2396 481.041 58.5944 506.754 61.4176 515.85C61.8515 517.249 62.5722 518.17 63.5599 518.589Z" fill="#0C0C0C"/>
<path d="M128.835 474.899L128.783 475.866L155.607 477.316L155.659 476.35L128.835 474.899Z" fill="#0C0C0C"/>
<path opacity="0.5" d="M104.171 459.071C104.171 459.071 158.449 462.465 183.312 502.471C195.385 521.896 199.984 497.865 196.614 485.528C190.913 464.658 170.465 431.839 170.465 431.839L104.171 459.071Z" fill="#008080"/>
<path d="M243.617 489.351C243.617 489.351 278.41 507.078 279.941 510.854C281.471 514.63 280.939 516.119 279.232 516.072L216.937 514.354C215.924 514.326 215.147 513.424 215.273 512.425L219.165 481.722C219.302 480.636 220.429 479.986 221.455 480.399L243.323 489.198C243.425 489.24 243.524 489.291 243.617 489.351Z" fill="#0C0C0C"/>
<path d="M279.31 516.396C279.281 516.396 279.252 516.396 279.223 516.395L216.928 514.676C216.352 514.66 215.806 514.399 215.429 513.959C215.055 513.523 214.881 512.949 214.953 512.384L218.845 481.681C218.922 481.068 219.272 480.538 219.803 480.226C220.342 479.909 220.988 479.863 221.576 480.099L243.443 488.899C243.559 488.945 243.672 489.003 243.778 489.071C244.182 489.277 252.736 493.646 261.361 498.404C265.783 500.843 279.24 508.267 280.24 510.733C281.241 513.201 281.43 514.829 280.819 515.71C280.503 516.165 279.995 516.396 279.31 516.396ZM220.814 480.596C220.576 480.596 220.34 480.659 220.13 480.783C219.772 480.993 219.537 481.35 219.485 481.762L215.593 512.465C215.545 512.849 215.664 513.241 215.919 513.539C216.178 513.841 216.552 514.02 216.946 514.031L279.241 515.75C279.746 515.762 280.089 515.63 280.289 515.342C280.612 514.876 280.763 513.74 279.642 510.975C279.301 510.133 276.432 507.454 261.051 498.97C252.267 494.124 243.558 489.683 243.471 489.638L243.442 489.622C243.366 489.573 243.286 489.531 243.203 489.498L221.335 480.698C221.165 480.63 220.989 480.596 220.814 480.596Z" fill="#0C0C0C"/>
<path d="M280.799 514.069L281.075 520.274L215.083 519.772L215.273 512.425L280.799 514.069Z" fill="white"/>
<path d="M281.582 520.762L281.072 520.758L214.586 520.252L214.802 511.929L281.262 513.596L281.582 520.762ZM215.579 519.292L280.569 519.786L280.335 514.541L215.744 512.921L215.579 519.292Z" fill="#0C0C0C"/>
<path d="M268.077 510.662C267.913 510.662 267.749 510.607 267.613 510.494C267.305 510.237 267.263 509.779 267.52 509.471L271.627 504.545C271.884 504.237 272.342 504.195 272.65 504.452C272.958 504.709 272.999 505.167 272.742 505.475L268.636 510.401C268.492 510.573 268.285 510.662 268.077 510.662Z" fill="white"/>
<path d="M263.414 509.347C263.25 509.347 263.086 509.292 262.95 509.178C262.642 508.922 262.6 508.464 262.857 508.156L267.984 502.006C268.241 501.698 268.699 501.656 269.007 501.913C269.315 502.17 269.356 502.628 269.1 502.936L263.973 509.086C263.829 509.258 263.622 509.347 263.414 509.347Z" fill="white"/>
<path d="M257.968 508.177C257.804 508.177 257.639 508.122 257.503 508.009C257.195 507.752 257.154 507.294 257.411 506.986L263.517 499.661C263.774 499.353 264.232 499.312 264.54 499.569C264.848 499.825 264.89 500.283 264.633 500.591L258.526 507.916C258.382 508.089 258.176 508.177 257.968 508.177Z" fill="white"/>
<path d="M206.505 516.349L184.296 439.355L111.259 468.062C81.2046 448.199 75.2287 422.739 95.8526 415.971C117.01 409.027 215.26 370.668 225.269 401.604C231.362 420.434 258.236 496.14 258.236 496.14C251.203 502.293 215.005 519.615 206.505 516.349Z" fill="white"/>
<path d="M209.23 517.225C207.854 517.225 206.937 517.034 206.331 516.801L206.106 516.715L206.039 516.483L183.978 440L111.201 468.605L110.992 468.466C101.648 462.291 94.1436 455.233 89.2896 448.054C84.6586 441.206 82.6148 434.577 83.379 428.885C83.796 425.779 85.0417 423.06 87.0813 420.803C89.1815 418.479 92.0817 416.699 95.7016 415.511C97.8895 414.793 100.837 413.761 104.569 412.455C118.048 407.739 140.607 399.845 162.539 394.603C174.673 391.703 185.231 389.956 193.917 389.411C204.247 388.763 212.23 389.796 217.644 392.482C221.741 394.516 224.461 397.535 225.73 401.455C231.751 420.063 258.423 495.221 258.692 495.978L258.802 496.288L258.554 496.504C254.92 499.685 243.982 505.582 233.111 510.222C219.926 515.849 212.924 517.225 209.23 517.225ZM206.901 515.976C210.63 517.171 220.004 514.764 232.731 509.332C243.281 504.828 253.867 499.157 257.668 495.988C255.771 490.642 230.635 419.759 224.809 401.753C223.624 398.09 221.068 395.263 217.213 393.35C194.423 382.04 131.681 403.994 104.889 413.369C101.152 414.677 98.2003 415.71 96.0035 416.431C89.1766 418.671 85.143 423.022 84.3385 429.014C83.6064 434.467 85.5958 440.864 90.0916 447.512C94.8389 454.533 102.175 461.447 111.316 467.52L184.614 438.71L206.901 515.976Z" fill="#0C0C0C"/>
<path d="M177.74 416.295L176.814 416.579L183.851 439.483L184.777 439.198L177.74 416.295Z" fill="#0C0C0C"/>
<path d="M83.7083 434.798C83.7083 434.798 72.9477 382.483 68.7761 356.908C64.6045 331.332 87.4289 328.298 97.4238 329.835C103.157 330.716 119.021 336.801 121.181 345.499C133.182 393.813 144.201 401.58 144.201 401.58C126.109 403.692 86.1899 421.045 83.7083 434.798Z" fill="white"/>
<path d="M83.7395 437.352L83.2342 434.895C83.1266 434.372 72.4239 382.278 68.2983 356.986C66.8238 347.946 68.5362 340.879 73.3879 335.983C80.4018 328.905 91.843 328.487 97.4975 329.357C100.408 329.804 105.836 331.546 110.875 334.312C115.115 336.639 120.426 340.448 121.651 345.383C125.047 359.053 130.557 378.108 137.527 391.258C141.701 399.134 144.454 401.166 144.481 401.186L145.497 401.915L144.257 402.061C135.128 403.127 120.686 408.028 108.318 414.256C94.0498 421.442 85.2534 428.961 84.1847 434.884L83.7395 437.352ZM92.8588 329.989C90.5271 329.989 88.1134 330.23 85.8491 330.705C81.0035 331.721 76.9323 333.781 74.0757 336.664C69.4544 341.328 67.8322 348.113 69.2539 356.83C72.9274 379.351 81.8233 423.155 83.793 432.798C84.9294 429.968 87.4641 426.926 91.3558 423.729C95.4984 420.325 101.213 416.751 107.883 413.392C119.88 407.35 133.835 402.546 143.094 401.235C141.957 400.09 139.715 397.421 136.764 391.885C129.708 378.649 124.14 359.418 120.712 345.617C118.617 337.184 102.951 331.175 97.3504 330.314C95.9357 330.096 94.4153 329.989 92.8588 329.989Z" fill="#0C0C0C"/>
<path opacity="0.5" d="M77.4266 373.066C82.8499 355.704 147.017 395.982 142.841 405.332C138.664 414.682 72.0033 390.429 77.4266 373.066Z" fill="#008080"/>
<path d="M90.0393 330.438L101.36 318.579L109.028 324.746L101.269 331.74C101.269 331.74 115.656 344.844 111.366 347.847C106.46 351.281 89.6822 332.908 90.0393 330.438Z" fill="white"/>
<path d="M109.882 348.756C108.593 348.756 106.961 348.152 105.003 346.946C102.004 345.1 98.1446 341.732 94.6793 337.937C93.421 336.559 89.3328 331.941 89.5602 330.368L89.5823 330.215L101.317 317.923L109.775 324.725L101.987 331.744C104.014 333.639 112.913 342.211 112.643 346.422C112.593 347.201 112.257 347.814 111.644 348.243C111.155 348.585 110.567 348.756 109.882 348.756ZM90.5245 330.63C90.6504 331.34 92.1711 333.755 95.3943 337.285C98.8023 341.017 102.584 344.32 105.511 346.122C108.113 347.724 110.042 348.183 111.089 347.45C111.459 347.191 111.646 346.844 111.677 346.36C111.735 345.445 111.229 344.139 110.173 342.478C109.296 341.1 108.049 339.498 106.465 337.716C103.755 334.666 100.971 332.123 100.943 332.097L100.548 331.738L108.282 324.766L101.403 319.235L90.5245 330.63Z" fill="#0C0C0C"/>
<path d="M105.873 309.105C103.512 309.002 106.558 315.9 100.376 313.331C99.4844 313.38 98.7376 314.397 98.6816 315.679C98.6337 316.776 99.1069 317.725 99.7984 318.055C100.23 321.458 104.672 326.044 107.446 326.165C110.657 326.306 111.174 321.08 111.357 316.91C111.539 312.74 109.084 309.245 105.873 309.105Z" fill="white"/>
<path d="M107.576 326.652C107.526 326.652 107.476 326.651 107.425 326.648C105.988 326.586 104.107 325.474 102.393 323.674C100.762 321.962 99.642 319.995 99.3548 318.358C98.6048 317.858 98.1475 316.813 98.198 315.657C98.2653 314.12 99.1897 312.912 100.349 312.847L100.459 312.841L100.561 312.883C101.904 313.442 102.858 313.567 103.397 313.254C104.003 312.904 104.125 311.949 104.244 311.025C104.385 309.928 104.564 308.56 105.894 308.621C109.367 308.773 112.034 312.501 111.84 316.931C111.749 319.018 111.578 321.405 111 323.295C110.319 325.523 109.167 326.652 107.576 326.652ZM100.307 313.825C99.7095 313.935 99.207 314.746 99.1654 315.7C99.1278 316.561 99.4818 317.367 100.007 317.619L100.246 317.732L100.279 317.995C100.467 319.479 101.52 321.353 103.094 323.007C104.616 324.605 106.292 325.63 107.468 325.681C107.904 325.701 109.234 325.759 110.074 323.012C110.624 321.215 110.79 318.796 110.873 316.889C111.043 312.992 108.791 309.717 105.852 309.589C105.493 309.579 105.368 309.879 105.204 311.149C105.07 312.198 104.902 313.502 103.882 314.093C103.076 314.559 101.905 314.472 100.307 313.825Z" fill="#0C0C0C"/>
<path d="M109.109 371.497L108.947 370.543C109.009 370.532 115.188 369.427 116.594 365.263C117.637 362.17 115.867 358.133 111.331 353.265L112.04 352.605C116.838 357.756 118.679 362.12 117.51 365.577C116.845 367.542 115.173 369.191 112.673 370.345C110.82 371.2 109.179 371.486 109.109 371.497Z" fill="#0C0C0C"/>
<path d="M123.26 367.082C123.26 367.082 139.208 359.539 120.862 348.354L123.26 367.082Z" fill="white"/>
<path d="M123.467 367.52L123.053 366.645C123.112 366.617 128.958 363.792 129.196 359.249C129.372 355.875 126.484 352.348 120.61 348.767L121.114 347.94C127.317 351.722 130.361 355.545 130.163 359.303C130.05 361.439 128.848 363.541 126.687 365.383C125.084 366.748 123.532 367.489 123.467 367.52Z" fill="#0C0C0C"/>
<path d="M137.49 230.147C137.908 204.506 159.033 184.058 184.673 184.476C210.314 184.893 230.762 206.018 230.344 231.659C230.073 248.29 202.548 268.915 202.249 287.231C201.951 305.547 201.555 329.843 201.555 329.843L163.067 329.216C163.067 329.216 163.418 307.62 163.765 286.304C164.113 264.988 137.223 246.575 137.49 230.147Z" fill="#DBFC4F"/>
<path d="M187.958 303.676C187.902 303.676 187.846 303.67 187.79 303.658C187.354 303.566 187.075 303.138 187.167 302.702L199.504 244.265C197.881 246.253 196.271 247.154 194.634 247.003C193.066 246.859 191.649 245.743 190.423 243.685C190.19 243.294 189.987 242.906 189.815 242.548C188.433 245.105 186.83 246.418 185.036 246.456C182.131 246.511 179.769 243.222 178.621 241.265C176.987 244.005 175.223 245.351 173.367 245.262C171.818 245.19 170.527 244.144 169.54 242.931L178.716 302.408C178.783 302.849 178.482 303.261 178.041 303.329C177.601 303.398 177.189 303.095 177.121 302.655L167.291 238.941C167.229 238.534 167.482 238.146 167.879 238.039C168.275 237.932 168.69 238.14 168.84 238.523C169.388 239.915 171.285 243.551 173.443 243.65C174.865 243.717 176.409 242.179 177.909 239.207C178.046 238.935 178.325 238.763 178.629 238.763C178.632 238.763 178.636 238.763 178.639 238.763C178.947 238.767 179.226 238.946 179.358 239.225C180.104 240.794 182.556 244.842 184.957 244.842C184.973 244.842 184.988 244.842 185.003 244.842C186.819 244.803 188.248 242.321 189.127 240.245C189.259 239.935 189.57 239.735 189.907 239.754C190.244 239.769 190.536 239.993 190.638 240.314C191.072 241.662 192.662 245.203 194.783 245.396C196.461 245.55 198.43 243.611 200.482 239.791C200.672 239.438 201.093 239.277 201.47 239.415C201.847 239.553 202.065 239.947 201.982 240.34L188.746 303.035C188.666 303.415 188.331 303.676 187.958 303.676Z" fill="white"/>
<path d="M158.989 328.864C159.025 326.82 160.201 325.03 161.944 324.006C160.238 322.93 159.125 321.105 159.16 319.062C159.202 316.659 160.82 314.606 163.081 313.738C160.852 312.802 159.306 310.701 159.348 308.298C159.405 305.074 162.297 302.48 165.777 302.533L199.792 303.05C203.271 303.103 206.072 305.784 206.016 309.008C205.974 311.411 204.356 313.464 202.095 314.332C204.325 315.268 205.87 317.369 205.828 319.772C205.792 321.815 204.616 323.605 202.874 324.629C204.579 325.705 205.693 327.53 205.657 329.574C205.601 332.798 202.708 335.392 199.229 335.34L165.213 334.822C161.734 334.769 158.933 332.088 158.989 328.864Z" fill="#0C0C0C"/>
<path d="M201.958 313.669L161.806 323.346L162.126 324.673L202.278 314.996L201.958 313.669Z" fill="white"/>
<path d="M202.858 303.491L162.706 313.168L163.026 314.495L203.178 304.818L202.858 303.491Z" fill="white"/>
<path d="M202.971 324.083L162.819 333.759L163.139 335.086L203.291 325.409L202.971 324.083Z" fill="white"/>
<path d="M161.594 334.877L158.501 350.984L167.557 348.919V334.855L161.594 334.877Z" fill="white"/>
<path d="M158.501 351.468C158.377 351.468 158.256 351.42 158.165 351.332C158.047 351.218 157.995 351.053 158.026 350.892L161.119 334.785C161.163 334.558 161.361 334.393 161.593 334.392L167.555 334.371C167.689 334.369 167.807 334.421 167.898 334.512C167.99 334.603 168.041 334.726 168.041 334.855V348.919C168.041 349.145 167.885 349.34 167.664 349.391L158.608 351.455C158.573 351.464 158.537 351.468 158.501 351.468ZM161.995 335.359L159.116 350.347L167.073 348.533V335.341L161.995 335.359Z" fill="#0C0C0C"/>
<path d="M154.475 374.198C144.141 367.307 156.615 349.468 165.294 333.059C169.876 324.395 173.187 320.338 175.523 321.402C177.986 322.522 171.728 333.3 171.728 333.3C171.728 333.3 179.461 321.237 181.967 322.592C184.677 324.057 176.209 335.636 176.209 335.636C176.209 335.636 183.893 323.447 186.051 325.24C187.576 326.507 181.031 338.585 181.031 338.585C181.031 338.585 187.506 330.869 188.928 331.95C190.445 333.104 183.25 345.439 179.152 352.367C176.19 357.375 158.142 376.643 154.475 374.198Z" fill="white"/>
<path d="M155.272 374.895C154.857 374.895 154.5 374.797 154.206 374.601C150.071 371.843 149.068 367.177 151.139 360.336C152.944 354.373 156.906 347.255 160.738 340.372C162.119 337.891 163.547 335.326 164.866 332.833C169.889 323.334 173.136 319.784 175.724 320.961C176.08 321.123 176.339 321.428 176.471 321.842C176.855 323.048 176.119 325.364 175.147 327.627C175.273 327.463 175.4 327.3 175.528 327.138C179.781 321.749 181.371 321.719 182.197 322.166C182.574 322.37 182.827 322.719 182.93 323.177C183.129 324.057 182.742 325.413 182.074 326.92C183.162 325.761 184.348 324.745 185.279 324.597C185.694 324.53 186.067 324.625 186.36 324.868C186.972 325.376 187.236 326.691 184.554 332.589C184.098 333.59 183.621 334.581 183.182 335.467C183.48 335.154 183.79 334.835 184.104 334.52C186.029 332.599 188.142 330.745 189.221 331.565C190.169 332.286 189.427 334.712 186.575 340.216C184.541 344.142 181.892 348.686 179.569 352.613C178.157 355.001 173.595 360.288 168.958 364.913C165.589 368.273 159.428 374.027 156.018 374.804C155.751 374.865 155.503 374.895 155.272 374.895ZM174.758 321.721C171.837 321.721 167.284 330.331 165.722 333.285C164.398 335.787 162.968 338.357 161.584 340.842C157.777 347.681 153.84 354.753 152.066 360.616C150.108 367.084 150.959 371.271 154.744 373.795C154.971 373.946 155.327 373.968 155.802 373.86C161.121 372.647 176.061 356.642 178.736 352.12C180.978 348.329 183.541 343.936 185.548 340.092C188.883 333.706 188.72 332.527 188.625 332.333C188.533 332.312 187.73 332.25 184.697 335.297C182.974 337.028 181.418 338.878 181.402 338.896C181.243 339.087 180.965 339.125 180.759 338.985C180.554 338.846 180.488 338.573 180.606 338.355C180.622 338.325 182.209 335.39 183.617 332.31C186.318 326.399 185.763 325.638 185.738 325.609C185.69 325.57 185.608 325.524 185.431 325.553C184.148 325.757 181.585 328.785 179.324 331.905C178.06 333.907 176.887 335.529 176.6 335.922C176.446 336.132 176.153 336.183 175.937 336.036C175.721 335.889 175.661 335.598 175.8 335.378C175.813 335.356 176.919 333.606 178.394 331.545C178.65 331.142 178.911 330.723 179.169 330.295C181.94 325.704 182.123 323.998 181.986 323.39C181.932 323.15 181.825 323.065 181.737 323.018C181.535 322.908 180.324 322.624 176.288 327.738C174.082 330.533 172.155 333.531 172.136 333.561C171.994 333.782 171.701 333.85 171.476 333.713C171.252 333.576 171.177 333.284 171.31 333.057C171.322 333.035 172.588 330.849 173.737 328.387C175.704 324.172 175.716 322.662 175.549 322.137C175.486 321.938 175.395 321.875 175.323 321.842C175.142 321.761 174.954 321.721 174.758 321.721Z" fill="#0C0C0C"/>
<path d="M74.0381 364.678C74.0381 364.678 120.118 397.345 136.632 405.528C153.313 413.794 180.946 354.285 180.946 354.285C182.194 347.679 169.45 340.897 159.772 342.248C152.061 355.913 141.817 380.777 133.53 375.72C117.715 366.069 77.2546 335.724 77.2546 335.724L74.0381 364.678Z" fill="white"/>
<path d="M140.011 406.798C138.743 406.798 137.542 406.52 136.417 405.962C120.058 397.856 74.2192 365.4 73.7581 365.073L74.3181 364.283C74.7786 364.609 120.556 397.022 136.847 405.094C138.703 406.014 140.814 406.069 143.122 405.258C151.493 402.316 161.202 388.585 167.873 377.585C174.872 366.043 180.069 355.016 180.481 354.136C180.86 351.971 179.533 350.037 178.347 348.793C174.318 344.566 166.341 341.915 160.076 342.697C158.616 345.297 157.076 348.269 155.45 351.41C149.726 362.462 143.24 374.988 137.205 376.675C135.822 377.061 134.501 376.879 133.278 376.133C117.624 366.58 85.871 342.738 85.5519 342.499L86.1337 341.725C86.4522 341.964 118.168 365.778 133.783 375.307C134.78 375.916 135.814 376.059 136.945 375.742C142.573 374.169 148.957 361.842 154.59 350.965C156.265 347.731 157.847 344.675 159.351 342.011L159.469 341.802L159.706 341.769C166.28 340.852 174.776 343.643 179.048 348.125C180.989 350.161 181.81 352.323 181.422 354.375L181.411 354.434L181.385 354.489C181.332 354.603 175.991 366.062 168.705 378.08C158.881 394.281 150.382 403.733 143.443 406.172C142.254 406.589 141.107 406.798 140.011 406.798Z" fill="#0C0C0C"/>
<path d="M144.815 396.85C144.815 396.85 139.371 402.542 131.204 396.85H144.815Z" fill="white"/>
<path d="M138.382 399.862C135.403 399.862 132.776 398.536 130.927 397.247L131.481 396.453C134.741 398.725 137.921 399.421 140.934 398.521C143.167 397.854 144.453 396.529 144.465 396.516L145.165 397.185C145.106 397.247 143.687 398.709 141.211 399.448C140.243 399.738 139.296 399.862 138.382 399.862Z" fill="#0C0C0C"/>
</svg>
