<svg width="57" height="36" viewBox="0 0 57 36" fill="none" xmlns="http://www.w3.org/2000/svg">
<path d="M35.6274 4.47651L20.6313 4.52808L21.0857 31.9822L36.0819 31.9306L35.6274 4.47651Z" fill="#FF5F00"/>
<path d="M21.6183 18.3107C21.5255 12.7268 24.027 7.7652 27.945 4.54689C24.9876 2.2262 21.28 0.830684 17.2609 0.844449C7.73934 0.877059 0.165907 8.72097 0.326482 18.3836C0.487056 28.0463 8.32031 35.8374 17.8418 35.8048C21.861 35.7911 25.5218 34.3703 28.4017 32.0296C24.378 28.8871 21.7111 23.8947 21.6183 18.3107Z" fill="#EB001B"/>
<path d="M56.3867 18.0752C56.5472 27.7379 48.9738 35.5818 39.4523 35.6144C35.4332 35.6282 31.7255 34.2327 28.7681 31.912C32.734 28.6935 35.1876 23.7321 35.0948 18.1482C35.002 12.5642 32.336 7.62035 28.3114 4.42925C31.1914 2.08857 34.8522 0.667816 38.8713 0.65405C48.3928 0.62144 56.2269 8.46114 56.3867 18.0752Z" fill="#F79E1B"/>
</svg>
