<svg width="59" height="17" viewBox="0 0 59 17" fill="none" xmlns="http://www.w3.org/2000/svg">
<path d="M10.6744 1.72143C9.94651 1.22102 8.99666 0.970215 7.82486 0.970215H3.28827C2.92904 0.970215 2.73058 1.14987 2.69288 1.50884L0.850023 13.0769C0.83087 13.1905 0.859296 13.2944 0.935042 13.3889C1.01035 13.4835 1.10508 13.5306 1.21852 13.5306H3.37337C3.75132 13.5306 3.95906 13.3514 3.99719 12.992L4.50748 9.87324C4.52611 9.7221 4.59258 9.59921 4.70603 9.50457C4.81939 9.4101 4.96117 9.34831 5.1313 9.32006C5.30142 9.29198 5.46184 9.27777 5.61333 9.27777C5.76439 9.27777 5.94387 9.28739 6.15213 9.30619C6.35986 9.325 6.49229 9.33427 6.54906 9.33427C8.17455 9.33427 9.45044 8.87625 10.3768 7.95916C11.3027 7.04258 11.7662 5.77155 11.7662 4.14554C11.7662 3.03033 11.402 2.22235 10.6744 1.72117V1.72143ZM8.3354 5.19497C8.24059 5.85666 7.99515 6.2912 7.59823 6.49919C7.20121 6.70745 6.63416 6.8111 5.89707 6.8111L4.96134 6.83935L5.44346 3.80547C5.48108 3.59773 5.60388 3.49373 5.81197 3.49373H6.35085C7.10657 3.49373 7.65508 3.60267 7.99533 3.81968C8.3354 4.03721 8.44885 4.49575 8.3354 5.19497Z" fill="#003087"/>
<path d="M58.549 0.970215H56.4511C56.2426 0.970215 56.1199 1.07421 56.0824 1.2823L54.2394 13.0774L54.211 13.1341C54.211 13.2291 54.2488 13.3184 54.3246 13.4036C54.3998 13.4885 54.4947 13.531 54.608 13.531H56.4796C56.8382 13.531 57.0367 13.3518 57.0751 12.9924L58.918 1.39574V1.36758C58.9179 1.10281 58.7946 0.970563 58.549 0.970563V0.970215Z" fill="#009CDE"/>
<path d="M33.2013 5.5356C33.2013 5.44131 33.1633 5.35135 33.0882 5.2665C33.0123 5.18149 32.9272 5.13867 32.8329 5.13867H30.6497C30.4414 5.13867 30.2713 5.23366 30.1392 5.42215L27.1338 9.84546L25.8862 5.59245C25.7912 5.29025 25.5836 5.13867 25.2625 5.13867H23.1356C23.0409 5.13867 22.9559 5.18131 22.8808 5.2665C22.8049 5.35135 22.7673 5.44148 22.7673 5.5356C22.7673 5.57364 22.9516 6.13107 23.3201 7.2085C23.6886 8.28626 24.0856 9.44879 24.5109 10.6964C24.9363 11.9438 25.1582 12.6057 25.1772 12.6807C23.6271 14.7981 22.8524 15.9322 22.8524 16.0832C22.8524 16.3291 22.975 16.4519 23.221 16.4519H25.4042C25.612 16.4519 25.7821 16.3576 25.9147 16.1685L33.1449 5.73398C33.1825 5.69654 33.2013 5.63067 33.2013 5.53551V5.5356Z" fill="#003087"/>
<path d="M53.531 5.13865H51.3761C51.1112 5.13865 50.9511 5.45064 50.8944 6.07455C50.4023 5.31865 49.505 4.94019 48.2005 4.94019C46.8396 4.94019 45.6817 5.45065 44.7273 6.47139C43.7726 7.49214 43.2955 8.6928 43.2955 10.0725C43.2955 11.188 43.6216 12.0763 44.2735 12.7377C44.9257 13.3997 45.7998 13.7301 46.8965 13.7301C47.4446 13.7301 48.0022 13.6165 48.5692 13.3898C49.1363 13.163 49.5801 12.8607 49.902 12.4825C49.902 12.5015 49.8827 12.5863 49.8454 12.7374C49.8071 12.8889 49.7885 13.0027 49.7885 13.0777C49.7885 13.3805 49.9111 13.5313 50.1572 13.5313H52.1137C52.4724 13.5313 52.6806 13.352 52.7371 12.9926L53.8998 5.59226C53.9184 5.47873 53.8902 5.37499 53.8147 5.28035C53.7387 5.18605 53.6444 5.13865 53.531 5.13865ZM49.831 10.7246C49.349 11.1972 48.7676 11.4333 48.0872 11.4333C47.5388 11.4333 47.095 11.2824 46.7546 10.9797C46.4142 10.678 46.244 10.2621 46.244 9.73218C46.244 9.03331 46.4804 8.44208 46.9531 7.96013C47.425 7.4781 48.0115 7.23717 48.7109 7.23717C49.2398 7.23717 49.6793 7.39308 50.0294 7.70482C50.3787 8.01681 50.5541 8.44685 50.5541 8.99518C50.5539 9.67559 50.3129 10.2523 49.831 10.7246Z" fill="#009CDE"/>
<path d="M21.3211 5.13865H19.1662C18.9011 5.13865 18.7408 5.45064 18.684 6.07455C18.1737 5.31865 17.2757 4.94019 15.9904 4.94019C14.6294 4.94019 13.4715 5.45065 12.5171 6.47139C11.5624 7.49214 11.0853 8.6928 11.0853 10.0725C11.0853 11.188 11.4114 12.0763 12.0635 12.7377C12.7157 13.3997 13.5897 13.7301 14.6862 13.7301C15.2152 13.7301 15.7637 13.6165 16.3307 13.3898C16.8977 13.163 17.3514 12.8607 17.6916 12.4825C17.6158 12.7091 17.5782 12.9077 17.5782 13.0777C17.5782 13.3805 17.701 13.5313 17.9468 13.5313H19.9032C20.262 13.5313 20.4702 13.352 20.527 12.9926L21.6894 5.59226C21.708 5.47873 21.6798 5.37499 21.6044 5.28035C21.5287 5.18605 21.4344 5.13865 21.3211 5.13865ZM17.6209 10.7386C17.1388 11.2023 16.5478 11.4333 15.8489 11.4333C15.3004 11.4333 14.8609 11.2824 14.5304 10.9797C14.1994 10.678 14.0341 10.2621 14.0341 9.73218C14.0341 9.03331 14.2703 8.44208 14.743 7.96013C15.2153 7.4781 15.8013 7.23708 16.501 7.23708C17.03 7.23708 17.4694 7.39308 17.8195 7.70482C18.1689 8.01681 18.344 8.44685 18.344 8.99518C18.3439 9.69457 18.103 10.276 17.6209 10.7386Z" fill="#003087"/>
<path d="M42.8843 1.72143C42.1565 1.22102 41.2069 0.970215 40.0348 0.970215H35.5265C35.1484 0.970215 34.9403 1.14987 34.9028 1.50884L33.0598 13.0769C33.0406 13.1905 33.069 13.2944 33.1449 13.3889C33.2198 13.4835 33.3148 13.5306 33.4283 13.5306H35.7531C35.98 13.5306 36.1311 13.4079 36.2069 13.1621L36.7173 9.87324C36.7361 9.7221 36.8022 9.59921 36.9158 9.50457C37.0293 9.4101 37.1709 9.34831 37.3412 9.32006C37.5112 9.29198 37.6716 9.27777 37.8231 9.27777C37.9743 9.27777 38.1537 9.28739 38.3618 9.30619C38.5696 9.325 38.7024 9.33427 38.7587 9.33427C40.3845 9.33427 41.6602 8.87625 42.5865 7.95916C43.5128 7.04258 43.9759 5.77155 43.9759 4.14554C43.9759 3.03033 43.6119 2.22227 42.8843 1.72117V1.72143ZM39.9782 6.38566C39.5623 6.66914 38.9384 6.81084 38.1069 6.81084L37.1994 6.83927L37.6814 3.80529C37.7189 3.59764 37.8418 3.49347 38.0499 3.49347H38.5601C38.9761 3.49347 39.3068 3.51245 39.5529 3.55015C39.7982 3.58811 40.0348 3.70606 40.2616 3.90444C40.4886 4.10299 40.6019 4.39141 40.6019 4.76927C40.6019 5.56347 40.3937 6.10192 39.9782 6.38566Z" fill="#009CDE"/>
</svg>
