<svg width="51" height="50" viewBox="0 0 51 50" fill="none" xmlns="http://www.w3.org/2000/svg">
<g clip-path="url(#clip0_35_3846)">
<path d="M7.32916 36.1676L0.900448 42.4829C0.789798 42.5916 0.714008 42.7308 0.682732 42.8827C0.651455 43.0346 0.666108 43.1924 0.724824 43.336C0.78354 43.4795 0.883661 43.6024 1.01243 43.6888C1.14121 43.7753 1.2928 43.8215 1.44791 43.8215H14.6659C15.916 45.5735 17.5665 47.0016 19.48 47.9869C21.3934 48.9722 23.5146 49.4862 25.6669 49.4862C27.8191 49.4862 29.9403 48.9722 31.8538 47.9869C33.7672 47.0016 35.4177 45.5735 36.6678 43.8215H49.8854C50.0405 43.8215 50.1921 43.7753 50.3209 43.6888C50.4497 43.6024 50.5498 43.4795 50.6085 43.336C50.6672 43.1924 50.6819 43.0346 50.6506 42.8827C50.6193 42.7308 50.5435 42.5916 50.4329 42.4829L44.0042 36.1676L50.4503 29.418C50.556 29.3073 50.6269 29.1681 50.6542 29.0176C50.6814 28.867 50.6639 28.7118 50.6037 28.5711C50.5436 28.4304 50.4434 28.3105 50.3157 28.2263C50.188 28.142 50.0384 28.0971 49.8854 28.0971H37.5005C37.7642 25.2788 37.3722 20.6308 36.0249 18.5514C35.9271 18.4006 35.7804 18.2881 35.6094 18.2329C33.5473 17.5664 31.4051 16.5428 29.2422 15.1904C29.1533 15.1348 29.054 15.0977 28.9504 15.0812C28.8468 15.0648 28.7409 15.0694 28.6391 15.0947C28.5373 15.1201 28.4417 15.1657 28.3579 15.2289C28.2741 15.292 28.2039 15.3713 28.1514 15.4622L25.6667 19.7662L23.1818 15.4622C23.1293 15.3713 23.0591 15.292 22.9753 15.2289C22.8915 15.1657 22.7959 15.1201 22.6941 15.0947C22.5923 15.0694 22.4864 15.0648 22.3828 15.0812C22.2792 15.0977 22.1799 15.1348 22.091 15.1904C19.9282 16.5428 17.786 17.5664 15.7238 18.2329C15.5528 18.2881 15.4061 18.4006 15.3084 18.5514C13.973 20.6119 13.5737 25.2994 13.833 28.0971H1.44791C1.29491 28.0971 1.14528 28.142 1.01758 28.2263C0.889883 28.3105 0.789739 28.4304 0.729574 28.5711C0.66941 28.7118 0.651874 28.867 0.679143 29.0176C0.706411 29.1681 0.777284 29.3073 0.882967 29.418L7.32916 36.1676ZM25.6667 47.9235C23.3004 47.9235 20.9872 47.2218 19.0197 45.9072C17.0522 44.5925 15.5187 42.724 14.6131 40.5378C13.7076 38.3516 13.4706 35.946 13.9323 33.6252C14.3939 31.3043 15.5334 29.1725 17.2067 27.4993C18.8799 25.826 21.0117 24.6866 23.3325 24.2249C25.6534 23.7633 28.059 24.0002 30.2452 24.9057C32.4314 25.8113 34.2999 27.3448 35.6146 29.3123C36.9292 31.2798 37.6309 33.593 37.6309 35.9593C37.6273 39.1313 36.3657 42.1724 34.1227 44.4153C31.8797 46.6583 28.8387 47.9199 25.6667 47.9235ZM42.3421 35.6455C42.2003 35.794 42.1227 35.9923 42.1259 36.1976C42.1292 36.4029 42.2132 36.5986 42.3596 36.7425L47.9749 42.259H37.6331C38.6574 40.3171 39.1927 38.1548 39.1927 35.9593C39.1927 33.7638 38.6574 31.6014 37.6331 29.6596H48.0592L42.3421 35.6455ZM16.487 19.6265C18.4905 18.9348 20.4153 18.0332 22.2292 16.9367L24.9904 21.7193C25.059 21.8381 25.1576 21.9367 25.2763 22.0053C25.3951 22.0738 25.5298 22.1099 25.667 22.1099C25.8041 22.1099 25.9388 22.0738 26.0576 22.0053C26.1763 21.9367 26.2749 21.8381 26.3435 21.7193L29.1042 16.9367C30.9181 18.0332 32.8428 18.9347 34.8463 19.6264C35.6923 21.1986 36.1159 24.672 35.9962 27.2363C34.7282 25.7314 33.1467 24.5218 31.3623 23.692C29.5778 22.8622 27.6337 22.4324 25.6658 22.4325C23.6979 22.4326 21.7537 22.8628 19.9695 23.6928C18.1852 24.5229 16.6038 25.7328 15.336 27.2379C15.2112 24.6602 15.6336 21.2066 16.487 19.6265ZM13.6996 29.6596C12.6753 31.6014 12.1399 33.7638 12.1399 35.9593C12.1399 38.1548 12.6753 40.3171 13.6996 42.259H3.35806L8.9733 36.7425C9.11977 36.5986 9.20372 36.4029 9.20699 36.1976C9.21026 35.9923 9.13259 35.794 8.99078 35.6455L3.27398 29.6592L13.6996 29.6596ZM25.7174 14.7208C25.7492 14.7216 25.7807 14.7219 25.8125 14.7219C27.2578 14.7219 28.5982 13.9675 29.5951 12.5895C30.6798 11.0896 31.3211 8.96064 31.501 6.26133C31.5027 6.23594 31.5031 6.21055 31.5024 6.18516C31.461 4.66603 30.828 3.22312 29.7384 2.16381C28.6488 1.10449 27.1886 0.512509 25.6689 0.513964H25.6644C24.1447 0.51251 22.6845 1.10452 21.5948 2.16388C20.5052 3.22324 19.8723 4.6662 19.8309 6.18535V6.22598C19.8815 8.64014 20.5067 10.7457 21.6389 12.3148C22.7174 13.8094 24.2038 14.6862 25.7174 14.7208ZM25.6667 2.07646C26.7739 2.07603 27.8381 2.50533 28.635 3.27394C29.432 4.04254 29.8996 5.09046 29.9393 6.19697C29.5866 11.3422 27.5077 13.1593 25.8073 13.1593C25.7892 13.1593 25.7711 13.1593 25.753 13.1587C24.733 13.1354 23.6953 12.4946 22.9058 11.4009C22.248 10.4891 21.4525 8.8499 21.3933 6.21436C21.4286 5.10467 21.8944 4.05227 22.692 3.27994C23.4896 2.50762 24.5564 2.07601 25.6667 2.07646ZM34.1108 33.9889C34.0672 33.8546 33.9881 33.7347 33.8818 33.6419C33.7755 33.549 33.646 33.4867 33.5072 33.4615L28.6793 32.5861L26.355 28.265C26.2882 28.1408 26.1889 28.0369 26.0678 27.9646C25.9466 27.8922 25.8082 27.854 25.667 27.854C25.5259 27.854 25.3875 27.8922 25.2663 27.9646C25.1452 28.0369 25.0459 28.1408 24.9791 28.265L22.6548 32.5861L17.8269 33.4615C17.6881 33.4867 17.5587 33.549 17.4524 33.6419C17.3461 33.7347 17.267 33.8546 17.2234 33.9888C17.1798 34.123 17.1733 34.2665 17.2047 34.4041C17.2361 34.5416 17.3042 34.6681 17.4017 34.7701L20.793 38.3163L20.1337 43.1784C20.1148 43.3183 20.134 43.4607 20.1895 43.5904C20.2449 43.7202 20.3345 43.8326 20.4487 43.9155C20.5629 43.9985 20.6974 44.049 20.8379 44.0616C20.9785 44.0742 21.1199 44.0486 21.247 43.9873L25.6667 41.8579L30.0872 43.9873C30.2143 44.0486 30.3557 44.0742 30.4962 44.0616C30.6368 44.049 30.7713 43.9985 30.8855 43.9156C30.9996 43.8326 31.0892 43.7203 31.1447 43.5905C31.2001 43.4607 31.2194 43.3184 31.2004 43.1785L30.5413 38.3164L33.9325 34.7702C34.03 34.6682 34.0981 34.5417 34.1295 34.4042C34.1609 34.2666 34.1544 34.1231 34.1108 33.9889ZM29.1518 37.5084C29.0707 37.5932 29.0098 37.6952 28.9735 37.8068C28.9372 37.9183 28.9265 38.0367 28.9422 38.1529L29.457 41.949L26.0058 40.2865C25.9 40.2356 25.7841 40.2091 25.6667 40.2091C25.5493 40.2091 25.4334 40.2356 25.3276 40.2865L21.8764 41.949L22.3911 38.1529C22.4068 38.0367 22.3961 37.9184 22.3599 37.8068C22.3236 37.6952 22.2627 37.5932 22.1816 37.5084L19.5338 34.7398L23.3034 34.0563C23.4189 34.0353 23.5282 33.9886 23.6232 33.9196C23.7182 33.8506 23.7964 33.7611 23.852 33.6577L25.6667 30.2842L27.4815 33.6578C27.5371 33.7612 27.6153 33.8507 27.7103 33.9197C27.8053 33.9887 27.9146 34.0354 28.0301 34.0564L31.7997 34.7399L29.1518 37.5084Z" fill="#008080"/>
</g>
<defs>
<clipPath id="clip0_35_3846">
<rect width="50" height="50" fill="white" transform="translate(0.666656)"/>
</clipPath>
</defs>
</svg>
