<svg width="59" height="19" viewBox="0 0 59 19" fill="none" xmlns="http://www.w3.org/2000/svg">
<path d="M54.7256 0.569092H51.0747C49.971 0.569092 49.122 0.908704 48.6125 2.01245L41.6505 17.8893H46.5749C46.5749 17.8893 47.4239 15.7668 47.5937 15.2573C48.1031 15.2573 52.9426 15.2573 53.6218 15.2573C53.7916 15.8517 54.2161 17.8044 54.2161 17.8044H58.6311L54.7256 0.569092ZM48.9521 11.6914C49.3767 10.6726 50.82 6.85193 50.82 6.85193C50.82 6.93683 51.2445 5.83309 51.4143 5.23877L51.754 6.76702C51.754 6.76702 52.6879 10.9273 52.8577 11.7763H48.9521V11.6914Z" fill="#3362AB"/>
<path d="M41.9901 12.2011C41.9901 15.7671 38.7638 18.1444 33.7545 18.1444C31.6319 18.1444 29.5943 17.7198 28.4905 17.2104L29.1698 13.3049L29.7641 13.5596C31.2923 14.2388 32.3112 14.4935 34.179 14.4935C35.5375 14.4935 36.9808 13.9841 36.9808 12.7955C36.9808 12.0313 36.3865 11.5219 34.5187 10.6729C32.7357 9.82385 30.3584 8.4654 30.3584 6.00321C30.3584 2.60708 33.6696 0.314697 38.3393 0.314697C40.1223 0.314697 41.6505 0.65431 42.5845 1.07883L41.9052 4.81457L41.5656 4.47495C40.7166 4.13534 39.6128 3.79573 37.9997 3.79573C36.2167 3.88063 35.3677 4.64476 35.3677 5.32398C35.3677 6.08811 36.3865 6.68244 37.9997 7.44656C40.7166 8.72011 41.9901 10.1635 41.9901 12.2011Z" fill="#3362AB"/>
<path d="M0.557373 0.739271L0.642276 0.399658H7.94395C8.96279 0.399658 9.72692 0.739271 9.98163 1.84301L11.5948 9.4843C9.98162 5.40895 6.24589 2.09772 0.557373 0.739271Z" fill="#F9B50B"/>
<path d="M21.8681 0.569278L14.4815 17.8046H9.4722L5.22704 3.37108C8.28356 5.32386 10.8307 8.38037 11.7646 10.5029L12.274 12.2859L16.8588 0.484375H21.8681V0.569278Z" fill="#3362AB"/>
<path d="M23.8209 0.484375H28.4905L25.5189 17.8046H20.8493L23.8209 0.484375Z" fill="#3362AB"/>
</svg>
